<ttFont>
<head>
    <!-- Most of this table will be recalculated by the compiler -->
    <tableVersion value="1.0"/>
    <fontRevision value="1.002"/>
    <checkSumAdjustment value="0xd64939ac"/>
    <magicNumber value="0x5f0f3cf5"/>
    <flags value="00000000 00000011"/>
    <unitsPerEm value="1000"/>
    <created value="Thu Jan 14 20:42:55 2016"/>
    <modified value="Thu Jan 14 20:42:58 2016"/>
    <xMin value="-22"/>
    <yMin value="-300"/>
    <xMax value="699"/>
    <yMax value="1155"/>
    <macStyle value="00000000 00000000"/>
    <lowestRecPPEM value="6"/>
    <fontDirectionHint value="2"/>
    <indexToLocFormat value="0"/>
    <glyphDataFormat value="0"/>
  </head>
    <TTGlyph name=".notdef" xMin="5" yMin="-200" xMax="545" yMax="800">
      <contour>
        <pt x="5" y="-200" on="1"/>
        <pt x="5" y="800" on="1"/>
        <pt x="545" y="800" on="1"/>
        <pt x="545" y="-200" on="1"/>
      </contour>
      <contour>
        <pt x="82" y="750" on="1"/>
        <pt x="275" y="360" on="1"/>
        <pt x="468" y="750" on="1"/>
      </contour>
      <contour>
        <pt x="491" y="676" on="1"/>
        <pt x="305" y="300" on="1"/>
        <pt x="491" y="-76" on="1"/>
      </contour>
      <contour>
        <pt x="59" y="-76" on="1"/>
        <pt x="245" y="300" on="1"/>
        <pt x="59" y="676" on="1"/>
      </contour>
      <contour>
        <pt x="275" y="240" on="1"/>
        <pt x="82" y="-150" on="1"/>
        <pt x="468" y="-150" on="1"/>
      </contour>
    </TTGlyph>
    <TTGlyph name="A" xMin="17" yMin="-5" xMax="534" yMax="620">
      <contour>
        <pt x="385" y="-5" on="1"/>
        <pt x="378" y="34" on="0"/>
        <pt x="361" y="114" on="0"/>
        <pt x="353" y="154" on="1"/>
        <pt x="196" y="154" on="1"/>
        <pt x="188" y="115" on="0"/>
        <pt x="171" y="38" on="0"/>
        <pt x="164" y="0" on="1"/>
        <pt x="17" y="0" on="1"/>
        <pt x="54" y="154" on="0"/>
        <pt x="131" y="466" on="0"/>
        <pt x="174" y="620" on="1"/>
        <pt x="377" y="620" on="1"/>
        <pt x="420" y="466" on="0"/>
        <pt x="497" y="159" on="0"/>
        <pt x="534" y="5" on="1"/>
      </contour>
      <contour>
        <pt x="270" y="502" on="1"/>
        <pt x="257" y="443" on="0"/>
        <pt x="231" y="320" on="0"/>
        <pt x="218" y="260" on="1"/>
        <pt x="331" y="260" on="1"/>
        <pt x="318" y="320" on="0"/>
        <pt x="292" y="443" on="0"/>
        <pt x="279" y="502" on="1"/>
      </contour>
    </TTGlyph>
    <TTGlyph name="AE" xMin="-9" yMin="0" xMax="529" yMax="620">
      <contour>
        <pt x="249" y="499" on="1"/>
        <pt x="236" y="438" on="0"/>
        <pt x="206" y="315" on="0"/>
        <pt x="191" y="254" on="1"/>
        <pt x="254" y="254" on="1"/>
        <pt x="254" y="499" on="1"/>
      </contour>
      <contour>
        <pt x="254" y="0" on="1"/>
        <pt x="254" y="148" on="1"/>
        <pt x="164" y="148" on="1"/>
        <pt x="155" y="111" on="0"/>
        <pt x="137" y="37" on="0"/>
        <pt x="128" y="0" on="1"/>
        <pt x="-9" y="0" on="1"/>
        <pt x="29" y="153" on="0"/>
        <pt x="121" y="468" on="0"/>
        <pt x="163" y="620" on="1"/>
        <pt x="523" y="620" on="1"/>
        <pt x="523" y="499" on="1"/>
        <pt x="372" y="499" on="1"/>
        <pt x="372" y="364" on="1"/>
        <pt x="491" y="364" on="1"/>
        <pt x="491" y="258" on="1"/>
        <pt x="372" y="258" on="1"/>
        <pt x="372" y="121" on="1"/>
        <pt x="529" y="121" on="1"/>
        <pt x="521" y="0" on="1"/>
      </contour>
    </TTGlyph>
    <TTGlyph name="AEacute" xMin="-9" yMin="0" xMax="529" yMax="912">
      <contour>
        <pt x="190" y="736" on="1"/>
        <pt x="212" y="749" on="0"/>
        <pt x="269" y="791" on="0"/>
        <pt x="328" y="838" on="0"/>
        <pt x="386" y="889" on="0"/>
        <pt x="408" y="912" on="1"/>
        <pt x="508" y="807" on="1"/>
        <pt x="481" y="787" on="0"/>
        <pt x="406" y="746" on="0"/>
        <pt x="329" y="710" on="0"/>
        <pt x="253" y="682" on="0"/>
        <pt x="224" y="674" on="1"/>
      </contour>
      <contour>
        <pt x="249" y="499" on="1"/>
        <pt x="236" y="438" on="0"/>
        <pt x="206" y="315" on="0"/>
        <pt x="191" y="254" on="1"/>
        <pt x="254" y="254" on="1"/>
        <pt x="254" y="499" on="1"/>
      </contour>
      <contour>
        <pt x="254" y="0" on="1"/>
        <pt x="254" y="148" on="1"/>
        <pt x="164" y="148" on="1"/>
        <pt x="155" y="111" on="0"/>
        <pt x="137" y="37" on="0"/>
        <pt x="128" y="0" on="1"/>
        <pt x="-9" y="0" on="1"/>
        <pt x="29" y="153" on="0"/>
        <pt x="121" y="468" on="0"/>
        <pt x="163" y="620" on="1"/>
        <pt x="523" y="620" on="1"/>
        <pt x="523" y="499" on="1"/>
        <pt x="372" y="499" on="1"/>
        <pt x="372" y="364" on="1"/>
        <pt x="491" y="364" on="1"/>
        <pt x="491" y="258" on="1"/>
        <pt x="372" y="258" on="1"/>
        <pt x="372" y="121" on="1"/>
        <pt x="529" y="121" on="1"/>
        <pt x="521" y="0" on="1"/>
      </contour>
    </TTGlyph>
    <TTGlyph name="Aacute" xMin="17" yMin="-5" xMax="534" yMax="912">
      <contour>
        <pt x="141" y="736" on="1"/>
        <pt x="163" y="749" on="0"/>
        <pt x="220" y="791" on="0"/>
        <pt x="279" y="838" on="0"/>
        <pt x="337" y="889" on="0"/>
        <pt x="359" y="912" on="1"/>
        <pt x="459" y="807" on="1"/>
        <pt x="432" y="787" on="0"/>
        <pt x="357" y="746" on="0"/>
        <pt x="280" y="710" on="0"/>
        <pt x="204" y="682" on="0"/>
        <pt x="175" y="674" on="1"/>
      </contour>
      <contour>
        <pt x="385" y="-5" on="1"/>
        <pt x="378" y="34" on="0"/>
        <pt x="361" y="114" on="0"/>
        <pt x="353" y="154" on="1"/>
        <pt x="196" y="154" on="1"/>
        <pt x="188" y="115" on="0"/>
        <pt x="171" y="38" on="0"/>
        <pt x="164" y="0" on="1"/>
        <pt x="17" y="0" on="1"/>
        <pt x="54" y="154" on="0"/>
        <pt x="131" y="466" on="0"/>
        <pt x="174" y="620" on="1"/>
        <pt x="377" y="620" on="1"/>
        <pt x="420" y="466" on="0"/>
        <pt x="497" y="159" on="0"/>
        <pt x="534" y="5" on="1"/>
      </contour>
      <contour>
        <pt x="270" y="502" on="1"/>
        <pt x="257" y="443" on="0"/>
        <pt x="231" y="320" on="0"/>
        <pt x="218" y="260" on="1"/>
        <pt x="331" y="260" on="1"/>
        <pt x="318" y="320" on="0"/>
        <pt x="292" y="443" on="0"/>
        <pt x="279" y="502" on="1"/>
      </contour>
    </TTGlyph>
    <TTGlyph name="Abreve" xMin="17" yMin="-5" xMax="534" yMax="882">
      <contour>
        <pt x="277" y="678" on="1"/>
        <pt x="219" y="678" on="0"/>
        <pt x="113" y="753" on="0"/>
        <pt x="74" y="825" on="1"/>
        <pt x="171" y="882" on="1"/>
        <pt x="202" y="834" on="0"/>
        <pt x="257" y="790" on="0"/>
        <pt x="290" y="790" on="1"/>
        <pt x="323" y="790" on="0"/>
        <pt x="378" y="835" on="0"/>
        <pt x="406" y="877" on="1"/>
        <pt x="485" y="836" on="1"/>
        <pt x="443" y="764" on="0"/>
        <pt x="335" y="678" on="0"/>
      </contour>
      <contour>
        <pt x="385" y="-5" on="1"/>
        <pt x="378" y="34" on="0"/>
        <pt x="361" y="114" on="0"/>
        <pt x="353" y="154" on="1"/>
        <pt x="196" y="154" on="1"/>
        <pt x="188" y="115" on="0"/>
        <pt x="171" y="38" on="0"/>
        <pt x="164" y="0" on="1"/>
        <pt x="17" y="0" on="1"/>
        <pt x="54" y="154" on="0"/>
        <pt x="131" y="466" on="0"/>
        <pt x="174" y="620" on="1"/>
        <pt x="377" y="620" on="1"/>
        <pt x="420" y="466" on="0"/>
        <pt x="497" y="159" on="0"/>
        <pt x="534" y="5" on="1"/>
      </contour>
      <contour>
        <pt x="270" y="502" on="1"/>
        <pt x="257" y="443" on="0"/>
        <pt x="231" y="320" on="0"/>
        <pt x="218" y="260" on="1"/>
        <pt x="331" y="260" on="1"/>
        <pt x="318" y="320" on="0"/>
        <pt x="292" y="443" on="0"/>
        <pt x="279" y="502" on="1"/>
      </contour>
    </TTGlyph>
    <TTGlyph name="Acircumflex" xMin="17" yMin="-5" xMax="534" yMax="894">
      <contour>
        <pt x="381" y="675" on="1"/>
        <pt x="259" y="767" on="1"/>
        <pt x="144" y="676" on="1"/>
        <pt x="78" y="741" on="1"/>
        <pt x="265" y="894" on="1"/>
        <pt x="275" y="894" on="1"/>
        <pt x="467" y="757" on="1"/>
      </contour>
      <contour>
        <pt x="385" y="-5" on="1"/>
        <pt x="378" y="34" on="0"/>
        <pt x="361" y="114" on="0"/>
        <pt x="353" y="154" on="1"/>
        <pt x="196" y="154" on="1"/>
        <pt x="188" y="115" on="0"/>
        <pt x="171" y="38" on="0"/>
        <pt x="164" y="0" on="1"/>
        <pt x="17" y="0" on="1"/>
        <pt x="54" y="154" on="0"/>
        <pt x="131" y="466" on="0"/>
        <pt x="174" y="620" on="1"/>
        <pt x="377" y="620" on="1"/>
        <pt x="420" y="466" on="0"/>
        <pt x="497" y="159" on="0"/>
        <pt x="534" y="5" on="1"/>
      </contour>
      <contour>
        <pt x="270" y="502" on="1"/>
        <pt x="257" y="443" on="0"/>
        <pt x="231" y="320" on="0"/>
        <pt x="218" y="260" on="1"/>
        <pt x="331" y="260" on="1"/>
        <pt x="318" y="320" on="0"/>
        <pt x="292" y="443" on="0"/>
        <pt x="279" y="502" on="1"/>
      </contour>
    </TTGlyph>
    <TTGlyph name="Adieresis" xMin="17" yMin="-5" xMax="534" yMax="835">
      <contour>
        <pt x="457" y="690" on="1"/>
        <pt x="314" y="690" on="1"/>
        <pt x="317" y="835" on="1"/>
        <pt x="461" y="835" on="1"/>
      </contour>
      <contour>
        <pt x="233" y="690" on="1"/>
        <pt x="89" y="690" on="1"/>
        <pt x="92" y="835" on="1"/>
        <pt x="236" y="835" on="1"/>
      </contour>
      <contour>
        <pt x="385" y="-5" on="1"/>
        <pt x="378" y="34" on="0"/>
        <pt x="361" y="114" on="0"/>
        <pt x="353" y="154" on="1"/>
        <pt x="196" y="154" on="1"/>
        <pt x="188" y="115" on="0"/>
        <pt x="171" y="38" on="0"/>
        <pt x="164" y="0" on="1"/>
        <pt x="17" y="0" on="1"/>
        <pt x="54" y="154" on="0"/>
        <pt x="131" y="466" on="0"/>
        <pt x="174" y="620" on="1"/>
        <pt x="377" y="620" on="1"/>
        <pt x="420" y="466" on="0"/>
        <pt x="497" y="159" on="0"/>
        <pt x="534" y="5" on="1"/>
      </contour>
      <contour>
        <pt x="270" y="502" on="1"/>
        <pt x="257" y="443" on="0"/>
        <pt x="231" y="320" on="0"/>
        <pt x="218" y="260" on="1"/>
        <pt x="331" y="260" on="1"/>
        <pt x="318" y="320" on="0"/>
        <pt x="292" y="443" on="0"/>
        <pt x="279" y="502" on="1"/>
      </contour>
    </TTGlyph>
    <TTGlyph name="Agrave" xMin="17" yMin="-5" xMax="534" yMax="914">
      <contour>
        <pt x="398" y="734" on="1"/>
        <pt x="360" y="673" on="1"/>
        <pt x="332" y="682" on="0"/>
        <pt x="259" y="712" on="0"/>
        <pt x="184" y="746" on="0"/>
        <pt x="110" y="783" on="0"/>
        <pt x="81" y="801" on="1"/>
        <pt x="172" y="914" on="1"/>
        <pt x="195" y="893" on="0"/>
        <pt x="257" y="843" on="0"/>
        <pt x="319" y="793" on="0"/>
        <pt x="378" y="749" on="0"/>
      </contour>
      <contour>
        <pt x="385" y="-5" on="1"/>
        <pt x="378" y="34" on="0"/>
        <pt x="361" y="114" on="0"/>
        <pt x="353" y="154" on="1"/>
        <pt x="196" y="154" on="1"/>
        <pt x="188" y="115" on="0"/>
        <pt x="171" y="38" on="0"/>
        <pt x="164" y="0" on="1"/>
        <pt x="17" y="0" on="1"/>
        <pt x="54" y="154" on="0"/>
        <pt x="131" y="466" on="0"/>
        <pt x="174" y="620" on="1"/>
        <pt x="377" y="620" on="1"/>
        <pt x="420" y="466" on="0"/>
        <pt x="497" y="159" on="0"/>
        <pt x="534" y="5" on="1"/>
      </contour>
      <contour>
        <pt x="270" y="502" on="1"/>
        <pt x="257" y="443" on="0"/>
        <pt x="231" y="320" on="0"/>
        <pt x="218" y="260" on="1"/>
        <pt x="331" y="260" on="1"/>
        <pt x="318" y="320" on="0"/>
        <pt x="292" y="443" on="0"/>
        <pt x="279" y="502" on="1"/>
      </contour>
    </TTGlyph>
    <TTGlyph name="Amacron" xMin="17" yMin="-5" xMax="534" yMax="823">
      <contour>
        <pt x="453" y="823" on="1"/>
        <pt x="453" y="702" on="1"/>
        <pt x="93" y="702" on="1"/>
        <pt x="93" y="823" on="1"/>
      </contour>
      <contour>
        <pt x="385" y="-5" on="1"/>
        <pt x="378" y="34" on="0"/>
        <pt x="361" y="114" on="0"/>
        <pt x="353" y="154" on="1"/>
        <pt x="196" y="154" on="1"/>
        <pt x="188" y="115" on="0"/>
        <pt x="171" y="38" on="0"/>
        <pt x="164" y="0" on="1"/>
        <pt x="17" y="0" on="1"/>
        <pt x="54" y="154" on="0"/>
        <pt x="131" y="466" on="0"/>
        <pt x="174" y="620" on="1"/>
        <pt x="377" y="620" on="1"/>
        <pt x="420" y="466" on="0"/>
        <pt x="497" y="159" on="0"/>
        <pt x="534" y="5" on="1"/>
      </contour>
      <contour>
        <pt x="270" y="502" on="1"/>
        <pt x="257" y="443" on="0"/>
        <pt x="231" y="320" on="0"/>
        <pt x="218" y="260" on="1"/>
        <pt x="331" y="260" on="1"/>
        <pt x="318" y="320" on="0"/>
        <pt x="292" y="443" on="0"/>
        <pt x="279" y="502" on="1"/>
      </contour>
    </TTGlyph>
    <TTGlyph name="Aogonek" xMin="17" yMin="-228" xMax="534" yMax="620">
      <contour>
        <pt x="512" y="-228" on="1"/>
        <pt x="391" y="-225" on="0"/>
        <pt x="287" y="-161" on="0"/>
        <pt x="287" y="-118" on="1"/>
        <pt x="287" y="-90" on="0"/>
        <pt x="334" y="-30" on="0"/>
        <pt x="384" y="1" on="1"/>
        <pt x="377" y="38" on="0"/>
        <pt x="360" y="115" on="0"/>
        <pt x="353" y="154" on="1"/>
        <pt x="196" y="154" on="1"/>
        <pt x="188" y="115" on="0"/>
        <pt x="171" y="38" on="0"/>
        <pt x="164" y="0" on="1"/>
        <pt x="17" y="0" on="1"/>
        <pt x="54" y="154" on="0"/>
        <pt x="131" y="466" on="0"/>
        <pt x="174" y="620" on="1"/>
        <pt x="377" y="620" on="1"/>
        <pt x="420" y="466" on="0"/>
        <pt x="497" y="159" on="0"/>
        <pt x="534" y="5" on="1"/>
        <pt x="471" y="-20" on="0"/>
        <pt x="422" y="-61" on="0"/>
        <pt x="422" y="-77" on="1"/>
        <pt x="422" y="-93" on="0"/>
        <pt x="468" y="-114" on="0"/>
        <pt x="524" y="-118" on="1"/>
      </contour>
      <contour>
        <pt x="270" y="502" on="1"/>
        <pt x="257" y="443" on="0"/>
        <pt x="231" y="320" on="0"/>
        <pt x="218" y="260" on="1"/>
        <pt x="331" y="260" on="1"/>
        <pt x="318" y="320" on="0"/>
        <pt x="292" y="443" on="0"/>
        <pt x="279" y="502" on="1"/>
      </contour>
    </TTGlyph>
    <TTGlyph name="Aring" xMin="17" yMin="-5" xMax="534" yMax="891">
      <contour>
        <pt x="272" y="891" on="1"/>
        <pt x="333" y="891" on="0"/>
        <pt x="409" y="826" on="0"/>
        <pt x="409" y="782" on="1"/>
        <pt x="409" y="733" on="0"/>
        <pt x="335" y="669" on="0"/>
        <pt x="272" y="669" on="1"/>
        <pt x="211" y="669" on="0"/>
        <pt x="136" y="732" on="0"/>
        <pt x="136" y="778" on="1"/>
        <pt x="136" y="826" on="0"/>
        <pt x="209" y="891" on="0"/>
      </contour>
      <contour>
        <pt x="385" y="-5" on="1"/>
        <pt x="378" y="34" on="0"/>
        <pt x="361" y="114" on="0"/>
        <pt x="353" y="154" on="1"/>
        <pt x="196" y="154" on="1"/>
        <pt x="188" y="115" on="0"/>
        <pt x="171" y="38" on="0"/>
        <pt x="164" y="0" on="1"/>
        <pt x="17" y="0" on="1"/>
        <pt x="54" y="154" on="0"/>
        <pt x="131" y="466" on="0"/>
        <pt x="174" y="620" on="1"/>
        <pt x="377" y="620" on="1"/>
        <pt x="420" y="466" on="0"/>
        <pt x="497" y="159" on="0"/>
        <pt x="534" y="5" on="1"/>
      </contour>
      <contour>
        <pt x="270" y="502" on="1"/>
        <pt x="257" y="443" on="0"/>
        <pt x="231" y="320" on="0"/>
        <pt x="218" y="260" on="1"/>
        <pt x="331" y="260" on="1"/>
        <pt x="318" y="320" on="0"/>
        <pt x="292" y="443" on="0"/>
        <pt x="279" y="502" on="1"/>
      </contour>
    </TTGlyph>
    <TTGlyph name="Aringacute" xMin="17" yMin="-5" xMax="534" yMax="1155">
      <contour>
        <pt x="141" y="979" on="1"/>
        <pt x="163" y="992" on="0"/>
        <pt x="220" y="1034" on="0"/>
        <pt x="279" y="1081" on="0"/>
        <pt x="337" y="1132" on="0"/>
        <pt x="359" y="1155" on="1"/>
        <pt x="459" y="1050" on="1"/>
        <pt x="432" y="1030" on="0"/>
        <pt x="357" y="989" on="0"/>
        <pt x="280" y="953" on="0"/>
        <pt x="204" y="925" on="0"/>
        <pt x="175" y="917" on="1"/>
      </contour>
      <contour>
        <pt x="272" y="891" on="1"/>
        <pt x="333" y="891" on="0"/>
        <pt x="409" y="826" on="0"/>
        <pt x="409" y="782" on="1"/>
        <pt x="409" y="733" on="0"/>
        <pt x="335" y="669" on="0"/>
        <pt x="272" y="669" on="1"/>
        <pt x="211" y="669" on="0"/>
        <pt x="136" y="732" on="0"/>
        <pt x="136" y="778" on="1"/>
        <pt x="136" y="826" on="0"/>
        <pt x="209" y="891" on="0"/>
      </contour>
      <contour>
        <pt x="385" y="-5" on="1"/>
        <pt x="378" y="34" on="0"/>
        <pt x="361" y="114" on="0"/>
        <pt x="353" y="154" on="1"/>
        <pt x="196" y="154" on="1"/>
        <pt x="188" y="115" on="0"/>
        <pt x="171" y="38" on="0"/>
        <pt x="164" y="0" on="1"/>
        <pt x="17" y="0" on="1"/>
        <pt x="54" y="154" on="0"/>
        <pt x="131" y="466" on="0"/>
        <pt x="174" y="620" on="1"/>
        <pt x="377" y="620" on="1"/>
        <pt x="420" y="466" on="0"/>
        <pt x="497" y="159" on="0"/>
        <pt x="534" y="5" on="1"/>
      </contour>
      <contour>
        <pt x="270" y="502" on="1"/>
        <pt x="257" y="443" on="0"/>
        <pt x="231" y="320" on="0"/>
        <pt x="218" y="260" on="1"/>
        <pt x="331" y="260" on="1"/>
        <pt x="318" y="320" on="0"/>
        <pt x="292" y="443" on="0"/>
        <pt x="279" y="502" on="1"/>
      </contour>
    </TTGlyph>
    <TTGlyph name="Atilde" xMin="17" yMin="-5" xMax="534" yMax="868">
      <contour>
        <pt x="349" y="683" on="1"/>
        <pt x="325" y="683" on="0"/>
        <pt x="281" y="706" on="0"/>
        <pt x="243" y="732" on="0"/>
        <pt x="210" y="755" on="0"/>
        <pt x="197" y="755" on="1"/>
        <pt x="187" y="755" on="0"/>
        <pt x="157" y="727" on="0"/>
        <pt x="138" y="691" on="1"/>
        <pt x="67" y="725" on="1"/>
        <pt x="94" y="785" on="0"/>
        <pt x="171" y="868" on="0"/>
        <pt x="214" y="868" on="1"/>
        <pt x="238" y="868" on="0"/>
        <pt x="282" y="845" on="0"/>
        <pt x="320" y="819" on="0"/>
        <pt x="353" y="796" on="0"/>
        <pt x="365" y="796" on="1"/>
        <pt x="375" y="796" on="0"/>
        <pt x="405" y="824" on="0"/>
        <pt x="425" y="861" on="1"/>
        <pt x="496" y="827" on="1"/>
        <pt x="469" y="767" on="0"/>
        <pt x="392" y="683" on="0"/>
      </contour>
      <contour>
        <pt x="385" y="-5" on="1"/>
        <pt x="378" y="34" on="0"/>
        <pt x="361" y="114" on="0"/>
        <pt x="353" y="154" on="1"/>
        <pt x="196" y="154" on="1"/>
        <pt x="188" y="115" on="0"/>
        <pt x="171" y="38" on="0"/>
        <pt x="164" y="0" on="1"/>
        <pt x="17" y="0" on="1"/>
        <pt x="54" y="154" on="0"/>
        <pt x="131" y="466" on="0"/>
        <pt x="174" y="620" on="1"/>
        <pt x="377" y="620" on="1"/>
        <pt x="420" y="466" on="0"/>
        <pt x="497" y="159" on="0"/>
        <pt x="534" y="5" on="1"/>
      </contour>
      <contour>
        <pt x="270" y="502" on="1"/>
        <pt x="257" y="443" on="0"/>
        <pt x="231" y="320" on="0"/>
        <pt x="218" y="260" on="1"/>
        <pt x="331" y="260" on="1"/>
        <pt x="318" y="320" on="0"/>
        <pt x="292" y="443" on="0"/>
        <pt x="279" y="502" on="1"/>
      </contour>
    </TTGlyph>
    <TTGlyph name="B" xMin="74" yMin="-9" xMax="511" yMax="629">
      <contour>
        <pt x="204" y="-9" on="1"/>
        <pt x="173" y="-9" on="0"/>
        <pt x="108" y="-4" on="0"/>
        <pt x="74" y="0" on="1"/>
        <pt x="74" y="620" on="1"/>
        <pt x="115" y="624" on="0"/>
        <pt x="193" y="629" on="0"/>
        <pt x="227" y="629" on="1"/>
        <pt x="350" y="629" on="0"/>
        <pt x="492" y="558" on="0"/>
        <pt x="492" y="473" on="1"/>
        <pt x="492" y="427" on="0"/>
        <pt x="447" y="356" on="0"/>
        <pt x="407" y="332" on="1"/>
        <pt x="460" y="313" on="0"/>
        <pt x="511" y="243" on="0"/>
        <pt x="511" y="189" on="1"/>
        <pt x="511" y="138" on="0"/>
        <pt x="466" y="62" on="0"/>
        <pt x="386" y="14" on="0"/>
        <pt x="272" y="-9" on="0"/>
      </contour>
      <contour>
        <pt x="239" y="356" on="1"/>
        <pt x="303" y="356" on="0"/>
        <pt x="351" y="394" on="0"/>
        <pt x="351" y="437" on="1"/>
        <pt x="351" y="475" on="0"/>
        <pt x="302" y="513" on="0"/>
        <pt x="253" y="513" on="1"/>
        <pt x="245" y="513" on="0"/>
        <pt x="228" y="512" on="0"/>
        <pt x="218" y="511" on="1"/>
        <pt x="218" y="357" on="1"/>
        <pt x="223" y="356" on="0"/>
        <pt x="234" y="356" on="0"/>
      </contour>
      <contour>
        <pt x="274" y="105" on="1"/>
        <pt x="323" y="105" on="0"/>
        <pt x="367" y="144" on="0"/>
        <pt x="367" y="185" on="1"/>
        <pt x="367" y="228" on="0"/>
        <pt x="311" y="261" on="0"/>
        <pt x="259" y="261" on="1"/>
        <pt x="249" y="261" on="0"/>
        <pt x="229" y="260" on="0"/>
        <pt x="218" y="259" on="1"/>
        <pt x="218" y="109" on="1"/>
        <pt x="234" y="107" on="0"/>
        <pt x="262" y="105" on="0"/>
      </contour>
    </TTGlyph>
    <TTGlyph name="C" xMin="56" yMin="-8" xMax="489" yMax="630">
      <contour>
        <pt x="489" y="120" on="1"/>
        <pt x="477" y="-4" on="1"/>
        <pt x="455" y="-6" on="0"/>
        <pt x="416" y="-8" on="0"/>
        <pt x="397" y="-8" on="1"/>
        <pt x="300" y="-8" on="0"/>
        <pt x="168" y="40" on="0"/>
        <pt x="90" y="124" on="0"/>
        <pt x="56" y="237" on="0"/>
        <pt x="56" y="302" on="1"/>
        <pt x="56" y="367" on="0"/>
        <pt x="99" y="486" on="0"/>
        <pt x="198" y="576" on="0"/>
        <pt x="359" y="629" on="0"/>
        <pt x="475" y="630" on="1"/>
        <pt x="483" y="490" on="1"/>
        <pt x="467" y="491" on="0"/>
        <pt x="436" y="492" on="0"/>
        <pt x="422" y="492" on="1"/>
        <pt x="353" y="492" on="0"/>
        <pt x="269" y="471" on="0"/>
        <pt x="224" y="429" on="0"/>
        <pt x="209" y="364" on="0"/>
        <pt x="209" y="321" on="1"/>
        <pt x="209" y="213" on="0"/>
        <pt x="307" y="118" on="0"/>
        <pt x="435" y="118" on="1"/>
        <pt x="448" y="118" on="0"/>
        <pt x="475" y="119" on="0"/>
      </contour>
    </TTGlyph>
    <TTGlyph name="Cacute" xMin="56" yMin="-8" xMax="493" yMax="912">
      <contour>
        <pt x="175" y="736" on="1"/>
        <pt x="197" y="749" on="0"/>
        <pt x="254" y="791" on="0"/>
        <pt x="313" y="838" on="0"/>
        <pt x="371" y="889" on="0"/>
        <pt x="393" y="912" on="1"/>
        <pt x="493" y="807" on="1"/>
        <pt x="466" y="787" on="0"/>
        <pt x="391" y="746" on="0"/>
        <pt x="314" y="710" on="0"/>
        <pt x="238" y="682" on="0"/>
        <pt x="209" y="674" on="1"/>
      </contour>
      <contour>
        <pt x="489" y="120" on="1"/>
        <pt x="477" y="-4" on="1"/>
        <pt x="455" y="-6" on="0"/>
        <pt x="416" y="-8" on="0"/>
        <pt x="397" y="-8" on="1"/>
        <pt x="300" y="-8" on="0"/>
        <pt x="168" y="40" on="0"/>
        <pt x="90" y="124" on="0"/>
        <pt x="56" y="237" on="0"/>
        <pt x="56" y="302" on="1"/>
        <pt x="56" y="367" on="0"/>
        <pt x="99" y="486" on="0"/>
        <pt x="198" y="576" on="0"/>
        <pt x="359" y="629" on="0"/>
        <pt x="475" y="630" on="1"/>
        <pt x="483" y="490" on="1"/>
        <pt x="467" y="491" on="0"/>
        <pt x="436" y="492" on="0"/>
        <pt x="422" y="492" on="1"/>
        <pt x="353" y="492" on="0"/>
        <pt x="269" y="471" on="0"/>
        <pt x="224" y="429" on="0"/>
        <pt x="209" y="364" on="0"/>
        <pt x="209" y="321" on="1"/>
        <pt x="209" y="213" on="0"/>
        <pt x="307" y="118" on="0"/>
        <pt x="435" y="118" on="1"/>
        <pt x="448" y="118" on="0"/>
        <pt x="475" y="119" on="0"/>
      </contour>
    </TTGlyph>
    <TTGlyph name="Ccaron" xMin="56" yMin="-8" xMax="507" yMax="888">
      <contour>
        <pt x="320" y="668" on="1"/>
        <pt x="310" y="668" on="1"/>
        <pt x="118" y="805" on="1"/>
        <pt x="205" y="888" on="1"/>
        <pt x="326" y="796" on="1"/>
        <pt x="441" y="887" on="1"/>
        <pt x="507" y="821" on="1"/>
      </contour>
      <contour>
        <pt x="489" y="120" on="1"/>
        <pt x="477" y="-4" on="1"/>
        <pt x="455" y="-6" on="0"/>
        <pt x="416" y="-8" on="0"/>
        <pt x="397" y="-8" on="1"/>
        <pt x="300" y="-8" on="0"/>
        <pt x="168" y="40" on="0"/>
        <pt x="90" y="124" on="0"/>
        <pt x="56" y="237" on="0"/>
        <pt x="56" y="302" on="1"/>
        <pt x="56" y="367" on="0"/>
        <pt x="99" y="486" on="0"/>
        <pt x="198" y="576" on="0"/>
        <pt x="359" y="629" on="0"/>
        <pt x="475" y="630" on="1"/>
        <pt x="483" y="490" on="1"/>
        <pt x="467" y="491" on="0"/>
        <pt x="436" y="492" on="0"/>
        <pt x="422" y="492" on="1"/>
        <pt x="353" y="492" on="0"/>
        <pt x="269" y="471" on="0"/>
        <pt x="224" y="429" on="0"/>
        <pt x="209" y="364" on="0"/>
        <pt x="209" y="321" on="1"/>
        <pt x="209" y="213" on="0"/>
        <pt x="307" y="118" on="0"/>
        <pt x="435" y="118" on="1"/>
        <pt x="448" y="118" on="0"/>
        <pt x="475" y="119" on="0"/>
      </contour>
    </TTGlyph>
    <TTGlyph name="Ccedilla" xMin="56" yMin="-237" xMax="489" yMax="630">
      <contour>
        <pt x="418" y="-116" on="1"/>
        <pt x="418" y="-160" on="0"/>
        <pt x="306" y="-229" on="0"/>
        <pt x="196" y="-237" on="1"/>
        <pt x="188" y="-130" on="1"/>
        <pt x="242" y="-125" on="0"/>
        <pt x="290" y="-109" on="0"/>
        <pt x="290" y="-97" on="1"/>
        <pt x="290" y="-84" on="0"/>
        <pt x="247" y="-53" on="0"/>
        <pt x="207" y="-36" on="1"/>
        <pt x="230" y="18" on="1"/>
        <pt x="134" y="53" on="0"/>
        <pt x="56" y="206" on="0"/>
        <pt x="56" y="302" on="1"/>
        <pt x="56" y="367" on="0"/>
        <pt x="99" y="486" on="0"/>
        <pt x="198" y="576" on="0"/>
        <pt x="359" y="629" on="0"/>
        <pt x="475" y="630" on="1"/>
        <pt x="483" y="490" on="1"/>
        <pt x="467" y="491" on="0"/>
        <pt x="436" y="492" on="0"/>
        <pt x="422" y="492" on="1"/>
        <pt x="353" y="492" on="0"/>
        <pt x="269" y="471" on="0"/>
        <pt x="224" y="429" on="0"/>
        <pt x="209" y="364" on="0"/>
        <pt x="209" y="321" on="1"/>
        <pt x="209" y="213" on="0"/>
        <pt x="307" y="118" on="0"/>
        <pt x="435" y="118" on="1"/>
        <pt x="448" y="118" on="0"/>
        <pt x="475" y="119" on="0"/>
        <pt x="489" y="120" on="1"/>
        <pt x="477" y="-4" on="1"/>
        <pt x="455" y="-6" on="0"/>
        <pt x="416" y="-8" on="0"/>
        <pt x="397" y="-8" on="1"/>
        <pt x="375" y="-8" on="0"/>
        <pt x="332" y="-5" on="0"/>
        <pt x="313" y="-3" on="1"/>
        <pt x="371" y="-31" on="0"/>
        <pt x="418" y="-89" on="0"/>
      </contour>
    </TTGlyph>
    <TTGlyph name="Cdotaccent" xMin="56" yMin="-8" xMax="489" yMax="835">
      <contour>
        <pt x="385" y="690" on="1"/>
        <pt x="237" y="690" on="1"/>
        <pt x="241" y="835" on="1"/>
        <pt x="389" y="835" on="1"/>
      </contour>
      <contour>
        <pt x="489" y="120" on="1"/>
        <pt x="477" y="-4" on="1"/>
        <pt x="455" y="-6" on="0"/>
        <pt x="416" y="-8" on="0"/>
        <pt x="397" y="-8" on="1"/>
        <pt x="300" y="-8" on="0"/>
        <pt x="168" y="40" on="0"/>
        <pt x="90" y="124" on="0"/>
        <pt x="56" y="237" on="0"/>
        <pt x="56" y="302" on="1"/>
        <pt x="56" y="367" on="0"/>
        <pt x="99" y="486" on="0"/>
        <pt x="198" y="576" on="0"/>
        <pt x="359" y="629" on="0"/>
        <pt x="475" y="630" on="1"/>
        <pt x="483" y="490" on="1"/>
        <pt x="467" y="491" on="0"/>
        <pt x="436" y="492" on="0"/>
        <pt x="422" y="492" on="1"/>
        <pt x="353" y="492" on="0"/>
        <pt x="269" y="471" on="0"/>
        <pt x="224" y="429" on="0"/>
        <pt x="209" y="364" on="0"/>
        <pt x="209" y="321" on="1"/>
        <pt x="209" y="213" on="0"/>
        <pt x="307" y="118" on="0"/>
        <pt x="435" y="118" on="1"/>
        <pt x="448" y="118" on="0"/>
        <pt x="475" y="119" on="0"/>
      </contour>
    </TTGlyph>
    <TTGlyph name="D" xMin="65" yMin="-8" xMax="516" yMax="630">
      <contour>
        <pt x="516" y="321" on="1"/>
        <pt x="516" y="166" on="0"/>
        <pt x="357" y="-8" on="0"/>
        <pt x="180" y="-8" on="1"/>
        <pt x="154" y="-8" on="0"/>
        <pt x="96" y="-4" on="0"/>
        <pt x="65" y="0" on="1"/>
        <pt x="65" y="620" on="1"/>
        <pt x="103" y="624" on="0"/>
        <pt x="172" y="630" on="0"/>
        <pt x="203" y="630" on="1"/>
        <pt x="375" y="630" on="0"/>
        <pt x="516" y="477" on="0"/>
      </contour>
      <contour>
        <pt x="367" y="302" on="1"/>
        <pt x="367" y="401" on="0"/>
        <pt x="314" y="509" on="0"/>
        <pt x="236" y="509" on="1"/>
        <pt x="229" y="509" on="0"/>
        <pt x="216" y="509" on="0"/>
        <pt x="209" y="508" on="1"/>
        <pt x="209" y="115" on="1"/>
        <pt x="221" y="114" on="0"/>
        <pt x="242" y="112" on="0"/>
        <pt x="251" y="112" on="1"/>
        <pt x="321" y="112" on="0"/>
        <pt x="367" y="204" on="0"/>
      </contour>
    </TTGlyph>
    <TTGlyph name="Dcaron" xMin="65" yMin="-8" xMax="516" yMax="893">
      <contour>
        <pt x="273" y="673" on="1"/>
        <pt x="263" y="673" on="1"/>
        <pt x="71" y="810" on="1"/>
        <pt x="158" y="893" on="1"/>
        <pt x="279" y="801" on="1"/>
        <pt x="394" y="892" on="1"/>
        <pt x="460" y="826" on="1"/>
      </contour>
      <contour>
        <pt x="516" y="321" on="1"/>
        <pt x="516" y="166" on="0"/>
        <pt x="357" y="-8" on="0"/>
        <pt x="180" y="-8" on="1"/>
        <pt x="154" y="-8" on="0"/>
        <pt x="96" y="-4" on="0"/>
        <pt x="65" y="0" on="1"/>
        <pt x="65" y="620" on="1"/>
        <pt x="103" y="624" on="0"/>
        <pt x="172" y="630" on="0"/>
        <pt x="203" y="630" on="1"/>
        <pt x="375" y="630" on="0"/>
        <pt x="516" y="477" on="0"/>
      </contour>
      <contour>
        <pt x="367" y="302" on="1"/>
        <pt x="367" y="401" on="0"/>
        <pt x="314" y="509" on="0"/>
        <pt x="236" y="509" on="1"/>
        <pt x="229" y="509" on="0"/>
        <pt x="216" y="509" on="0"/>
        <pt x="209" y="508" on="1"/>
        <pt x="209" y="115" on="1"/>
        <pt x="221" y="114" on="0"/>
        <pt x="242" y="112" on="0"/>
        <pt x="251" y="112" on="1"/>
        <pt x="321" y="112" on="0"/>
        <pt x="367" y="204" on="0"/>
      </contour>
    </TTGlyph>
    <TTGlyph name="Dcroat" xMin="10" yMin="-8" xMax="516" yMax="630">
      <contour>
        <pt x="180" y="-8" on="1"/>
        <pt x="154" y="-8" on="0"/>
        <pt x="96" y="-4" on="0"/>
        <pt x="65" y="0" on="1"/>
        <pt x="65" y="263" on="1"/>
        <pt x="10" y="263" on="1"/>
        <pt x="10" y="361" on="1"/>
        <pt x="65" y="361" on="1"/>
        <pt x="65" y="620" on="1"/>
        <pt x="103" y="624" on="0"/>
        <pt x="172" y="630" on="0"/>
        <pt x="203" y="630" on="1"/>
        <pt x="375" y="630" on="0"/>
        <pt x="516" y="477" on="0"/>
        <pt x="516" y="321" on="1"/>
        <pt x="516" y="166" on="0"/>
        <pt x="357" y="-8" on="0"/>
      </contour>
      <contour>
        <pt x="251" y="112" on="1"/>
        <pt x="321" y="112" on="0"/>
        <pt x="367" y="204" on="0"/>
        <pt x="367" y="302" on="1"/>
        <pt x="367" y="401" on="0"/>
        <pt x="314" y="509" on="0"/>
        <pt x="236" y="509" on="1"/>
        <pt x="229" y="509" on="0"/>
        <pt x="216" y="509" on="0"/>
        <pt x="209" y="508" on="1"/>
        <pt x="209" y="361" on="1"/>
        <pt x="297" y="361" on="1"/>
        <pt x="291" y="263" on="1"/>
        <pt x="209" y="263" on="1"/>
        <pt x="209" y="115" on="1"/>
        <pt x="221" y="114" on="0"/>
        <pt x="242" y="112" on="0"/>
      </contour>
    </TTGlyph>
    <TTGlyph name="E" xMin="88" yMin="0" xMax="493" yMax="620">
      <contour>
        <pt x="493" y="121" on="1"/>
        <pt x="482" y="0" on="1"/>
        <pt x="88" y="0" on="1"/>
        <pt x="88" y="620" on="1"/>
        <pt x="486" y="620" on="1"/>
        <pt x="486" y="499" on="1"/>
        <pt x="235" y="499" on="1"/>
        <pt x="235" y="364" on="1"/>
        <pt x="447" y="364" on="1"/>
        <pt x="447" y="258" on="1"/>
        <pt x="235" y="258" on="1"/>
        <pt x="235" y="121" on="1"/>
      </contour>
    </TTGlyph>
    <TTGlyph name="Eacute" xMin="88" yMin="0" xMax="493" yMax="912">
      <contour>
        <pt x="151" y="736" on="1"/>
        <pt x="173" y="749" on="0"/>
        <pt x="230" y="791" on="0"/>
        <pt x="289" y="838" on="0"/>
        <pt x="347" y="889" on="0"/>
        <pt x="369" y="912" on="1"/>
        <pt x="469" y="807" on="1"/>
        <pt x="442" y="787" on="0"/>
        <pt x="367" y="746" on="0"/>
        <pt x="290" y="710" on="0"/>
        <pt x="214" y="682" on="0"/>
        <pt x="185" y="674" on="1"/>
      </contour>
      <contour>
        <pt x="493" y="121" on="1"/>
        <pt x="482" y="0" on="1"/>
        <pt x="88" y="0" on="1"/>
        <pt x="88" y="620" on="1"/>
        <pt x="486" y="620" on="1"/>
        <pt x="486" y="499" on="1"/>
        <pt x="235" y="499" on="1"/>
        <pt x="235" y="364" on="1"/>
        <pt x="447" y="364" on="1"/>
        <pt x="447" y="258" on="1"/>
        <pt x="235" y="258" on="1"/>
        <pt x="235" y="121" on="1"/>
      </contour>
    </TTGlyph>
    <TTGlyph name="Ebreve" xMin="84" yMin="0" xMax="495" yMax="882">
      <contour>
        <pt x="287" y="678" on="1"/>
        <pt x="229" y="678" on="0"/>
        <pt x="123" y="753" on="0"/>
        <pt x="84" y="825" on="1"/>
        <pt x="181" y="882" on="1"/>
        <pt x="212" y="834" on="0"/>
        <pt x="267" y="790" on="0"/>
        <pt x="300" y="790" on="1"/>
        <pt x="333" y="790" on="0"/>
        <pt x="388" y="835" on="0"/>
        <pt x="416" y="877" on="1"/>
        <pt x="495" y="836" on="1"/>
        <pt x="453" y="764" on="0"/>
        <pt x="345" y="678" on="0"/>
      </contour>
      <contour>
        <pt x="493" y="121" on="1"/>
        <pt x="482" y="0" on="1"/>
        <pt x="88" y="0" on="1"/>
        <pt x="88" y="620" on="1"/>
        <pt x="486" y="620" on="1"/>
        <pt x="486" y="499" on="1"/>
        <pt x="235" y="499" on="1"/>
        <pt x="235" y="364" on="1"/>
        <pt x="447" y="364" on="1"/>
        <pt x="447" y="258" on="1"/>
        <pt x="235" y="258" on="1"/>
        <pt x="235" y="121" on="1"/>
      </contour>
    </TTGlyph>
    <TTGlyph name="Ecaron" xMin="88" yMin="0" xMax="493" yMax="888">
      <contour>
        <pt x="296" y="668" on="1"/>
        <pt x="286" y="668" on="1"/>
        <pt x="94" y="805" on="1"/>
        <pt x="181" y="888" on="1"/>
        <pt x="302" y="796" on="1"/>
        <pt x="417" y="887" on="1"/>
        <pt x="483" y="821" on="1"/>
      </contour>
      <contour>
        <pt x="493" y="121" on="1"/>
        <pt x="482" y="0" on="1"/>
        <pt x="88" y="0" on="1"/>
        <pt x="88" y="620" on="1"/>
        <pt x="486" y="620" on="1"/>
        <pt x="486" y="499" on="1"/>
        <pt x="235" y="499" on="1"/>
        <pt x="235" y="364" on="1"/>
        <pt x="447" y="364" on="1"/>
        <pt x="447" y="258" on="1"/>
        <pt x="235" y="258" on="1"/>
        <pt x="235" y="121" on="1"/>
      </contour>
    </TTGlyph>
    <TTGlyph name="Ecircumflex" xMin="88" yMin="0" xMax="493" yMax="894">
      <contour>
        <pt x="392" y="675" on="1"/>
        <pt x="270" y="767" on="1"/>
        <pt x="155" y="676" on="1"/>
        <pt x="89" y="741" on="1"/>
        <pt x="276" y="894" on="1"/>
        <pt x="286" y="894" on="1"/>
        <pt x="478" y="757" on="1"/>
      </contour>
      <contour>
        <pt x="493" y="121" on="1"/>
        <pt x="482" y="0" on="1"/>
        <pt x="88" y="0" on="1"/>
        <pt x="88" y="620" on="1"/>
        <pt x="486" y="620" on="1"/>
        <pt x="486" y="499" on="1"/>
        <pt x="235" y="499" on="1"/>
        <pt x="235" y="364" on="1"/>
        <pt x="447" y="364" on="1"/>
        <pt x="447" y="258" on="1"/>
        <pt x="235" y="258" on="1"/>
        <pt x="235" y="121" on="1"/>
      </contour>
    </TTGlyph>
    <TTGlyph name="Edieresis" xMin="88" yMin="0" xMax="493" yMax="835">
      <contour>
        <pt x="467" y="690" on="1"/>
        <pt x="324" y="690" on="1"/>
        <pt x="327" y="835" on="1"/>
        <pt x="471" y="835" on="1"/>
      </contour>
      <contour>
        <pt x="243" y="690" on="1"/>
        <pt x="99" y="690" on="1"/>
        <pt x="102" y="835" on="1"/>
        <pt x="246" y="835" on="1"/>
      </contour>
      <contour>
        <pt x="493" y="121" on="1"/>
        <pt x="482" y="0" on="1"/>
        <pt x="88" y="0" on="1"/>
        <pt x="88" y="620" on="1"/>
        <pt x="486" y="620" on="1"/>
        <pt x="486" y="499" on="1"/>
        <pt x="235" y="499" on="1"/>
        <pt x="235" y="364" on="1"/>
        <pt x="447" y="364" on="1"/>
        <pt x="447" y="258" on="1"/>
        <pt x="235" y="258" on="1"/>
        <pt x="235" y="121" on="1"/>
      </contour>
    </TTGlyph>
    <TTGlyph name="Edotaccent" xMin="88" yMin="0" xMax="493" yMax="835">
      <contour>
        <pt x="361" y="690" on="1"/>
        <pt x="213" y="690" on="1"/>
        <pt x="217" y="835" on="1"/>
        <pt x="365" y="835" on="1"/>
      </contour>
      <contour>
        <pt x="493" y="121" on="1"/>
        <pt x="482" y="0" on="1"/>
        <pt x="88" y="0" on="1"/>
        <pt x="88" y="620" on="1"/>
        <pt x="486" y="620" on="1"/>
        <pt x="486" y="499" on="1"/>
        <pt x="235" y="499" on="1"/>
        <pt x="235" y="364" on="1"/>
        <pt x="447" y="364" on="1"/>
        <pt x="447" y="258" on="1"/>
        <pt x="235" y="258" on="1"/>
        <pt x="235" y="121" on="1"/>
      </contour>
    </TTGlyph>
    <TTGlyph name="Egrave" xMin="88" yMin="0" xMax="493" yMax="914">
      <contour>
        <pt x="408" y="734" on="1"/>
        <pt x="370" y="673" on="1"/>
        <pt x="342" y="682" on="0"/>
        <pt x="269" y="712" on="0"/>
        <pt x="194" y="746" on="0"/>
        <pt x="120" y="783" on="0"/>
        <pt x="91" y="801" on="1"/>
        <pt x="182" y="914" on="1"/>
        <pt x="205" y="893" on="0"/>
        <pt x="267" y="843" on="0"/>
        <pt x="329" y="793" on="0"/>
        <pt x="388" y="749" on="0"/>
      </contour>
      <contour>
        <pt x="493" y="121" on="1"/>
        <pt x="482" y="0" on="1"/>
        <pt x="88" y="0" on="1"/>
        <pt x="88" y="620" on="1"/>
        <pt x="486" y="620" on="1"/>
        <pt x="486" y="499" on="1"/>
        <pt x="235" y="499" on="1"/>
        <pt x="235" y="364" on="1"/>
        <pt x="447" y="364" on="1"/>
        <pt x="447" y="258" on="1"/>
        <pt x="235" y="258" on="1"/>
        <pt x="235" y="121" on="1"/>
      </contour>
    </TTGlyph>
    <TTGlyph name="Emacron" xMin="88" yMin="0" xMax="493" yMax="823">
      <contour>
        <pt x="463" y="823" on="1"/>
        <pt x="463" y="702" on="1"/>
        <pt x="103" y="702" on="1"/>
        <pt x="103" y="823" on="1"/>
      </contour>
      <contour>
        <pt x="493" y="121" on="1"/>
        <pt x="482" y="0" on="1"/>
        <pt x="88" y="0" on="1"/>
        <pt x="88" y="620" on="1"/>
        <pt x="486" y="620" on="1"/>
        <pt x="486" y="499" on="1"/>
        <pt x="235" y="499" on="1"/>
        <pt x="235" y="364" on="1"/>
        <pt x="447" y="364" on="1"/>
        <pt x="447" y="258" on="1"/>
        <pt x="235" y="258" on="1"/>
        <pt x="235" y="121" on="1"/>
      </contour>
    </TTGlyph>
    <TTGlyph name="Eogonek" xMin="88" yMin="-233" xMax="493" yMax="620">
      <contour>
        <pt x="472" y="-123" on="1"/>
        <pt x="460" y="-233" on="1"/>
        <pt x="339" y="-230" on="0"/>
        <pt x="235" y="-166" on="0"/>
        <pt x="235" y="-123" on="1"/>
        <pt x="235" y="-94" on="0"/>
        <pt x="285" y="-32" on="0"/>
        <pt x="339" y="0" on="1"/>
        <pt x="88" y="0" on="1"/>
        <pt x="88" y="620" on="1"/>
        <pt x="486" y="620" on="1"/>
        <pt x="486" y="499" on="1"/>
        <pt x="235" y="499" on="1"/>
        <pt x="235" y="364" on="1"/>
        <pt x="447" y="364" on="1"/>
        <pt x="447" y="258" on="1"/>
        <pt x="235" y="258" on="1"/>
        <pt x="235" y="121" on="1"/>
        <pt x="493" y="121" on="1"/>
        <pt x="482" y="0" on="1"/>
        <pt x="419" y="-25" on="0"/>
        <pt x="370" y="-66" on="0"/>
        <pt x="370" y="-82" on="1"/>
        <pt x="370" y="-98" on="0"/>
        <pt x="416" y="-119" on="0"/>
      </contour>
    </TTGlyph>
    <TTGlyph name="Eth" xMin="10" yMin="-8" xMax="516" yMax="630">
      <contour>
        <pt x="180" y="-8" on="1"/>
        <pt x="154" y="-8" on="0"/>
        <pt x="96" y="-4" on="0"/>
        <pt x="65" y="0" on="1"/>
        <pt x="65" y="263" on="1"/>
        <pt x="10" y="263" on="1"/>
        <pt x="10" y="361" on="1"/>
        <pt x="65" y="361" on="1"/>
        <pt x="65" y="620" on="1"/>
        <pt x="103" y="624" on="0"/>
        <pt x="172" y="630" on="0"/>
        <pt x="203" y="630" on="1"/>
        <pt x="375" y="630" on="0"/>
        <pt x="516" y="477" on="0"/>
        <pt x="516" y="321" on="1"/>
        <pt x="516" y="166" on="0"/>
        <pt x="357" y="-8" on="0"/>
      </contour>
      <contour>
        <pt x="251" y="112" on="1"/>
        <pt x="321" y="112" on="0"/>
        <pt x="367" y="204" on="0"/>
        <pt x="367" y="302" on="1"/>
        <pt x="367" y="401" on="0"/>
        <pt x="314" y="509" on="0"/>
        <pt x="236" y="509" on="1"/>
        <pt x="229" y="509" on="0"/>
        <pt x="216" y="509" on="0"/>
        <pt x="209" y="508" on="1"/>
        <pt x="209" y="361" on="1"/>
        <pt x="297" y="361" on="1"/>
        <pt x="291" y="263" on="1"/>
        <pt x="209" y="263" on="1"/>
        <pt x="209" y="115" on="1"/>
        <pt x="221" y="114" on="0"/>
        <pt x="242" y="112" on="0"/>
      </contour>
    </TTGlyph>
    <TTGlyph name="Euro" xMin="50" yMin="-22" xMax="487" yMax="645">
      <contour>
        <pt x="487" y="93" on="1"/>
        <pt x="470" y="-22" on="1"/>
        <pt x="306" y="-9" on="0"/>
        <pt x="148" y="90" on="0"/>
        <pt x="123" y="172" on="1"/>
        <pt x="51" y="172" on="1"/>
        <pt x="51" y="270" on="1"/>
        <pt x="107" y="270" on="1"/>
        <pt x="106" y="280" on="0"/>
        <pt x="106" y="302" on="0"/>
        <pt x="106" y="312" on="1"/>
        <pt x="106" y="316" on="0"/>
        <pt x="106" y="327" on="0"/>
        <pt x="106" y="331" on="1"/>
        <pt x="50" y="331" on="1"/>
        <pt x="50" y="429" on="1"/>
        <pt x="121" y="429" on="1"/>
        <pt x="143" y="504" on="0"/>
        <pt x="294" y="616" on="0"/>
        <pt x="458" y="645" on="1"/>
        <pt x="478" y="510" on="1"/>
        <pt x="365" y="495" on="0"/>
        <pt x="264" y="458" on="0"/>
        <pt x="248" y="418" on="1"/>
        <pt x="445" y="418" on="1"/>
        <pt x="440" y="331" on="1"/>
        <pt x="236" y="331" on="1"/>
        <pt x="236" y="327" on="0"/>
        <pt x="236" y="319" on="0"/>
        <pt x="236" y="315" on="1"/>
        <pt x="236" y="304" on="0"/>
        <pt x="236" y="283" on="0"/>
        <pt x="237" y="273" on="1"/>
        <pt x="436" y="273" on="1"/>
        <pt x="432" y="186" on="1"/>
        <pt x="258" y="186" on="1"/>
        <pt x="279" y="151" on="0"/>
        <pt x="383" y="108" on="0"/>
      </contour>
    </TTGlyph>
    <TTGlyph name="F" xMin="92" yMin="0" xMax="496" yMax="620">
      <contour>
        <pt x="456" y="241" on="1"/>
        <pt x="240" y="241" on="1"/>
        <pt x="240" y="0" on="1"/>
        <pt x="92" y="0" on="1"/>
        <pt x="92" y="620" on="1"/>
        <pt x="496" y="620" on="1"/>
        <pt x="496" y="498" on="1"/>
        <pt x="240" y="498" on="1"/>
        <pt x="240" y="354" on="1"/>
        <pt x="456" y="354" on="1"/>
      </contour>
    </TTGlyph>
    <TTGlyph name="G" xMin="44" yMin="-9" xMax="493" yMax="630">
      <contour>
        <pt x="493" y="9" on="1"/>
        <pt x="452" y="0" on="0"/>
        <pt x="378" y="-9" on="0"/>
        <pt x="344" y="-9" on="1"/>
        <pt x="195" y="-9" on="0"/>
        <pt x="44" y="153" on="0"/>
        <pt x="44" y="293" on="1"/>
        <pt x="44" y="362" on="0"/>
        <pt x="85" y="483" on="0"/>
        <pt x="180" y="573" on="0"/>
        <pt x="339" y="627" on="0"/>
        <pt x="456" y="630" on="1"/>
        <pt x="465" y="490" on="1"/>
        <pt x="446" y="491" on="0"/>
        <pt x="413" y="493" on="0"/>
        <pt x="397" y="493" on="1"/>
        <pt x="330" y="493" on="0"/>
        <pt x="250" y="467" on="0"/>
        <pt x="207" y="421" on="0"/>
        <pt x="194" y="355" on="0"/>
        <pt x="194" y="316" on="1"/>
        <pt x="194" y="215" on="0"/>
        <pt x="273" y="109" on="0"/>
        <pt x="366" y="104" on="1"/>
        <pt x="364" y="148" on="0"/>
        <pt x="360" y="264" on="0"/>
        <pt x="359" y="310" on="1"/>
        <pt x="492" y="310" on="1"/>
        <pt x="492" y="215" on="0"/>
        <pt x="493" y="69" on="0"/>
      </contour>
    </TTGlyph>
    <TTGlyph name="Gbreve" xMin="44" yMin="-9" xMax="506" yMax="882">
      <contour>
        <pt x="298" y="678" on="1"/>
        <pt x="240" y="678" on="0"/>
        <pt x="134" y="753" on="0"/>
        <pt x="95" y="825" on="1"/>
        <pt x="192" y="882" on="1"/>
        <pt x="223" y="834" on="0"/>
        <pt x="278" y="790" on="0"/>
        <pt x="311" y="790" on="1"/>
        <pt x="344" y="790" on="0"/>
        <pt x="399" y="835" on="0"/>
        <pt x="427" y="877" on="1"/>
        <pt x="506" y="836" on="1"/>
        <pt x="464" y="764" on="0"/>
        <pt x="356" y="678" on="0"/>
      </contour>
      <contour>
        <pt x="493" y="9" on="1"/>
        <pt x="452" y="0" on="0"/>
        <pt x="378" y="-9" on="0"/>
        <pt x="344" y="-9" on="1"/>
        <pt x="195" y="-9" on="0"/>
        <pt x="44" y="153" on="0"/>
        <pt x="44" y="293" on="1"/>
        <pt x="44" y="362" on="0"/>
        <pt x="85" y="483" on="0"/>
        <pt x="180" y="573" on="0"/>
        <pt x="339" y="627" on="0"/>
        <pt x="456" y="630" on="1"/>
        <pt x="465" y="490" on="1"/>
        <pt x="446" y="491" on="0"/>
        <pt x="413" y="493" on="0"/>
        <pt x="397" y="493" on="1"/>
        <pt x="330" y="493" on="0"/>
        <pt x="250" y="467" on="0"/>
        <pt x="207" y="421" on="0"/>
        <pt x="194" y="355" on="0"/>
        <pt x="194" y="316" on="1"/>
        <pt x="194" y="215" on="0"/>
        <pt x="273" y="109" on="0"/>
        <pt x="366" y="104" on="1"/>
        <pt x="364" y="148" on="0"/>
        <pt x="360" y="264" on="0"/>
        <pt x="359" y="310" on="1"/>
        <pt x="492" y="310" on="1"/>
        <pt x="492" y="215" on="0"/>
        <pt x="493" y="69" on="0"/>
      </contour>
    </TTGlyph>
    <TTGlyph name="Gcommaaccent" xMin="44" yMin="-300" xMax="493" yMax="630">
      <contour>
        <pt x="493" y="9" on="1"/>
        <pt x="452" y="0" on="0"/>
        <pt x="378" y="-9" on="0"/>
        <pt x="344" y="-9" on="1"/>
        <pt x="195" y="-9" on="0"/>
        <pt x="44" y="153" on="0"/>
        <pt x="44" y="293" on="1"/>
        <pt x="44" y="362" on="0"/>
        <pt x="85" y="483" on="0"/>
        <pt x="180" y="573" on="0"/>
        <pt x="339" y="627" on="0"/>
        <pt x="456" y="630" on="1"/>
        <pt x="465" y="490" on="1"/>
        <pt x="446" y="491" on="0"/>
        <pt x="413" y="493" on="0"/>
        <pt x="397" y="493" on="1"/>
        <pt x="330" y="493" on="0"/>
        <pt x="250" y="467" on="0"/>
        <pt x="207" y="421" on="0"/>
        <pt x="194" y="355" on="0"/>
        <pt x="194" y="316" on="1"/>
        <pt x="194" y="215" on="0"/>
        <pt x="273" y="109" on="0"/>
        <pt x="366" y="104" on="1"/>
        <pt x="364" y="148" on="0"/>
        <pt x="360" y="264" on="0"/>
        <pt x="359" y="310" on="1"/>
        <pt x="492" y="310" on="1"/>
        <pt x="492" y="215" on="0"/>
        <pt x="493" y="69" on="0"/>
      </contour>
      <contour>
        <pt x="210" y="-278" on="1"/>
        <pt x="217" y="-254" on="0"/>
        <pt x="224" y="-201" on="0"/>
        <pt x="224" y="-174" on="1"/>
        <pt x="224" y="-150" on="0"/>
        <pt x="218" y="-101" on="0"/>
        <pt x="212" y="-79" on="1"/>
        <pt x="378" y="-72" on="1"/>
        <pt x="377" y="-134" on="0"/>
        <pt x="327" y="-261" on="0"/>
        <pt x="283" y="-300" on="1"/>
      </contour>
    </TTGlyph>
    <TTGlyph name="Gdotaccent" xMin="44" yMin="-9" xMax="493" yMax="835">
      <contour>
        <pt x="372" y="690" on="1"/>
        <pt x="224" y="690" on="1"/>
        <pt x="228" y="835" on="1"/>
        <pt x="376" y="835" on="1"/>
      </contour>
      <contour>
        <pt x="493" y="9" on="1"/>
        <pt x="452" y="0" on="0"/>
        <pt x="378" y="-9" on="0"/>
        <pt x="344" y="-9" on="1"/>
        <pt x="195" y="-9" on="0"/>
        <pt x="44" y="153" on="0"/>
        <pt x="44" y="293" on="1"/>
        <pt x="44" y="362" on="0"/>
        <pt x="85" y="483" on="0"/>
        <pt x="180" y="573" on="0"/>
        <pt x="339" y="627" on="0"/>
        <pt x="456" y="630" on="1"/>
        <pt x="465" y="490" on="1"/>
        <pt x="446" y="491" on="0"/>
        <pt x="413" y="493" on="0"/>
        <pt x="397" y="493" on="1"/>
        <pt x="330" y="493" on="0"/>
        <pt x="250" y="467" on="0"/>
        <pt x="207" y="421" on="0"/>
        <pt x="194" y="355" on="0"/>
        <pt x="194" y="316" on="1"/>
        <pt x="194" y="215" on="0"/>
        <pt x="273" y="109" on="0"/>
        <pt x="366" y="104" on="1"/>
        <pt x="364" y="148" on="0"/>
        <pt x="360" y="264" on="0"/>
        <pt x="359" y="310" on="1"/>
        <pt x="492" y="310" on="1"/>
        <pt x="492" y="215" on="0"/>
        <pt x="493" y="69" on="0"/>
      </contour>
    </TTGlyph>
    <TTGlyph name="H" xMin="58" yMin="0" xMax="493" yMax="620">
      <contour>
        <pt x="342" y="0" on="1"/>
        <pt x="342" y="256" on="1"/>
        <pt x="208" y="256" on="1"/>
        <pt x="208" y="0" on="1"/>
        <pt x="58" y="0" on="1"/>
        <pt x="58" y="620" on="1"/>
        <pt x="208" y="620" on="1"/>
        <pt x="208" y="368" on="1"/>
        <pt x="342" y="368" on="1"/>
        <pt x="342" y="620" on="1"/>
        <pt x="493" y="620" on="1"/>
        <pt x="493" y="0" on="1"/>
      </contour>
    </TTGlyph>
    <TTGlyph name="Hbar" xMin="3" yMin="0" xMax="548" yMax="620">
      <contour>
        <pt x="342" y="348" on="1"/>
        <pt x="342" y="433" on="1"/>
        <pt x="208" y="433" on="1"/>
        <pt x="208" y="348" on="1"/>
      </contour>
      <contour>
        <pt x="342" y="0" on="1"/>
        <pt x="342" y="236" on="1"/>
        <pt x="208" y="236" on="1"/>
        <pt x="208" y="0" on="1"/>
        <pt x="58" y="0" on="1"/>
        <pt x="58" y="428" on="1"/>
        <pt x="3" y="428" on="1"/>
        <pt x="3" y="526" on="1"/>
        <pt x="58" y="526" on="1"/>
        <pt x="58" y="620" on="1"/>
        <pt x="208" y="620" on="1"/>
        <pt x="208" y="521" on="1"/>
        <pt x="342" y="521" on="1"/>
        <pt x="342" y="620" on="1"/>
        <pt x="493" y="620" on="1"/>
        <pt x="493" y="526" on="1"/>
        <pt x="548" y="526" on="1"/>
        <pt x="548" y="428" on="1"/>
        <pt x="493" y="428" on="1"/>
        <pt x="493" y="0" on="1"/>
      </contour>
    </TTGlyph>
    <TTGlyph name="I" xMin="71" yMin="0" xMax="488" yMax="620">
      <contour>
        <pt x="350" y="507" on="1"/>
        <pt x="350" y="113" on="1"/>
        <pt x="488" y="113" on="1"/>
        <pt x="478" y="0" on="1"/>
        <pt x="71" y="0" on="1"/>
        <pt x="71" y="113" on="1"/>
        <pt x="203" y="113" on="1"/>
        <pt x="203" y="507" on="1"/>
        <pt x="71" y="507" on="1"/>
        <pt x="71" y="620" on="1"/>
        <pt x="482" y="620" on="1"/>
        <pt x="482" y="507" on="1"/>
      </contour>
    </TTGlyph>
    <TTGlyph name="Iacute" xMin="71" yMin="0" xMax="488" yMax="912">
      <contour>
        <pt x="148" y="736" on="1"/>
        <pt x="170" y="749" on="0"/>
        <pt x="227" y="791" on="0"/>
        <pt x="286" y="838" on="0"/>
        <pt x="344" y="889" on="0"/>
        <pt x="366" y="912" on="1"/>
        <pt x="466" y="807" on="1"/>
        <pt x="439" y="787" on="0"/>
        <pt x="364" y="746" on="0"/>
        <pt x="287" y="710" on="0"/>
        <pt x="211" y="682" on="0"/>
        <pt x="182" y="674" on="1"/>
      </contour>
      <contour>
        <pt x="350" y="507" on="1"/>
        <pt x="350" y="113" on="1"/>
        <pt x="488" y="113" on="1"/>
        <pt x="478" y="0" on="1"/>
        <pt x="71" y="0" on="1"/>
        <pt x="71" y="113" on="1"/>
        <pt x="203" y="113" on="1"/>
        <pt x="203" y="507" on="1"/>
        <pt x="71" y="507" on="1"/>
        <pt x="71" y="620" on="1"/>
        <pt x="482" y="620" on="1"/>
        <pt x="482" y="507" on="1"/>
      </contour>
    </TTGlyph>
    <TTGlyph name="Ibreve" xMin="71" yMin="0" xMax="492" yMax="882">
      <contour>
        <pt x="284" y="678" on="1"/>
        <pt x="226" y="678" on="0"/>
        <pt x="120" y="753" on="0"/>
        <pt x="81" y="825" on="1"/>
        <pt x="178" y="882" on="1"/>
        <pt x="209" y="834" on="0"/>
        <pt x="264" y="790" on="0"/>
        <pt x="297" y="790" on="1"/>
        <pt x="330" y="790" on="0"/>
        <pt x="385" y="835" on="0"/>
        <pt x="413" y="877" on="1"/>
        <pt x="492" y="836" on="1"/>
        <pt x="450" y="764" on="0"/>
        <pt x="342" y="678" on="0"/>
      </contour>
      <contour>
        <pt x="350" y="507" on="1"/>
        <pt x="350" y="113" on="1"/>
        <pt x="488" y="113" on="1"/>
        <pt x="478" y="0" on="1"/>
        <pt x="71" y="0" on="1"/>
        <pt x="71" y="113" on="1"/>
        <pt x="203" y="113" on="1"/>
        <pt x="203" y="507" on="1"/>
        <pt x="71" y="507" on="1"/>
        <pt x="71" y="620" on="1"/>
        <pt x="482" y="620" on="1"/>
        <pt x="482" y="507" on="1"/>
      </contour>
    </TTGlyph>
    <TTGlyph name="Icircumflex" xMin="71" yMin="0" xMax="488" yMax="894">
      <contour>
        <pt x="388" y="675" on="1"/>
        <pt x="266" y="767" on="1"/>
        <pt x="151" y="676" on="1"/>
        <pt x="85" y="741" on="1"/>
        <pt x="272" y="894" on="1"/>
        <pt x="282" y="894" on="1"/>
        <pt x="474" y="757" on="1"/>
      </contour>
      <contour>
        <pt x="350" y="507" on="1"/>
        <pt x="350" y="113" on="1"/>
        <pt x="488" y="113" on="1"/>
        <pt x="478" y="0" on="1"/>
        <pt x="71" y="0" on="1"/>
        <pt x="71" y="113" on="1"/>
        <pt x="203" y="113" on="1"/>
        <pt x="203" y="507" on="1"/>
        <pt x="71" y="507" on="1"/>
        <pt x="71" y="620" on="1"/>
        <pt x="482" y="620" on="1"/>
        <pt x="482" y="507" on="1"/>
      </contour>
    </TTGlyph>
    <TTGlyph name="Idieresis" xMin="71" yMin="0" xMax="488" yMax="835">
      <contour>
        <pt x="464" y="690" on="1"/>
        <pt x="321" y="690" on="1"/>
        <pt x="324" y="835" on="1"/>
        <pt x="468" y="835" on="1"/>
      </contour>
      <contour>
        <pt x="240" y="690" on="1"/>
        <pt x="96" y="690" on="1"/>
        <pt x="99" y="835" on="1"/>
        <pt x="243" y="835" on="1"/>
      </contour>
      <contour>
        <pt x="350" y="507" on="1"/>
        <pt x="350" y="113" on="1"/>
        <pt x="488" y="113" on="1"/>
        <pt x="478" y="0" on="1"/>
        <pt x="71" y="0" on="1"/>
        <pt x="71" y="113" on="1"/>
        <pt x="203" y="113" on="1"/>
        <pt x="203" y="507" on="1"/>
        <pt x="71" y="507" on="1"/>
        <pt x="71" y="620" on="1"/>
        <pt x="482" y="620" on="1"/>
        <pt x="482" y="507" on="1"/>
      </contour>
    </TTGlyph>
    <TTGlyph name="Idotaccent" xMin="71" yMin="0" xMax="488" yMax="835">
      <contour>
        <pt x="358" y="690" on="1"/>
        <pt x="210" y="690" on="1"/>
        <pt x="214" y="835" on="1"/>
        <pt x="362" y="835" on="1"/>
      </contour>
      <contour>
        <pt x="350" y="507" on="1"/>
        <pt x="350" y="113" on="1"/>
        <pt x="488" y="113" on="1"/>
        <pt x="478" y="0" on="1"/>
        <pt x="71" y="0" on="1"/>
        <pt x="71" y="113" on="1"/>
        <pt x="203" y="113" on="1"/>
        <pt x="203" y="507" on="1"/>
        <pt x="71" y="507" on="1"/>
        <pt x="71" y="620" on="1"/>
        <pt x="482" y="620" on="1"/>
        <pt x="482" y="507" on="1"/>
      </contour>
    </TTGlyph>
    <TTGlyph name="Igrave" xMin="71" yMin="0" xMax="488" yMax="914">
      <contour>
        <pt x="404" y="734" on="1"/>
        <pt x="366" y="673" on="1"/>
        <pt x="338" y="682" on="0"/>
        <pt x="265" y="712" on="0"/>
        <pt x="190" y="746" on="0"/>
        <pt x="116" y="783" on="0"/>
        <pt x="87" y="801" on="1"/>
        <pt x="178" y="914" on="1"/>
        <pt x="201" y="893" on="0"/>
        <pt x="263" y="843" on="0"/>
        <pt x="325" y="793" on="0"/>
        <pt x="384" y="749" on="0"/>
      </contour>
      <contour>
        <pt x="350" y="507" on="1"/>
        <pt x="350" y="113" on="1"/>
        <pt x="488" y="113" on="1"/>
        <pt x="478" y="0" on="1"/>
        <pt x="71" y="0" on="1"/>
        <pt x="71" y="113" on="1"/>
        <pt x="203" y="113" on="1"/>
        <pt x="203" y="507" on="1"/>
        <pt x="71" y="507" on="1"/>
        <pt x="71" y="620" on="1"/>
        <pt x="482" y="620" on="1"/>
        <pt x="482" y="507" on="1"/>
      </contour>
    </TTGlyph>
    <TTGlyph name="Imacron" xMin="71" yMin="0" xMax="488" yMax="823">
      <contour>
        <pt x="460" y="823" on="1"/>
        <pt x="460" y="702" on="1"/>
        <pt x="100" y="702" on="1"/>
        <pt x="100" y="823" on="1"/>
      </contour>
      <contour>
        <pt x="350" y="507" on="1"/>
        <pt x="350" y="113" on="1"/>
        <pt x="488" y="113" on="1"/>
        <pt x="478" y="0" on="1"/>
        <pt x="71" y="0" on="1"/>
        <pt x="71" y="113" on="1"/>
        <pt x="203" y="113" on="1"/>
        <pt x="203" y="507" on="1"/>
        <pt x="71" y="507" on="1"/>
        <pt x="71" y="620" on="1"/>
        <pt x="482" y="620" on="1"/>
        <pt x="482" y="507" on="1"/>
      </contour>
    </TTGlyph>
    <TTGlyph name="Iogonek" xMin="71" yMin="-228" xMax="488" yMax="620">
      <contour>
        <pt x="384" y="-118" on="1"/>
        <pt x="372" y="-228" on="1"/>
        <pt x="251" y="-225" on="0"/>
        <pt x="147" y="-160" on="0"/>
        <pt x="147" y="-114" on="1"/>
        <pt x="147" y="-88" on="0"/>
        <pt x="183" y="-31" on="0"/>
        <pt x="220" y="0" on="1"/>
        <pt x="71" y="0" on="1"/>
        <pt x="71" y="113" on="1"/>
        <pt x="203" y="113" on="1"/>
        <pt x="203" y="507" on="1"/>
        <pt x="71" y="507" on="1"/>
        <pt x="71" y="620" on="1"/>
        <pt x="482" y="620" on="1"/>
        <pt x="482" y="507" on="1"/>
        <pt x="350" y="507" on="1"/>
        <pt x="350" y="113" on="1"/>
        <pt x="488" y="113" on="1"/>
        <pt x="478" y="0" on="1"/>
        <pt x="337" y="0" on="1"/>
        <pt x="306" y="-24" on="0"/>
        <pt x="282" y="-62" on="0"/>
        <pt x="282" y="-77" on="1"/>
        <pt x="282" y="-93" on="0"/>
        <pt x="328" y="-114" on="0"/>
      </contour>
    </TTGlyph>
    <TTGlyph name="J" xMin="71" yMin="-9" xMax="449" yMax="620">
      <contour>
        <pt x="107" y="620" on="1"/>
        <pt x="449" y="620" on="1"/>
        <pt x="449" y="220" on="1"/>
        <pt x="449" y="101" on="0"/>
        <pt x="298" y="-9" on="0"/>
        <pt x="109" y="-9" on="1"/>
        <pt x="71" y="-9" on="1"/>
        <pt x="71" y="117" on="1"/>
        <pt x="99" y="116" on="0"/>
        <pt x="148" y="114" on="0"/>
        <pt x="168" y="114" on="1"/>
        <pt x="215" y="114" on="0"/>
        <pt x="269" y="124" on="0"/>
        <pt x="295" y="148" on="0"/>
        <pt x="301" y="189" on="0"/>
        <pt x="301" y="218" on="1"/>
        <pt x="301" y="504" on="1"/>
        <pt x="107" y="504" on="1"/>
      </contour>
    </TTGlyph>
    <TTGlyph name="K" xMin="64" yMin="-9" xMax="538" yMax="620">
      <contour>
        <pt x="379" y="-9" on="1"/>
        <pt x="246" y="253" on="1"/>
        <pt x="211" y="253" on="1"/>
        <pt x="211" y="0" on="1"/>
        <pt x="64" y="0" on="1"/>
        <pt x="64" y="620" on="1"/>
        <pt x="211" y="620" on="1"/>
        <pt x="211" y="375" on="1"/>
        <pt x="251" y="375" on="1"/>
        <pt x="368" y="620" on="1"/>
        <pt x="523" y="620" on="1"/>
        <pt x="369" y="321" on="1"/>
        <pt x="538" y="9" on="1"/>
      </contour>
    </TTGlyph>
    <TTGlyph name="Kcommaaccent" xMin="64" yMin="-300" xMax="538" yMax="620">
      <contour>
        <pt x="379" y="-9" on="1"/>
        <pt x="246" y="253" on="1"/>
        <pt x="211" y="253" on="1"/>
        <pt x="211" y="0" on="1"/>
        <pt x="64" y="0" on="1"/>
        <pt x="64" y="620" on="1"/>
        <pt x="211" y="620" on="1"/>
        <pt x="211" y="375" on="1"/>
        <pt x="251" y="375" on="1"/>
        <pt x="368" y="620" on="1"/>
        <pt x="523" y="620" on="1"/>
        <pt x="369" y="321" on="1"/>
        <pt x="538" y="9" on="1"/>
      </contour>
      <contour>
        <pt x="193" y="-278" on="1"/>
        <pt x="200" y="-254" on="0"/>
        <pt x="207" y="-201" on="0"/>
        <pt x="207" y="-174" on="1"/>
        <pt x="207" y="-150" on="0"/>
        <pt x="201" y="-101" on="0"/>
        <pt x="195" y="-79" on="1"/>
        <pt x="361" y="-72" on="1"/>
        <pt x="360" y="-134" on="0"/>
        <pt x="310" y="-261" on="0"/>
        <pt x="266" y="-300" on="1"/>
      </contour>
    </TTGlyph>
    <TTGlyph name="L" xMin="94" yMin="0" xMax="500" yMax="620">
      <contour>
        <pt x="488" y="0" on="1"/>
        <pt x="94" y="0" on="1"/>
        <pt x="94" y="620" on="1"/>
        <pt x="242" y="620" on="1"/>
        <pt x="242" y="122" on="1"/>
        <pt x="500" y="122" on="1"/>
      </contour>
    </TTGlyph>
    <TTGlyph name="Lacute" xMin="94" yMin="0" xMax="500" yMax="912">
      <contour>
        <pt x="158" y="736" on="1"/>
        <pt x="180" y="749" on="0"/>
        <pt x="237" y="791" on="0"/>
        <pt x="296" y="838" on="0"/>
        <pt x="354" y="889" on="0"/>
        <pt x="376" y="912" on="1"/>
        <pt x="476" y="807" on="1"/>
        <pt x="449" y="787" on="0"/>
        <pt x="374" y="746" on="0"/>
        <pt x="297" y="710" on="0"/>
        <pt x="221" y="682" on="0"/>
        <pt x="192" y="674" on="1"/>
      </contour>
      <contour>
        <pt x="488" y="0" on="1"/>
        <pt x="94" y="0" on="1"/>
        <pt x="94" y="620" on="1"/>
        <pt x="242" y="620" on="1"/>
        <pt x="242" y="122" on="1"/>
        <pt x="500" y="122" on="1"/>
      </contour>
    </TTGlyph>
    <TTGlyph name="Lcaron" xMin="94" yMin="0" xMax="500" yMax="709">
      <contour>
        <pt x="336" y="467" on="1"/>
        <pt x="340" y="499" on="0"/>
        <pt x="345" y="564" on="0"/>
        <pt x="345" y="596" on="1"/>
        <pt x="345" y="624" on="0"/>
        <pt x="342" y="680" on="0"/>
        <pt x="338" y="708" on="1"/>
        <pt x="485" y="709" on="1"/>
        <pt x="484" y="633" on="0"/>
        <pt x="439" y="510" on="0"/>
        <pt x="399" y="450" on="1"/>
      </contour>
      <contour>
        <pt x="488" y="0" on="1"/>
        <pt x="94" y="0" on="1"/>
        <pt x="94" y="620" on="1"/>
        <pt x="242" y="620" on="1"/>
        <pt x="242" y="122" on="1"/>
        <pt x="500" y="122" on="1"/>
      </contour>
    </TTGlyph>
    <TTGlyph name="Lcommaaccent" xMin="94" yMin="-291" xMax="500" yMax="620">
      <contour>
        <pt x="488" y="0" on="1"/>
        <pt x="94" y="0" on="1"/>
        <pt x="94" y="620" on="1"/>
        <pt x="242" y="620" on="1"/>
        <pt x="242" y="122" on="1"/>
        <pt x="500" y="122" on="1"/>
      </contour>
      <contour>
        <pt x="206" y="-269" on="1"/>
        <pt x="213" y="-245" on="0"/>
        <pt x="220" y="-192" on="0"/>
        <pt x="220" y="-165" on="1"/>
        <pt x="220" y="-141" on="0"/>
        <pt x="214" y="-92" on="0"/>
        <pt x="208" y="-70" on="1"/>
        <pt x="374" y="-63" on="1"/>
        <pt x="373" y="-125" on="0"/>
        <pt x="323" y="-252" on="0"/>
        <pt x="279" y="-291" on="1"/>
      </contour>
    </TTGlyph>
    <TTGlyph name="Ldot" xMin="94" yMin="0" xMax="512" yMax="620">
      <contour>
        <pt x="488" y="0" on="1"/>
        <pt x="94" y="0" on="1"/>
        <pt x="94" y="620" on="1"/>
        <pt x="242" y="620" on="1"/>
        <pt x="242" y="122" on="1"/>
        <pt x="500" y="122" on="1"/>
      </contour>
      <contour>
        <pt x="504" y="255" on="1"/>
        <pt x="372" y="255" on="1"/>
        <pt x="381" y="403" on="1"/>
        <pt x="512" y="403" on="1"/>
      </contour>
    </TTGlyph>
    <TTGlyph name="Lslash" xMin="22" yMin="0" xMax="500" yMax="620">
      <contour>
        <pt x="488" y="0" on="1"/>
        <pt x="94" y="0" on="1"/>
        <pt x="94" y="261" on="1"/>
        <pt x="43" y="236" on="1"/>
        <pt x="22" y="330" on="1"/>
        <pt x="94" y="366" on="1"/>
        <pt x="94" y="620" on="1"/>
        <pt x="242" y="620" on="1"/>
        <pt x="242" y="440" on="1"/>
        <pt x="333" y="485" on="1"/>
        <pt x="354" y="391" on="1"/>
        <pt x="242" y="335" on="1"/>
        <pt x="242" y="122" on="1"/>
        <pt x="500" y="122" on="1"/>
      </contour>
    </TTGlyph>
    <TTGlyph name="M" xMin="52" yMin="0" xMax="498" yMax="620">
      <contour>
        <pt x="369" y="620" on="1"/>
        <pt x="498" y="620" on="1"/>
        <pt x="498" y="0" on="1"/>
        <pt x="363" y="0" on="1"/>
        <pt x="371" y="346" on="1"/>
        <pt x="367" y="346" on="1"/>
        <pt x="308" y="138" on="1"/>
        <pt x="237" y="138" on="1"/>
        <pt x="178" y="346" on="1"/>
        <pt x="174" y="346" on="1"/>
        <pt x="182" y="0" on="1"/>
        <pt x="52" y="0" on="1"/>
        <pt x="52" y="620" on="1"/>
        <pt x="182" y="620" on="1"/>
        <pt x="274" y="296" on="1"/>
        <pt x="278" y="296" on="1"/>
      </contour>
    </TTGlyph>
    <TTGlyph name="N" xMin="59" yMin="0" xMax="492" yMax="620">
      <contour>
        <pt x="373" y="0" on="1"/>
        <pt x="193" y="345" on="1"/>
        <pt x="188" y="345" on="1"/>
        <pt x="194" y="0" on="1"/>
        <pt x="59" y="0" on="1"/>
        <pt x="59" y="620" on="1"/>
        <pt x="187" y="620" on="1"/>
        <pt x="359" y="275" on="1"/>
        <pt x="363" y="275" on="1"/>
        <pt x="357" y="620" on="1"/>
        <pt x="492" y="620" on="1"/>
        <pt x="492" y="0" on="1"/>
      </contour>
    </TTGlyph>
    <TTGlyph name="Nacute" xMin="59" yMin="0" xMax="492" yMax="912">
      <contour>
        <pt x="146" y="736" on="1"/>
        <pt x="168" y="749" on="0"/>
        <pt x="225" y="791" on="0"/>
        <pt x="284" y="838" on="0"/>
        <pt x="342" y="889" on="0"/>
        <pt x="364" y="912" on="1"/>
        <pt x="464" y="807" on="1"/>
        <pt x="437" y="787" on="0"/>
        <pt x="362" y="746" on="0"/>
        <pt x="285" y="710" on="0"/>
        <pt x="209" y="682" on="0"/>
        <pt x="180" y="674" on="1"/>
      </contour>
      <contour>
        <pt x="373" y="0" on="1"/>
        <pt x="193" y="345" on="1"/>
        <pt x="188" y="345" on="1"/>
        <pt x="194" y="0" on="1"/>
        <pt x="59" y="0" on="1"/>
        <pt x="59" y="620" on="1"/>
        <pt x="187" y="620" on="1"/>
        <pt x="359" y="275" on="1"/>
        <pt x="363" y="275" on="1"/>
        <pt x="357" y="620" on="1"/>
        <pt x="492" y="620" on="1"/>
        <pt x="492" y="0" on="1"/>
      </contour>
    </TTGlyph>
    <TTGlyph name="Ncaron" xMin="59" yMin="0" xMax="492" yMax="888">
      <contour>
        <pt x="291" y="668" on="1"/>
        <pt x="281" y="668" on="1"/>
        <pt x="89" y="805" on="1"/>
        <pt x="176" y="888" on="1"/>
        <pt x="297" y="796" on="1"/>
        <pt x="412" y="887" on="1"/>
        <pt x="478" y="821" on="1"/>
      </contour>
      <contour>
        <pt x="373" y="0" on="1"/>
        <pt x="193" y="345" on="1"/>
        <pt x="188" y="345" on="1"/>
        <pt x="194" y="0" on="1"/>
        <pt x="59" y="0" on="1"/>
        <pt x="59" y="620" on="1"/>
        <pt x="187" y="620" on="1"/>
        <pt x="359" y="275" on="1"/>
        <pt x="363" y="275" on="1"/>
        <pt x="357" y="620" on="1"/>
        <pt x="492" y="620" on="1"/>
        <pt x="492" y="0" on="1"/>
      </contour>
    </TTGlyph>
    <TTGlyph name="Ncommaaccent" xMin="59" yMin="-291" xMax="492" yMax="620">
      <contour>
        <pt x="373" y="0" on="1"/>
        <pt x="193" y="345" on="1"/>
        <pt x="188" y="345" on="1"/>
        <pt x="194" y="0" on="1"/>
        <pt x="59" y="0" on="1"/>
        <pt x="59" y="620" on="1"/>
        <pt x="187" y="620" on="1"/>
        <pt x="359" y="275" on="1"/>
        <pt x="363" y="275" on="1"/>
        <pt x="357" y="620" on="1"/>
        <pt x="492" y="620" on="1"/>
        <pt x="492" y="0" on="1"/>
      </contour>
      <contour>
        <pt x="194" y="-269" on="1"/>
        <pt x="201" y="-245" on="0"/>
        <pt x="208" y="-192" on="0"/>
        <pt x="208" y="-165" on="1"/>
        <pt x="208" y="-141" on="0"/>
        <pt x="202" y="-92" on="0"/>
        <pt x="196" y="-70" on="1"/>
        <pt x="362" y="-63" on="1"/>
        <pt x="361" y="-125" on="0"/>
        <pt x="311" y="-252" on="0"/>
        <pt x="267" y="-291" on="1"/>
      </contour>
    </TTGlyph>
    <TTGlyph name="Ntilde" xMin="59" yMin="0" xMax="501" yMax="868">
      <contour>
        <pt x="354" y="683" on="1"/>
        <pt x="330" y="683" on="0"/>
        <pt x="286" y="706" on="0"/>
        <pt x="248" y="732" on="0"/>
        <pt x="215" y="755" on="0"/>
        <pt x="202" y="755" on="1"/>
        <pt x="192" y="755" on="0"/>
        <pt x="162" y="727" on="0"/>
        <pt x="143" y="691" on="1"/>
        <pt x="72" y="725" on="1"/>
        <pt x="99" y="785" on="0"/>
        <pt x="176" y="868" on="0"/>
        <pt x="219" y="868" on="1"/>
        <pt x="243" y="868" on="0"/>
        <pt x="287" y="845" on="0"/>
        <pt x="325" y="819" on="0"/>
        <pt x="358" y="796" on="0"/>
        <pt x="370" y="796" on="1"/>
        <pt x="380" y="796" on="0"/>
        <pt x="410" y="824" on="0"/>
        <pt x="430" y="861" on="1"/>
        <pt x="501" y="827" on="1"/>
        <pt x="474" y="767" on="0"/>
        <pt x="397" y="683" on="0"/>
      </contour>
      <contour>
        <pt x="373" y="0" on="1"/>
        <pt x="193" y="345" on="1"/>
        <pt x="188" y="345" on="1"/>
        <pt x="194" y="0" on="1"/>
        <pt x="59" y="0" on="1"/>
        <pt x="59" y="620" on="1"/>
        <pt x="187" y="620" on="1"/>
        <pt x="359" y="275" on="1"/>
        <pt x="363" y="275" on="1"/>
        <pt x="357" y="620" on="1"/>
        <pt x="492" y="620" on="1"/>
        <pt x="492" y="0" on="1"/>
      </contour>
    </TTGlyph>
    <TTGlyph name="O" xMin="35" yMin="-16" xMax="515" yMax="636">
      <contour>
        <pt x="258" y="-16" on="1"/>
        <pt x="151" y="-16" on="0"/>
        <pt x="35" y="141" on="0"/>
        <pt x="35" y="288" on="1"/>
        <pt x="35" y="457" on="0"/>
        <pt x="175" y="636" on="0"/>
        <pt x="292" y="636" on="1"/>
        <pt x="399" y="636" on="0"/>
        <pt x="515" y="479" on="0"/>
        <pt x="515" y="332" on="1"/>
        <pt x="515" y="163" on="0"/>
        <pt x="375" y="-16" on="0"/>
      </contour>
      <contour>
        <pt x="270" y="516" on="1"/>
        <pt x="225" y="516" on="0"/>
        <pt x="187" y="422" on="0"/>
        <pt x="187" y="321" on="1"/>
        <pt x="187" y="212" on="0"/>
        <pt x="235" y="104" on="0"/>
        <pt x="280" y="104" on="1"/>
        <pt x="325" y="104" on="0"/>
        <pt x="363" y="198" on="0"/>
        <pt x="363" y="299" on="1"/>
        <pt x="363" y="408" on="0"/>
        <pt x="315" y="516" on="0"/>
      </contour>
    </TTGlyph>
    <TTGlyph name="OE" xMin="24" yMin="0" xMax="522" yMax="620">
      <contour>
        <pt x="253" y="121" on="1"/>
        <pt x="254" y="121" on="1"/>
        <pt x="254" y="498" on="1"/>
        <pt x="253" y="498" on="1"/>
        <pt x="208" y="498" on="0"/>
        <pt x="169" y="423" on="0"/>
        <pt x="169" y="319" on="1"/>
        <pt x="169" y="215" on="0"/>
        <pt x="206" y="121" on="0"/>
      </contour>
      <contour>
        <pt x="522" y="121" on="1"/>
        <pt x="515" y="0" on="1"/>
        <pt x="282" y="0" on="1"/>
        <pt x="153" y="0" on="0"/>
        <pt x="24" y="136" on="0"/>
        <pt x="24" y="299" on="1"/>
        <pt x="24" y="453" on="0"/>
        <pt x="158" y="620" on="0"/>
        <pt x="283" y="620" on="1"/>
        <pt x="517" y="620" on="1"/>
        <pt x="517" y="499" on="1"/>
        <pt x="373" y="499" on="1"/>
        <pt x="373" y="364" on="1"/>
        <pt x="485" y="364" on="1"/>
        <pt x="485" y="258" on="1"/>
        <pt x="373" y="258" on="1"/>
        <pt x="373" y="121" on="1"/>
      </contour>
    </TTGlyph>
    <TTGlyph name="Oacute" xMin="35" yMin="-16" xMax="515" yMax="919">
      <contour>
        <pt x="148" y="743" on="1"/>
        <pt x="170" y="756" on="0"/>
        <pt x="227" y="798" on="0"/>
        <pt x="286" y="845" on="0"/>
        <pt x="344" y="896" on="0"/>
        <pt x="366" y="919" on="1"/>
        <pt x="466" y="814" on="1"/>
        <pt x="439" y="794" on="0"/>
        <pt x="364" y="753" on="0"/>
        <pt x="287" y="717" on="0"/>
        <pt x="211" y="689" on="0"/>
        <pt x="182" y="681" on="1"/>
      </contour>
      <contour>
        <pt x="258" y="-16" on="1"/>
        <pt x="151" y="-16" on="0"/>
        <pt x="35" y="141" on="0"/>
        <pt x="35" y="288" on="1"/>
        <pt x="35" y="457" on="0"/>
        <pt x="175" y="636" on="0"/>
        <pt x="292" y="636" on="1"/>
        <pt x="399" y="636" on="0"/>
        <pt x="515" y="479" on="0"/>
        <pt x="515" y="332" on="1"/>
        <pt x="515" y="163" on="0"/>
        <pt x="375" y="-16" on="0"/>
      </contour>
      <contour>
        <pt x="270" y="516" on="1"/>
        <pt x="225" y="516" on="0"/>
        <pt x="187" y="422" on="0"/>
        <pt x="187" y="321" on="1"/>
        <pt x="187" y="212" on="0"/>
        <pt x="235" y="104" on="0"/>
        <pt x="280" y="104" on="1"/>
        <pt x="325" y="104" on="0"/>
        <pt x="363" y="198" on="0"/>
        <pt x="363" y="299" on="1"/>
        <pt x="363" y="408" on="0"/>
        <pt x="315" y="516" on="0"/>
      </contour>
    </TTGlyph>
    <TTGlyph name="Obreve" xMin="35" yMin="-16" xMax="515" yMax="889">
      <contour>
        <pt x="284" y="685" on="1"/>
        <pt x="226" y="685" on="0"/>
        <pt x="120" y="760" on="0"/>
        <pt x="81" y="832" on="1"/>
        <pt x="178" y="889" on="1"/>
        <pt x="209" y="841" on="0"/>
        <pt x="264" y="797" on="0"/>
        <pt x="297" y="797" on="1"/>
        <pt x="330" y="797" on="0"/>
        <pt x="385" y="842" on="0"/>
        <pt x="413" y="884" on="1"/>
        <pt x="492" y="843" on="1"/>
        <pt x="450" y="771" on="0"/>
        <pt x="342" y="685" on="0"/>
      </contour>
      <contour>
        <pt x="258" y="-16" on="1"/>
        <pt x="151" y="-16" on="0"/>
        <pt x="35" y="141" on="0"/>
        <pt x="35" y="288" on="1"/>
        <pt x="35" y="457" on="0"/>
        <pt x="175" y="636" on="0"/>
        <pt x="292" y="636" on="1"/>
        <pt x="399" y="636" on="0"/>
        <pt x="515" y="479" on="0"/>
        <pt x="515" y="332" on="1"/>
        <pt x="515" y="163" on="0"/>
        <pt x="375" y="-16" on="0"/>
      </contour>
      <contour>
        <pt x="270" y="516" on="1"/>
        <pt x="225" y="516" on="0"/>
        <pt x="187" y="422" on="0"/>
        <pt x="187" y="321" on="1"/>
        <pt x="187" y="212" on="0"/>
        <pt x="235" y="104" on="0"/>
        <pt x="280" y="104" on="1"/>
        <pt x="325" y="104" on="0"/>
        <pt x="363" y="198" on="0"/>
        <pt x="363" y="299" on="1"/>
        <pt x="363" y="408" on="0"/>
        <pt x="315" y="516" on="0"/>
      </contour>
    </TTGlyph>
    <TTGlyph name="Ocircumflex" xMin="35" yMin="-16" xMax="515" yMax="901">
      <contour>
        <pt x="389" y="682" on="1"/>
        <pt x="267" y="774" on="1"/>
        <pt x="152" y="683" on="1"/>
        <pt x="86" y="748" on="1"/>
        <pt x="273" y="901" on="1"/>
        <pt x="283" y="901" on="1"/>
        <pt x="475" y="764" on="1"/>
      </contour>
      <contour>
        <pt x="258" y="-16" on="1"/>
        <pt x="151" y="-16" on="0"/>
        <pt x="35" y="141" on="0"/>
        <pt x="35" y="288" on="1"/>
        <pt x="35" y="457" on="0"/>
        <pt x="175" y="636" on="0"/>
        <pt x="292" y="636" on="1"/>
        <pt x="399" y="636" on="0"/>
        <pt x="515" y="479" on="0"/>
        <pt x="515" y="332" on="1"/>
        <pt x="515" y="163" on="0"/>
        <pt x="375" y="-16" on="0"/>
      </contour>
      <contour>
        <pt x="270" y="516" on="1"/>
        <pt x="225" y="516" on="0"/>
        <pt x="187" y="422" on="0"/>
        <pt x="187" y="321" on="1"/>
        <pt x="187" y="212" on="0"/>
        <pt x="235" y="104" on="0"/>
        <pt x="280" y="104" on="1"/>
        <pt x="325" y="104" on="0"/>
        <pt x="363" y="198" on="0"/>
        <pt x="363" y="299" on="1"/>
        <pt x="363" y="408" on="0"/>
        <pt x="315" y="516" on="0"/>
      </contour>
    </TTGlyph>
    <TTGlyph name="Odieresis" xMin="35" yMin="-16" xMax="515" yMax="842">
      <contour>
        <pt x="464" y="697" on="1"/>
        <pt x="321" y="697" on="1"/>
        <pt x="324" y="842" on="1"/>
        <pt x="468" y="842" on="1"/>
      </contour>
      <contour>
        <pt x="240" y="697" on="1"/>
        <pt x="96" y="697" on="1"/>
        <pt x="99" y="842" on="1"/>
        <pt x="243" y="842" on="1"/>
      </contour>
      <contour>
        <pt x="258" y="-16" on="1"/>
        <pt x="151" y="-16" on="0"/>
        <pt x="35" y="141" on="0"/>
        <pt x="35" y="288" on="1"/>
        <pt x="35" y="457" on="0"/>
        <pt x="175" y="636" on="0"/>
        <pt x="292" y="636" on="1"/>
        <pt x="399" y="636" on="0"/>
        <pt x="515" y="479" on="0"/>
        <pt x="515" y="332" on="1"/>
        <pt x="515" y="163" on="0"/>
        <pt x="375" y="-16" on="0"/>
      </contour>
      <contour>
        <pt x="270" y="516" on="1"/>
        <pt x="225" y="516" on="0"/>
        <pt x="187" y="422" on="0"/>
        <pt x="187" y="321" on="1"/>
        <pt x="187" y="212" on="0"/>
        <pt x="235" y="104" on="0"/>
        <pt x="280" y="104" on="1"/>
        <pt x="325" y="104" on="0"/>
        <pt x="363" y="198" on="0"/>
        <pt x="363" y="299" on="1"/>
        <pt x="363" y="408" on="0"/>
        <pt x="315" y="516" on="0"/>
      </contour>
    </TTGlyph>
    <TTGlyph name="Ograve" xMin="35" yMin="-16" xMax="515" yMax="921">
      <contour>
        <pt x="405" y="741" on="1"/>
        <pt x="367" y="680" on="1"/>
        <pt x="339" y="689" on="0"/>
        <pt x="266" y="719" on="0"/>
        <pt x="191" y="753" on="0"/>
        <pt x="117" y="790" on="0"/>
        <pt x="88" y="808" on="1"/>
        <pt x="179" y="921" on="1"/>
        <pt x="202" y="900" on="0"/>
        <pt x="264" y="850" on="0"/>
        <pt x="326" y="800" on="0"/>
        <pt x="385" y="756" on="0"/>
      </contour>
      <contour>
        <pt x="258" y="-16" on="1"/>
        <pt x="151" y="-16" on="0"/>
        <pt x="35" y="141" on="0"/>
        <pt x="35" y="288" on="1"/>
        <pt x="35" y="457" on="0"/>
        <pt x="175" y="636" on="0"/>
        <pt x="292" y="636" on="1"/>
        <pt x="399" y="636" on="0"/>
        <pt x="515" y="479" on="0"/>
        <pt x="515" y="332" on="1"/>
        <pt x="515" y="163" on="0"/>
        <pt x="375" y="-16" on="0"/>
      </contour>
      <contour>
        <pt x="270" y="516" on="1"/>
        <pt x="225" y="516" on="0"/>
        <pt x="187" y="422" on="0"/>
        <pt x="187" y="321" on="1"/>
        <pt x="187" y="212" on="0"/>
        <pt x="235" y="104" on="0"/>
        <pt x="280" y="104" on="1"/>
        <pt x="325" y="104" on="0"/>
        <pt x="363" y="198" on="0"/>
        <pt x="363" y="299" on="1"/>
        <pt x="363" y="408" on="0"/>
        <pt x="315" y="516" on="0"/>
      </contour>
    </TTGlyph>
    <TTGlyph name="Ohungarumlaut" xMin="35" yMin="-16" xMax="554" yMax="933">
      <contour>
        <pt x="106" y="729" on="1"/>
        <pt x="120" y="750" on="0"/>
        <pt x="149" y="803" on="0"/>
        <pt x="176" y="857" on="0"/>
        <pt x="200" y="911" on="0"/>
        <pt x="208" y="933" on="1"/>
        <pt x="340" y="872" on="1"/>
        <pt x="309" y="828" on="0"/>
        <pt x="217" y="726" on="0"/>
        <pt x="173" y="688" on="1"/>
      </contour>
      <contour>
        <pt x="319" y="727" on="1"/>
        <pt x="347" y="770" on="0"/>
        <pt x="400" y="877" on="0"/>
        <pt x="416" y="923" on="1"/>
        <pt x="554" y="870" on="1"/>
        <pt x="523" y="825" on="0"/>
        <pt x="432" y="725" on="0"/>
        <pt x="386" y="687" on="1"/>
      </contour>
      <contour>
        <pt x="258" y="-16" on="1"/>
        <pt x="151" y="-16" on="0"/>
        <pt x="35" y="141" on="0"/>
        <pt x="35" y="288" on="1"/>
        <pt x="35" y="457" on="0"/>
        <pt x="175" y="636" on="0"/>
        <pt x="292" y="636" on="1"/>
        <pt x="399" y="636" on="0"/>
        <pt x="515" y="479" on="0"/>
        <pt x="515" y="332" on="1"/>
        <pt x="515" y="163" on="0"/>
        <pt x="375" y="-16" on="0"/>
      </contour>
      <contour>
        <pt x="270" y="516" on="1"/>
        <pt x="225" y="516" on="0"/>
        <pt x="187" y="422" on="0"/>
        <pt x="187" y="321" on="1"/>
        <pt x="187" y="212" on="0"/>
        <pt x="235" y="104" on="0"/>
        <pt x="280" y="104" on="1"/>
        <pt x="325" y="104" on="0"/>
        <pt x="363" y="198" on="0"/>
        <pt x="363" y="299" on="1"/>
        <pt x="363" y="408" on="0"/>
        <pt x="315" y="516" on="0"/>
      </contour>
    </TTGlyph>
    <TTGlyph name="Omacron" xMin="35" yMin="-16" xMax="515" yMax="830">
      <contour>
        <pt x="460" y="830" on="1"/>
        <pt x="460" y="709" on="1"/>
        <pt x="100" y="709" on="1"/>
        <pt x="100" y="830" on="1"/>
      </contour>
      <contour>
        <pt x="258" y="-16" on="1"/>
        <pt x="151" y="-16" on="0"/>
        <pt x="35" y="141" on="0"/>
        <pt x="35" y="288" on="1"/>
        <pt x="35" y="457" on="0"/>
        <pt x="175" y="636" on="0"/>
        <pt x="292" y="636" on="1"/>
        <pt x="399" y="636" on="0"/>
        <pt x="515" y="479" on="0"/>
        <pt x="515" y="332" on="1"/>
        <pt x="515" y="163" on="0"/>
        <pt x="375" y="-16" on="0"/>
      </contour>
      <contour>
        <pt x="270" y="516" on="1"/>
        <pt x="225" y="516" on="0"/>
        <pt x="187" y="422" on="0"/>
        <pt x="187" y="321" on="1"/>
        <pt x="187" y="212" on="0"/>
        <pt x="235" y="104" on="0"/>
        <pt x="280" y="104" on="1"/>
        <pt x="325" y="104" on="0"/>
        <pt x="363" y="198" on="0"/>
        <pt x="363" y="299" on="1"/>
        <pt x="363" y="408" on="0"/>
        <pt x="315" y="516" on="0"/>
      </contour>
    </TTGlyph>
    <TTGlyph name="Omega" xMin="44" yMin="0" xMax="507" yMax="635">
      <contour>
        <pt x="247" y="7" on="1"/>
        <pt x="244" y="0" on="1"/>
        <pt x="44" y="0" on="1"/>
        <pt x="44" y="113" on="1"/>
        <pt x="110" y="113" on="1"/>
        <pt x="85" y="182" on="0"/>
        <pt x="59" y="313" on="0"/>
        <pt x="59" y="370" on="1"/>
        <pt x="59" y="428" on="0"/>
        <pt x="89" y="526" on="0"/>
        <pt x="145" y="596" on="0"/>
        <pt x="228" y="635" on="0"/>
        <pt x="281" y="635" on="1"/>
        <pt x="332" y="635" on="0"/>
        <pt x="412" y="596" on="0"/>
        <pt x="465" y="528" on="0"/>
        <pt x="493" y="433" on="0"/>
        <pt x="493" y="377" on="1"/>
        <pt x="493" y="374" on="1"/>
        <pt x="493" y="315" on="0"/>
        <pt x="468" y="184" on="0"/>
        <pt x="441" y="113" on="1"/>
        <pt x="507" y="113" on="1"/>
        <pt x="507" y="0" on="1"/>
        <pt x="307" y="0" on="1"/>
        <pt x="305" y="7" on="1"/>
        <pt x="330" y="110" on="0"/>
        <pt x="355" y="278" on="0"/>
        <pt x="355" y="339" on="1"/>
        <pt x="355" y="421" on="0"/>
        <pt x="314" y="506" on="0"/>
        <pt x="276" y="506" on="1"/>
        <pt x="236" y="506" on="0"/>
        <pt x="195" y="423" on="0"/>
        <pt x="195" y="343" on="1"/>
        <pt x="195" y="282" on="0"/>
        <pt x="221" y="112" on="0"/>
      </contour>
    </TTGlyph>
    <TTGlyph name="Oslash" xMin="35" yMin="-51" xMax="515" yMax="671">
      <contour>
        <pt x="184" y="321" on="1"/>
        <pt x="184" y="293" on="0"/>
        <pt x="187" y="245" on="0"/>
        <pt x="190" y="225" on="1"/>
        <pt x="326" y="489" on="1"/>
        <pt x="315" y="503" on="0"/>
        <pt x="286" y="517" on="0"/>
        <pt x="270" y="517" on="1"/>
        <pt x="224" y="517" on="0"/>
        <pt x="184" y="424" on="0"/>
      </contour>
      <contour>
        <pt x="280" y="103" on="1"/>
        <pt x="326" y="103" on="0"/>
        <pt x="366" y="196" on="0"/>
        <pt x="366" y="299" on="1"/>
        <pt x="366" y="327" on="0"/>
        <pt x="363" y="376" on="0"/>
        <pt x="359" y="397" on="1"/>
        <pt x="223" y="132" on="1"/>
        <pt x="234" y="117" on="0"/>
        <pt x="263" y="103" on="0"/>
      </contour>
      <contour>
        <pt x="258" y="-16" on="1"/>
        <pt x="234" y="-16" on="0"/>
        <pt x="190" y="-8" on="0"/>
        <pt x="171" y="0" on="1"/>
        <pt x="145" y="-51" on="1"/>
        <pt x="56" y="-5" on="1"/>
        <pt x="92" y="62" on="1"/>
        <pt x="64" y="101" on="0"/>
        <pt x="35" y="215" on="0"/>
        <pt x="35" y="288" on="1"/>
        <pt x="35" y="457" on="0"/>
        <pt x="175" y="636" on="0"/>
        <pt x="292" y="636" on="1"/>
        <pt x="317" y="636" on="0"/>
        <pt x="362" y="627" on="0"/>
        <pt x="381" y="619" on="1"/>
        <pt x="406" y="671" on="1"/>
        <pt x="495" y="625" on="1"/>
        <pt x="459" y="555" on="1"/>
        <pt x="487" y="517" on="0"/>
        <pt x="515" y="404" on="0"/>
        <pt x="515" y="332" on="1"/>
        <pt x="515" y="163" on="0"/>
        <pt x="375" y="-16" on="0"/>
      </contour>
    </TTGlyph>
    <TTGlyph name="Oslashacute" xMin="35" yMin="-51" xMax="515" yMax="920">
      <contour>
        <pt x="143" y="744" on="1"/>
        <pt x="165" y="757" on="0"/>
        <pt x="222" y="799" on="0"/>
        <pt x="281" y="846" on="0"/>
        <pt x="339" y="897" on="0"/>
        <pt x="361" y="920" on="1"/>
        <pt x="461" y="815" on="1"/>
        <pt x="434" y="795" on="0"/>
        <pt x="359" y="754" on="0"/>
        <pt x="282" y="718" on="0"/>
        <pt x="206" y="690" on="0"/>
        <pt x="177" y="682" on="1"/>
      </contour>
      <contour>
        <pt x="184" y="321" on="1"/>
        <pt x="184" y="293" on="0"/>
        <pt x="187" y="245" on="0"/>
        <pt x="190" y="225" on="1"/>
        <pt x="326" y="489" on="1"/>
        <pt x="315" y="503" on="0"/>
        <pt x="286" y="517" on="0"/>
        <pt x="270" y="517" on="1"/>
        <pt x="224" y="517" on="0"/>
        <pt x="184" y="424" on="0"/>
      </contour>
      <contour>
        <pt x="280" y="103" on="1"/>
        <pt x="326" y="103" on="0"/>
        <pt x="366" y="196" on="0"/>
        <pt x="366" y="299" on="1"/>
        <pt x="366" y="327" on="0"/>
        <pt x="363" y="376" on="0"/>
        <pt x="359" y="397" on="1"/>
        <pt x="223" y="132" on="1"/>
        <pt x="234" y="117" on="0"/>
        <pt x="263" y="103" on="0"/>
      </contour>
      <contour>
        <pt x="258" y="-16" on="1"/>
        <pt x="234" y="-16" on="0"/>
        <pt x="190" y="-8" on="0"/>
        <pt x="171" y="0" on="1"/>
        <pt x="145" y="-51" on="1"/>
        <pt x="56" y="-5" on="1"/>
        <pt x="92" y="62" on="1"/>
        <pt x="64" y="101" on="0"/>
        <pt x="35" y="215" on="0"/>
        <pt x="35" y="288" on="1"/>
        <pt x="35" y="457" on="0"/>
        <pt x="175" y="636" on="0"/>
        <pt x="292" y="636" on="1"/>
        <pt x="317" y="636" on="0"/>
        <pt x="362" y="627" on="0"/>
        <pt x="381" y="619" on="1"/>
        <pt x="406" y="671" on="1"/>
        <pt x="495" y="625" on="1"/>
        <pt x="459" y="555" on="1"/>
        <pt x="487" y="517" on="0"/>
        <pt x="515" y="404" on="0"/>
        <pt x="515" y="332" on="1"/>
        <pt x="515" y="163" on="0"/>
        <pt x="375" y="-16" on="0"/>
      </contour>
    </TTGlyph>
    <TTGlyph name="Otilde" xMin="35" yMin="-16" xMax="515" yMax="875">
      <contour>
        <pt x="356" y="690" on="1"/>
        <pt x="332" y="690" on="0"/>
        <pt x="288" y="713" on="0"/>
        <pt x="250" y="739" on="0"/>
        <pt x="217" y="762" on="0"/>
        <pt x="204" y="762" on="1"/>
        <pt x="194" y="762" on="0"/>
        <pt x="164" y="734" on="0"/>
        <pt x="145" y="698" on="1"/>
        <pt x="74" y="732" on="1"/>
        <pt x="101" y="792" on="0"/>
        <pt x="178" y="875" on="0"/>
        <pt x="221" y="875" on="1"/>
        <pt x="245" y="875" on="0"/>
        <pt x="289" y="852" on="0"/>
        <pt x="327" y="826" on="0"/>
        <pt x="360" y="803" on="0"/>
        <pt x="372" y="803" on="1"/>
        <pt x="382" y="803" on="0"/>
        <pt x="412" y="831" on="0"/>
        <pt x="432" y="868" on="1"/>
        <pt x="503" y="834" on="1"/>
        <pt x="476" y="774" on="0"/>
        <pt x="399" y="690" on="0"/>
      </contour>
      <contour>
        <pt x="258" y="-16" on="1"/>
        <pt x="151" y="-16" on="0"/>
        <pt x="35" y="141" on="0"/>
        <pt x="35" y="288" on="1"/>
        <pt x="35" y="457" on="0"/>
        <pt x="175" y="636" on="0"/>
        <pt x="292" y="636" on="1"/>
        <pt x="399" y="636" on="0"/>
        <pt x="515" y="479" on="0"/>
        <pt x="515" y="332" on="1"/>
        <pt x="515" y="163" on="0"/>
        <pt x="375" y="-16" on="0"/>
      </contour>
      <contour>
        <pt x="270" y="516" on="1"/>
        <pt x="225" y="516" on="0"/>
        <pt x="187" y="422" on="0"/>
        <pt x="187" y="321" on="1"/>
        <pt x="187" y="212" on="0"/>
        <pt x="235" y="104" on="0"/>
        <pt x="280" y="104" on="1"/>
        <pt x="325" y="104" on="0"/>
        <pt x="363" y="198" on="0"/>
        <pt x="363" y="299" on="1"/>
        <pt x="363" y="408" on="0"/>
        <pt x="315" y="516" on="0"/>
      </contour>
    </TTGlyph>
    <TTGlyph name="P" xMin="75" yMin="0" xMax="518" yMax="630">
      <contour>
        <pt x="221" y="0" on="1"/>
        <pt x="75" y="0" on="1"/>
        <pt x="75" y="620" on="1"/>
        <pt x="114" y="624" on="0"/>
        <pt x="186" y="630" on="0"/>
        <pt x="218" y="630" on="1"/>
        <pt x="370" y="630" on="0"/>
        <pt x="518" y="524" on="0"/>
        <pt x="518" y="423" on="1"/>
        <pt x="518" y="366" on="0"/>
        <pt x="473" y="279" on="0"/>
        <pt x="395" y="219" on="0"/>
        <pt x="285" y="180" on="0"/>
        <pt x="221" y="171" on="1"/>
      </contour>
      <contour>
        <pt x="271" y="286" on="1"/>
        <pt x="323" y="286" on="0"/>
        <pt x="375" y="336" on="0"/>
        <pt x="375" y="393" on="1"/>
        <pt x="375" y="450" on="0"/>
        <pt x="311" y="509" on="0"/>
        <pt x="248" y="509" on="1"/>
        <pt x="241" y="509" on="0"/>
        <pt x="228" y="509" on="0"/>
        <pt x="221" y="508" on="1"/>
        <pt x="221" y="290" on="1"/>
        <pt x="234" y="288" on="0"/>
        <pt x="260" y="286" on="0"/>
      </contour>
    </TTGlyph>
    <TTGlyph name="Q" xMin="35" yMin="-155" xMax="515" yMax="636">
      <contour>
        <pt x="440" y="-155" on="1"/>
        <pt x="195" y="-80" on="1"/>
        <pt x="218" y="-13" on="1"/>
        <pt x="129" y="1" on="0"/>
        <pt x="35" y="155" on="0"/>
        <pt x="35" y="288" on="1"/>
        <pt x="35" y="457" on="0"/>
        <pt x="175" y="636" on="0"/>
        <pt x="292" y="636" on="1"/>
        <pt x="399" y="636" on="0"/>
        <pt x="515" y="479" on="0"/>
        <pt x="515" y="332" on="1"/>
        <pt x="515" y="206" on="0"/>
        <pt x="435" y="41" on="0"/>
        <pt x="366" y="7" on="1"/>
        <pt x="366" y="-1" on="1"/>
        <pt x="480" y="-37" on="1"/>
      </contour>
      <contour>
        <pt x="270" y="516" on="1"/>
        <pt x="222" y="516" on="0"/>
        <pt x="187" y="422" on="0"/>
        <pt x="187" y="321" on="1"/>
        <pt x="187" y="212" on="0"/>
        <pt x="232" y="104" on="0"/>
        <pt x="280" y="104" on="1"/>
        <pt x="328" y="104" on="0"/>
        <pt x="363" y="198" on="0"/>
        <pt x="363" y="299" on="1"/>
        <pt x="363" y="408" on="0"/>
        <pt x="318" y="516" on="0"/>
      </contour>
    </TTGlyph>
    <TTGlyph name="R" xMin="69" yMin="-9" xMax="541" yMax="629">
      <contour>
        <pt x="383" y="-9" on="1"/>
        <pt x="283" y="202" on="1"/>
        <pt x="214" y="200" on="1"/>
        <pt x="214" y="0" on="1"/>
        <pt x="69" y="0" on="1"/>
        <pt x="69" y="620" on="1"/>
        <pt x="109" y="624" on="0"/>
        <pt x="181" y="629" on="0"/>
        <pt x="212" y="629" on="1"/>
        <pt x="292" y="629" on="0"/>
        <pt x="401" y="602" on="0"/>
        <pt x="466" y="554" on="0"/>
        <pt x="494" y="486" on="0"/>
        <pt x="494" y="445" on="1"/>
        <pt x="494" y="388" on="0"/>
        <pt x="440" y="308" on="0"/>
        <pt x="397" y="277" on="1"/>
        <pt x="541" y="9" on="1"/>
      </contour>
      <contour>
        <pt x="214" y="508" on="1"/>
        <pt x="214" y="302" on="1"/>
        <pt x="294" y="304" on="1"/>
        <pt x="320" y="323" on="0"/>
        <pt x="350" y="378" on="0"/>
        <pt x="350" y="412" on="1"/>
        <pt x="350" y="460" on="0"/>
        <pt x="296" y="510" on="0"/>
        <pt x="244" y="510" on="1"/>
        <pt x="237" y="510" on="0"/>
        <pt x="222" y="509" on="0"/>
      </contour>
    </TTGlyph>
    <TTGlyph name="R_p" xMin="17" yMin="-176" xMax="538" yMax="623">
      <contour>
        <pt x="175" y="-4" on="1"/>
        <pt x="137" y="224" on="1"/>
        <pt x="115" y="223" on="1"/>
        <pt x="123" y="0" on="1"/>
        <pt x="17" y="0" on="1"/>
        <pt x="17" y="619" on="1"/>
        <pt x="33" y="621" on="0"/>
        <pt x="65" y="623" on="0"/>
        <pt x="79" y="623" on="1"/>
        <pt x="182" y="623" on="0"/>
        <pt x="279" y="523" on="0"/>
        <pt x="279" y="442" on="1"/>
        <pt x="279" y="392" on="0"/>
        <pt x="248" y="307" on="0"/>
        <pt x="224" y="274" on="1"/>
        <pt x="278" y="2" on="1"/>
      </contour>
      <contour>
        <pt x="303" y="-176" on="1"/>
        <pt x="303" y="477" on="1"/>
        <pt x="368" y="477" on="1"/>
        <pt x="371" y="463" on="1"/>
        <pt x="390" y="472" on="0"/>
        <pt x="424" y="481" on="0"/>
        <pt x="438" y="481" on="1"/>
        <pt x="489" y="481" on="0"/>
        <pt x="538" y="368" on="0"/>
        <pt x="538" y="257" on="1"/>
        <pt x="538" y="120" on="0"/>
        <pt x="458" y="4" on="0"/>
        <pt x="406" y="4" on="1"/>
        <pt x="400" y="4" on="1"/>
        <pt x="400" y="-164" on="1"/>
      </contour>
    </TTGlyph>
    <TTGlyph name="Racute" xMin="69" yMin="-9" xMax="541" yMax="917">
      <contour>
        <pt x="126" y="741" on="1"/>
        <pt x="148" y="754" on="0"/>
        <pt x="205" y="796" on="0"/>
        <pt x="264" y="843" on="0"/>
        <pt x="322" y="894" on="0"/>
        <pt x="344" y="917" on="1"/>
        <pt x="444" y="812" on="1"/>
        <pt x="417" y="792" on="0"/>
        <pt x="342" y="751" on="0"/>
        <pt x="265" y="715" on="0"/>
        <pt x="189" y="687" on="0"/>
        <pt x="160" y="679" on="1"/>
      </contour>
      <contour>
        <pt x="383" y="-9" on="1"/>
        <pt x="283" y="202" on="1"/>
        <pt x="214" y="200" on="1"/>
        <pt x="214" y="0" on="1"/>
        <pt x="69" y="0" on="1"/>
        <pt x="69" y="620" on="1"/>
        <pt x="109" y="624" on="0"/>
        <pt x="181" y="629" on="0"/>
        <pt x="212" y="629" on="1"/>
        <pt x="292" y="629" on="0"/>
        <pt x="401" y="602" on="0"/>
        <pt x="466" y="554" on="0"/>
        <pt x="494" y="486" on="0"/>
        <pt x="494" y="445" on="1"/>
        <pt x="494" y="388" on="0"/>
        <pt x="440" y="308" on="0"/>
        <pt x="397" y="277" on="1"/>
        <pt x="541" y="9" on="1"/>
      </contour>
      <contour>
        <pt x="214" y="508" on="1"/>
        <pt x="214" y="302" on="1"/>
        <pt x="294" y="304" on="1"/>
        <pt x="320" y="323" on="0"/>
        <pt x="350" y="378" on="0"/>
        <pt x="350" y="412" on="1"/>
        <pt x="350" y="460" on="0"/>
        <pt x="296" y="510" on="0"/>
        <pt x="244" y="510" on="1"/>
        <pt x="237" y="510" on="0"/>
        <pt x="222" y="509" on="0"/>
      </contour>
    </TTGlyph>
    <TTGlyph name="Rcaron" xMin="69" yMin="-9" xMax="541" yMax="893">
      <contour>
        <pt x="271" y="673" on="1"/>
        <pt x="261" y="673" on="1"/>
        <pt x="69" y="810" on="1"/>
        <pt x="156" y="893" on="1"/>
        <pt x="277" y="801" on="1"/>
        <pt x="392" y="892" on="1"/>
        <pt x="458" y="826" on="1"/>
      </contour>
      <contour>
        <pt x="383" y="-9" on="1"/>
        <pt x="283" y="202" on="1"/>
        <pt x="214" y="200" on="1"/>
        <pt x="214" y="0" on="1"/>
        <pt x="69" y="0" on="1"/>
        <pt x="69" y="620" on="1"/>
        <pt x="109" y="624" on="0"/>
        <pt x="181" y="629" on="0"/>
        <pt x="212" y="629" on="1"/>
        <pt x="292" y="629" on="0"/>
        <pt x="401" y="602" on="0"/>
        <pt x="466" y="554" on="0"/>
        <pt x="494" y="486" on="0"/>
        <pt x="494" y="445" on="1"/>
        <pt x="494" y="388" on="0"/>
        <pt x="440" y="308" on="0"/>
        <pt x="397" y="277" on="1"/>
        <pt x="541" y="9" on="1"/>
      </contour>
      <contour>
        <pt x="214" y="508" on="1"/>
        <pt x="214" y="302" on="1"/>
        <pt x="294" y="304" on="1"/>
        <pt x="320" y="323" on="0"/>
        <pt x="350" y="378" on="0"/>
        <pt x="350" y="412" on="1"/>
        <pt x="350" y="460" on="0"/>
        <pt x="296" y="510" on="0"/>
        <pt x="244" y="510" on="1"/>
        <pt x="237" y="510" on="0"/>
        <pt x="222" y="509" on="0"/>
      </contour>
    </TTGlyph>
    <TTGlyph name="Rcommaaccent" xMin="69" yMin="-300" xMax="541" yMax="629">
      <contour>
        <pt x="383" y="-9" on="1"/>
        <pt x="283" y="202" on="1"/>
        <pt x="214" y="200" on="1"/>
        <pt x="214" y="0" on="1"/>
        <pt x="69" y="0" on="1"/>
        <pt x="69" y="620" on="1"/>
        <pt x="109" y="624" on="0"/>
        <pt x="181" y="629" on="0"/>
        <pt x="212" y="629" on="1"/>
        <pt x="292" y="629" on="0"/>
        <pt x="401" y="602" on="0"/>
        <pt x="466" y="554" on="0"/>
        <pt x="494" y="486" on="0"/>
        <pt x="494" y="445" on="1"/>
        <pt x="494" y="388" on="0"/>
        <pt x="440" y="308" on="0"/>
        <pt x="397" y="277" on="1"/>
        <pt x="541" y="9" on="1"/>
      </contour>
      <contour>
        <pt x="214" y="508" on="1"/>
        <pt x="214" y="302" on="1"/>
        <pt x="294" y="304" on="1"/>
        <pt x="320" y="323" on="0"/>
        <pt x="350" y="378" on="0"/>
        <pt x="350" y="412" on="1"/>
        <pt x="350" y="460" on="0"/>
        <pt x="296" y="510" on="0"/>
        <pt x="244" y="510" on="1"/>
        <pt x="237" y="510" on="0"/>
        <pt x="222" y="509" on="0"/>
      </contour>
      <contour>
        <pt x="209" y="-278" on="1"/>
        <pt x="216" y="-254" on="0"/>
        <pt x="223" y="-201" on="0"/>
        <pt x="223" y="-174" on="1"/>
        <pt x="223" y="-150" on="0"/>
        <pt x="217" y="-101" on="0"/>
        <pt x="211" y="-79" on="1"/>
        <pt x="377" y="-72" on="1"/>
        <pt x="376" y="-134" on="0"/>
        <pt x="326" y="-261" on="0"/>
        <pt x="282" y="-300" on="1"/>
      </contour>
    </TTGlyph>
    <TTGlyph name="S" xMin="70" yMin="-8" xMax="493" yMax="627">
      <contour>
        <pt x="75" y="122" on="1"/>
        <pt x="104" y="120" on="0"/>
        <pt x="154" y="118" on="0"/>
        <pt x="176" y="118" on="1"/>
        <pt x="265" y="118" on="0"/>
        <pt x="339" y="148" on="0"/>
        <pt x="339" y="174" on="1"/>
        <pt x="339" y="207" on="0"/>
        <pt x="255" y="258" on="0"/>
        <pt x="154" y="313" on="0"/>
        <pt x="70" y="384" on="0"/>
        <pt x="70" y="437" on="1"/>
        <pt x="70" y="471" on="0"/>
        <pt x="109" y="540" on="0"/>
        <pt x="190" y="593" on="0"/>
        <pt x="316" y="627" on="0"/>
        <pt x="402" y="627" on="1"/>
        <pt x="412" y="627" on="0"/>
        <pt x="434" y="627" on="0"/>
        <pt x="445" y="626" on="1"/>
        <pt x="453" y="496" on="1"/>
        <pt x="420" y="498" on="0"/>
        <pt x="365" y="501" on="0"/>
        <pt x="343" y="501" on="1"/>
        <pt x="273" y="501" on="0"/>
        <pt x="224" y="478" on="0"/>
        <pt x="224" y="456" on="1"/>
        <pt x="224" y="427" on="0"/>
        <pt x="308" y="378" on="0"/>
        <pt x="409" y="321" on="0"/>
        <pt x="493" y="246" on="0"/>
        <pt x="493" y="191" on="1"/>
        <pt x="493" y="154" on="0"/>
        <pt x="453" y="83" on="0"/>
        <pt x="363" y="27" on="0"/>
        <pt x="215" y="-8" on="0"/>
        <pt x="108" y="-8" on="1"/>
        <pt x="75" y="-8" on="1"/>
      </contour>
    </TTGlyph>
    <TTGlyph name="Sacute" xMin="70" yMin="-8" xMax="493" yMax="918">
      <contour>
        <pt x="152" y="742" on="1"/>
        <pt x="174" y="755" on="0"/>
        <pt x="231" y="797" on="0"/>
        <pt x="290" y="844" on="0"/>
        <pt x="348" y="895" on="0"/>
        <pt x="370" y="918" on="1"/>
        <pt x="470" y="813" on="1"/>
        <pt x="443" y="793" on="0"/>
        <pt x="368" y="752" on="0"/>
        <pt x="291" y="716" on="0"/>
        <pt x="215" y="688" on="0"/>
        <pt x="186" y="680" on="1"/>
      </contour>
      <contour>
        <pt x="75" y="122" on="1"/>
        <pt x="104" y="120" on="0"/>
        <pt x="154" y="118" on="0"/>
        <pt x="176" y="118" on="1"/>
        <pt x="265" y="118" on="0"/>
        <pt x="339" y="148" on="0"/>
        <pt x="339" y="174" on="1"/>
        <pt x="339" y="207" on="0"/>
        <pt x="255" y="258" on="0"/>
        <pt x="154" y="313" on="0"/>
        <pt x="70" y="384" on="0"/>
        <pt x="70" y="437" on="1"/>
        <pt x="70" y="471" on="0"/>
        <pt x="109" y="540" on="0"/>
        <pt x="190" y="593" on="0"/>
        <pt x="316" y="627" on="0"/>
        <pt x="402" y="627" on="1"/>
        <pt x="412" y="627" on="0"/>
        <pt x="434" y="627" on="0"/>
        <pt x="445" y="626" on="1"/>
        <pt x="453" y="496" on="1"/>
        <pt x="420" y="498" on="0"/>
        <pt x="365" y="501" on="0"/>
        <pt x="343" y="501" on="1"/>
        <pt x="273" y="501" on="0"/>
        <pt x="224" y="478" on="0"/>
        <pt x="224" y="456" on="1"/>
        <pt x="224" y="427" on="0"/>
        <pt x="308" y="378" on="0"/>
        <pt x="409" y="321" on="0"/>
        <pt x="493" y="246" on="0"/>
        <pt x="493" y="191" on="1"/>
        <pt x="493" y="154" on="0"/>
        <pt x="453" y="83" on="0"/>
        <pt x="363" y="27" on="0"/>
        <pt x="215" y="-8" on="0"/>
        <pt x="108" y="-8" on="1"/>
        <pt x="75" y="-8" on="1"/>
      </contour>
    </TTGlyph>
    <TTGlyph name="Scaron" xMin="70" yMin="-8" xMax="493" yMax="894">
      <contour>
        <pt x="297" y="674" on="1"/>
        <pt x="287" y="674" on="1"/>
        <pt x="95" y="811" on="1"/>
        <pt x="182" y="894" on="1"/>
        <pt x="303" y="802" on="1"/>
        <pt x="418" y="893" on="1"/>
        <pt x="484" y="827" on="1"/>
      </contour>
      <contour>
        <pt x="75" y="122" on="1"/>
        <pt x="104" y="120" on="0"/>
        <pt x="154" y="118" on="0"/>
        <pt x="176" y="118" on="1"/>
        <pt x="265" y="118" on="0"/>
        <pt x="339" y="148" on="0"/>
        <pt x="339" y="174" on="1"/>
        <pt x="339" y="207" on="0"/>
        <pt x="255" y="258" on="0"/>
        <pt x="154" y="313" on="0"/>
        <pt x="70" y="384" on="0"/>
        <pt x="70" y="437" on="1"/>
        <pt x="70" y="471" on="0"/>
        <pt x="109" y="540" on="0"/>
        <pt x="190" y="593" on="0"/>
        <pt x="316" y="627" on="0"/>
        <pt x="402" y="627" on="1"/>
        <pt x="412" y="627" on="0"/>
        <pt x="434" y="627" on="0"/>
        <pt x="445" y="626" on="1"/>
        <pt x="453" y="496" on="1"/>
        <pt x="420" y="498" on="0"/>
        <pt x="365" y="501" on="0"/>
        <pt x="343" y="501" on="1"/>
        <pt x="273" y="501" on="0"/>
        <pt x="224" y="478" on="0"/>
        <pt x="224" y="456" on="1"/>
        <pt x="224" y="427" on="0"/>
        <pt x="308" y="378" on="0"/>
        <pt x="409" y="321" on="0"/>
        <pt x="493" y="246" on="0"/>
        <pt x="493" y="191" on="1"/>
        <pt x="493" y="154" on="0"/>
        <pt x="453" y="83" on="0"/>
        <pt x="363" y="27" on="0"/>
        <pt x="215" y="-8" on="0"/>
        <pt x="108" y="-8" on="1"/>
        <pt x="75" y="-8" on="1"/>
      </contour>
    </TTGlyph>
    <TTGlyph name="Scedilla" xMin="70" yMin="-239" xMax="493" yMax="627">
      <contour>
        <pt x="157" y="-239" on="1"/>
        <pt x="149" y="-132" on="1"/>
        <pt x="203" y="-127" on="0"/>
        <pt x="251" y="-111" on="0"/>
        <pt x="251" y="-99" on="1"/>
        <pt x="251" y="-86" on="0"/>
        <pt x="208" y="-55" on="0"/>
        <pt x="168" y="-38" on="1"/>
        <pt x="182" y="-6" on="1"/>
        <pt x="165" y="-7" on="0"/>
        <pt x="127" y="-8" on="0"/>
        <pt x="108" y="-8" on="1"/>
        <pt x="75" y="-8" on="1"/>
        <pt x="75" y="122" on="1"/>
        <pt x="104" y="120" on="0"/>
        <pt x="154" y="118" on="0"/>
        <pt x="176" y="118" on="1"/>
        <pt x="265" y="118" on="0"/>
        <pt x="339" y="148" on="0"/>
        <pt x="339" y="174" on="1"/>
        <pt x="339" y="207" on="0"/>
        <pt x="255" y="258" on="0"/>
        <pt x="154" y="313" on="0"/>
        <pt x="70" y="384" on="0"/>
        <pt x="70" y="437" on="1"/>
        <pt x="70" y="471" on="0"/>
        <pt x="109" y="540" on="0"/>
        <pt x="190" y="593" on="0"/>
        <pt x="316" y="627" on="0"/>
        <pt x="402" y="627" on="1"/>
        <pt x="412" y="627" on="0"/>
        <pt x="434" y="627" on="0"/>
        <pt x="445" y="626" on="1"/>
        <pt x="453" y="496" on="1"/>
        <pt x="420" y="498" on="0"/>
        <pt x="365" y="501" on="0"/>
        <pt x="343" y="501" on="1"/>
        <pt x="273" y="501" on="0"/>
        <pt x="224" y="478" on="0"/>
        <pt x="224" y="456" on="1"/>
        <pt x="224" y="427" on="0"/>
        <pt x="308" y="378" on="0"/>
        <pt x="409" y="321" on="0"/>
        <pt x="493" y="246" on="0"/>
        <pt x="493" y="191" on="1"/>
        <pt x="493" y="133" on="0"/>
        <pt x="386" y="25" on="0"/>
        <pt x="258" y="3" on="1"/>
        <pt x="325" y="-27" on="0"/>
        <pt x="379" y="-90" on="0"/>
        <pt x="379" y="-118" on="1"/>
        <pt x="379" y="-162" on="0"/>
        <pt x="267" y="-231" on="0"/>
      </contour>
    </TTGlyph>
    <TTGlyph name="Scommaaccent" xMin="70" yMin="-299" xMax="493" yMax="627">
      <contour>
        <pt x="75" y="122" on="1"/>
        <pt x="104" y="120" on="0"/>
        <pt x="154" y="118" on="0"/>
        <pt x="176" y="118" on="1"/>
        <pt x="265" y="118" on="0"/>
        <pt x="339" y="148" on="0"/>
        <pt x="339" y="174" on="1"/>
        <pt x="339" y="207" on="0"/>
        <pt x="255" y="258" on="0"/>
        <pt x="154" y="313" on="0"/>
        <pt x="70" y="384" on="0"/>
        <pt x="70" y="437" on="1"/>
        <pt x="70" y="471" on="0"/>
        <pt x="109" y="540" on="0"/>
        <pt x="190" y="593" on="0"/>
        <pt x="316" y="627" on="0"/>
        <pt x="402" y="627" on="1"/>
        <pt x="412" y="627" on="0"/>
        <pt x="434" y="627" on="0"/>
        <pt x="445" y="626" on="1"/>
        <pt x="453" y="496" on="1"/>
        <pt x="420" y="498" on="0"/>
        <pt x="365" y="501" on="0"/>
        <pt x="343" y="501" on="1"/>
        <pt x="273" y="501" on="0"/>
        <pt x="224" y="478" on="0"/>
        <pt x="224" y="456" on="1"/>
        <pt x="224" y="427" on="0"/>
        <pt x="308" y="378" on="0"/>
        <pt x="409" y="321" on="0"/>
        <pt x="493" y="246" on="0"/>
        <pt x="493" y="191" on="1"/>
        <pt x="493" y="154" on="0"/>
        <pt x="453" y="83" on="0"/>
        <pt x="363" y="27" on="0"/>
        <pt x="215" y="-8" on="0"/>
        <pt x="108" y="-8" on="1"/>
        <pt x="75" y="-8" on="1"/>
      </contour>
      <contour>
        <pt x="180" y="-277" on="1"/>
        <pt x="187" y="-253" on="0"/>
        <pt x="194" y="-200" on="0"/>
        <pt x="194" y="-173" on="1"/>
        <pt x="194" y="-149" on="0"/>
        <pt x="188" y="-100" on="0"/>
        <pt x="182" y="-78" on="1"/>
        <pt x="348" y="-71" on="1"/>
        <pt x="347" y="-133" on="0"/>
        <pt x="297" y="-260" on="0"/>
        <pt x="253" y="-299" on="1"/>
      </contour>
    </TTGlyph>
    <TTGlyph name="T" xMin="32" yMin="0" xMax="514" yMax="620">
      <contour>
        <pt x="350" y="498" on="1"/>
        <pt x="350" y="0" on="1"/>
        <pt x="202" y="0" on="1"/>
        <pt x="202" y="498" on="1"/>
        <pt x="32" y="498" on="1"/>
        <pt x="42" y="620" on="1"/>
        <pt x="514" y="620" on="1"/>
        <pt x="514" y="498" on="1"/>
      </contour>
    </TTGlyph>
    <TTGlyph name="Tcaron" xMin="32" yMin="0" xMax="514" yMax="888">
      <contour>
        <pt x="283" y="668" on="1"/>
        <pt x="273" y="668" on="1"/>
        <pt x="81" y="805" on="1"/>
        <pt x="168" y="888" on="1"/>
        <pt x="289" y="796" on="1"/>
        <pt x="404" y="887" on="1"/>
        <pt x="470" y="821" on="1"/>
      </contour>
      <contour>
        <pt x="350" y="498" on="1"/>
        <pt x="350" y="0" on="1"/>
        <pt x="202" y="0" on="1"/>
        <pt x="202" y="498" on="1"/>
        <pt x="32" y="498" on="1"/>
        <pt x="42" y="620" on="1"/>
        <pt x="514" y="620" on="1"/>
        <pt x="514" y="498" on="1"/>
      </contour>
    </TTGlyph>
    <TTGlyph name="Tcommaaccent" xMin="32" yMin="-291" xMax="514" yMax="620">
      <contour>
        <pt x="350" y="498" on="1"/>
        <pt x="350" y="0" on="1"/>
        <pt x="202" y="0" on="1"/>
        <pt x="202" y="498" on="1"/>
        <pt x="32" y="498" on="1"/>
        <pt x="42" y="620" on="1"/>
        <pt x="514" y="620" on="1"/>
        <pt x="514" y="498" on="1"/>
      </contour>
      <contour>
        <pt x="186" y="-269" on="1"/>
        <pt x="193" y="-245" on="0"/>
        <pt x="200" y="-192" on="0"/>
        <pt x="200" y="-165" on="1"/>
        <pt x="200" y="-141" on="0"/>
        <pt x="194" y="-92" on="0"/>
        <pt x="188" y="-70" on="1"/>
        <pt x="354" y="-63" on="1"/>
        <pt x="353" y="-125" on="0"/>
        <pt x="303" y="-252" on="0"/>
        <pt x="259" y="-291" on="1"/>
      </contour>
    </TTGlyph>
    <TTGlyph name="Thorn" xMin="75" yMin="0" xMax="519" yMax="620">
      <contour>
        <pt x="222" y="0" on="1"/>
        <pt x="75" y="0" on="1"/>
        <pt x="75" y="620" on="1"/>
        <pt x="222" y="620" on="1"/>
        <pt x="222" y="534" on="1"/>
        <pt x="226" y="534" on="0"/>
        <pt x="233" y="534" on="0"/>
        <pt x="237" y="534" on="1"/>
        <pt x="378" y="534" on="0"/>
        <pt x="519" y="433" on="0"/>
        <pt x="519" y="337" on="1"/>
        <pt x="519" y="282" on="0"/>
        <pt x="474" y="198" on="0"/>
        <pt x="396" y="139" on="0"/>
        <pt x="286" y="102" on="0"/>
        <pt x="222" y="93" on="1"/>
      </contour>
      <contour>
        <pt x="271" y="209" on="1"/>
        <pt x="322" y="209" on="0"/>
        <pt x="375" y="255" on="0"/>
        <pt x="375" y="307" on="1"/>
        <pt x="375" y="360" on="0"/>
        <pt x="312" y="414" on="0"/>
        <pt x="249" y="414" on="1"/>
        <pt x="243" y="414" on="0"/>
        <pt x="229" y="414" on="0"/>
        <pt x="222" y="413" on="1"/>
        <pt x="222" y="213" on="1"/>
        <pt x="235" y="211" on="0"/>
        <pt x="260" y="209" on="0"/>
      </contour>
    </TTGlyph>
    <TTGlyph name="U" xMin="56" yMin="-16" xMax="495" yMax="620">
      <contour>
        <pt x="270" y="-16" on="1"/>
        <pt x="170" y="-16" on="0"/>
        <pt x="56" y="104" on="0"/>
        <pt x="56" y="213" on="1"/>
        <pt x="56" y="620" on="1"/>
        <pt x="203" y="620" on="1"/>
        <pt x="203" y="215" on="1"/>
        <pt x="203" y="160" on="0"/>
        <pt x="244" y="110" on="0"/>
        <pt x="279" y="110" on="1"/>
        <pt x="315" y="110" on="0"/>
        <pt x="348" y="149" on="0"/>
        <pt x="348" y="198" on="1"/>
        <pt x="348" y="620" on="1"/>
        <pt x="495" y="620" on="1"/>
        <pt x="495" y="226" on="1"/>
        <pt x="495" y="116" on="0"/>
        <pt x="373" y="-16" on="0"/>
      </contour>
    </TTGlyph>
    <TTGlyph name="Uacute" xMin="56" yMin="-16" xMax="495" yMax="912">
      <contour>
        <pt x="144" y="736" on="1"/>
        <pt x="166" y="749" on="0"/>
        <pt x="223" y="791" on="0"/>
        <pt x="282" y="838" on="0"/>
        <pt x="340" y="889" on="0"/>
        <pt x="362" y="912" on="1"/>
        <pt x="462" y="807" on="1"/>
        <pt x="435" y="787" on="0"/>
        <pt x="360" y="746" on="0"/>
        <pt x="283" y="710" on="0"/>
        <pt x="207" y="682" on="0"/>
        <pt x="178" y="674" on="1"/>
      </contour>
      <contour>
        <pt x="270" y="-16" on="1"/>
        <pt x="170" y="-16" on="0"/>
        <pt x="56" y="104" on="0"/>
        <pt x="56" y="213" on="1"/>
        <pt x="56" y="620" on="1"/>
        <pt x="203" y="620" on="1"/>
        <pt x="203" y="215" on="1"/>
        <pt x="203" y="160" on="0"/>
        <pt x="244" y="110" on="0"/>
        <pt x="279" y="110" on="1"/>
        <pt x="315" y="110" on="0"/>
        <pt x="348" y="149" on="0"/>
        <pt x="348" y="198" on="1"/>
        <pt x="348" y="620" on="1"/>
        <pt x="495" y="620" on="1"/>
        <pt x="495" y="226" on="1"/>
        <pt x="495" y="116" on="0"/>
        <pt x="373" y="-16" on="0"/>
      </contour>
    </TTGlyph>
    <TTGlyph name="Ubreve" xMin="56" yMin="-16" xMax="495" yMax="882">
      <contour>
        <pt x="280" y="678" on="1"/>
        <pt x="222" y="678" on="0"/>
        <pt x="116" y="753" on="0"/>
        <pt x="77" y="825" on="1"/>
        <pt x="174" y="882" on="1"/>
        <pt x="205" y="834" on="0"/>
        <pt x="260" y="790" on="0"/>
        <pt x="293" y="790" on="1"/>
        <pt x="326" y="790" on="0"/>
        <pt x="381" y="835" on="0"/>
        <pt x="409" y="877" on="1"/>
        <pt x="488" y="836" on="1"/>
        <pt x="446" y="764" on="0"/>
        <pt x="338" y="678" on="0"/>
      </contour>
      <contour>
        <pt x="270" y="-16" on="1"/>
        <pt x="170" y="-16" on="0"/>
        <pt x="56" y="104" on="0"/>
        <pt x="56" y="213" on="1"/>
        <pt x="56" y="620" on="1"/>
        <pt x="203" y="620" on="1"/>
        <pt x="203" y="215" on="1"/>
        <pt x="203" y="160" on="0"/>
        <pt x="244" y="110" on="0"/>
        <pt x="279" y="110" on="1"/>
        <pt x="315" y="110" on="0"/>
        <pt x="348" y="149" on="0"/>
        <pt x="348" y="198" on="1"/>
        <pt x="348" y="620" on="1"/>
        <pt x="495" y="620" on="1"/>
        <pt x="495" y="226" on="1"/>
        <pt x="495" y="116" on="0"/>
        <pt x="373" y="-16" on="0"/>
      </contour>
    </TTGlyph>
    <TTGlyph name="Ucircumflex" xMin="56" yMin="-16" xMax="495" yMax="894">
      <contour>
        <pt x="384" y="675" on="1"/>
        <pt x="262" y="767" on="1"/>
        <pt x="147" y="676" on="1"/>
        <pt x="81" y="741" on="1"/>
        <pt x="268" y="894" on="1"/>
        <pt x="278" y="894" on="1"/>
        <pt x="470" y="757" on="1"/>
      </contour>
      <contour>
        <pt x="270" y="-16" on="1"/>
        <pt x="170" y="-16" on="0"/>
        <pt x="56" y="104" on="0"/>
        <pt x="56" y="213" on="1"/>
        <pt x="56" y="620" on="1"/>
        <pt x="203" y="620" on="1"/>
        <pt x="203" y="215" on="1"/>
        <pt x="203" y="160" on="0"/>
        <pt x="244" y="110" on="0"/>
        <pt x="279" y="110" on="1"/>
        <pt x="315" y="110" on="0"/>
        <pt x="348" y="149" on="0"/>
        <pt x="348" y="198" on="1"/>
        <pt x="348" y="620" on="1"/>
        <pt x="495" y="620" on="1"/>
        <pt x="495" y="226" on="1"/>
        <pt x="495" y="116" on="0"/>
        <pt x="373" y="-16" on="0"/>
      </contour>
    </TTGlyph>
    <TTGlyph name="Udieresis" xMin="56" yMin="-16" xMax="495" yMax="835">
      <contour>
        <pt x="460" y="690" on="1"/>
        <pt x="317" y="690" on="1"/>
        <pt x="320" y="835" on="1"/>
        <pt x="464" y="835" on="1"/>
      </contour>
      <contour>
        <pt x="236" y="690" on="1"/>
        <pt x="92" y="690" on="1"/>
        <pt x="95" y="835" on="1"/>
        <pt x="239" y="835" on="1"/>
      </contour>
      <contour>
        <pt x="270" y="-16" on="1"/>
        <pt x="170" y="-16" on="0"/>
        <pt x="56" y="104" on="0"/>
        <pt x="56" y="213" on="1"/>
        <pt x="56" y="620" on="1"/>
        <pt x="203" y="620" on="1"/>
        <pt x="203" y="215" on="1"/>
        <pt x="203" y="160" on="0"/>
        <pt x="244" y="110" on="0"/>
        <pt x="279" y="110" on="1"/>
        <pt x="315" y="110" on="0"/>
        <pt x="348" y="149" on="0"/>
        <pt x="348" y="198" on="1"/>
        <pt x="348" y="620" on="1"/>
        <pt x="495" y="620" on="1"/>
        <pt x="495" y="226" on="1"/>
        <pt x="495" y="116" on="0"/>
        <pt x="373" y="-16" on="0"/>
      </contour>
    </TTGlyph>
    <TTGlyph name="Ugrave" xMin="56" yMin="-16" xMax="495" yMax="914">
      <contour>
        <pt x="400" y="734" on="1"/>
        <pt x="362" y="673" on="1"/>
        <pt x="334" y="682" on="0"/>
        <pt x="261" y="712" on="0"/>
        <pt x="186" y="746" on="0"/>
        <pt x="112" y="783" on="0"/>
        <pt x="83" y="801" on="1"/>
        <pt x="174" y="914" on="1"/>
        <pt x="197" y="893" on="0"/>
        <pt x="259" y="843" on="0"/>
        <pt x="321" y="793" on="0"/>
        <pt x="380" y="749" on="0"/>
      </contour>
      <contour>
        <pt x="270" y="-16" on="1"/>
        <pt x="170" y="-16" on="0"/>
        <pt x="56" y="104" on="0"/>
        <pt x="56" y="213" on="1"/>
        <pt x="56" y="620" on="1"/>
        <pt x="203" y="620" on="1"/>
        <pt x="203" y="215" on="1"/>
        <pt x="203" y="160" on="0"/>
        <pt x="244" y="110" on="0"/>
        <pt x="279" y="110" on="1"/>
        <pt x="315" y="110" on="0"/>
        <pt x="348" y="149" on="0"/>
        <pt x="348" y="198" on="1"/>
        <pt x="348" y="620" on="1"/>
        <pt x="495" y="620" on="1"/>
        <pt x="495" y="226" on="1"/>
        <pt x="495" y="116" on="0"/>
        <pt x="373" y="-16" on="0"/>
      </contour>
    </TTGlyph>
    <TTGlyph name="Uhungarumlaut" xMin="56" yMin="-16" xMax="549" yMax="926">
      <contour>
        <pt x="101" y="722" on="1"/>
        <pt x="115" y="743" on="0"/>
        <pt x="144" y="796" on="0"/>
        <pt x="171" y="850" on="0"/>
        <pt x="195" y="904" on="0"/>
        <pt x="203" y="926" on="1"/>
        <pt x="335" y="865" on="1"/>
        <pt x="304" y="821" on="0"/>
        <pt x="212" y="719" on="0"/>
        <pt x="168" y="681" on="1"/>
      </contour>
      <contour>
        <pt x="314" y="720" on="1"/>
        <pt x="342" y="763" on="0"/>
        <pt x="395" y="870" on="0"/>
        <pt x="411" y="916" on="1"/>
        <pt x="549" y="863" on="1"/>
        <pt x="518" y="818" on="0"/>
        <pt x="427" y="718" on="0"/>
        <pt x="381" y="680" on="1"/>
      </contour>
      <contour>
        <pt x="270" y="-16" on="1"/>
        <pt x="170" y="-16" on="0"/>
        <pt x="56" y="104" on="0"/>
        <pt x="56" y="213" on="1"/>
        <pt x="56" y="620" on="1"/>
        <pt x="203" y="620" on="1"/>
        <pt x="203" y="215" on="1"/>
        <pt x="203" y="160" on="0"/>
        <pt x="244" y="110" on="0"/>
        <pt x="279" y="110" on="1"/>
        <pt x="315" y="110" on="0"/>
        <pt x="348" y="149" on="0"/>
        <pt x="348" y="198" on="1"/>
        <pt x="348" y="620" on="1"/>
        <pt x="495" y="620" on="1"/>
        <pt x="495" y="226" on="1"/>
        <pt x="495" y="116" on="0"/>
        <pt x="373" y="-16" on="0"/>
      </contour>
    </TTGlyph>
    <TTGlyph name="Umacron" xMin="56" yMin="-16" xMax="495" yMax="823">
      <contour>
        <pt x="456" y="823" on="1"/>
        <pt x="456" y="702" on="1"/>
        <pt x="96" y="702" on="1"/>
        <pt x="96" y="823" on="1"/>
      </contour>
      <contour>
        <pt x="270" y="-16" on="1"/>
        <pt x="170" y="-16" on="0"/>
        <pt x="56" y="104" on="0"/>
        <pt x="56" y="213" on="1"/>
        <pt x="56" y="620" on="1"/>
        <pt x="203" y="620" on="1"/>
        <pt x="203" y="215" on="1"/>
        <pt x="203" y="160" on="0"/>
        <pt x="244" y="110" on="0"/>
        <pt x="279" y="110" on="1"/>
        <pt x="315" y="110" on="0"/>
        <pt x="348" y="149" on="0"/>
        <pt x="348" y="198" on="1"/>
        <pt x="348" y="620" on="1"/>
        <pt x="495" y="620" on="1"/>
        <pt x="495" y="226" on="1"/>
        <pt x="495" y="116" on="0"/>
        <pt x="373" y="-16" on="0"/>
      </contour>
    </TTGlyph>
    <TTGlyph name="Uogonek" xMin="56" yMin="-233" xMax="495" yMax="620">
      <contour>
        <pt x="375" y="-233" on="1"/>
        <pt x="254" y="-230" on="0"/>
        <pt x="150" y="-166" on="0"/>
        <pt x="150" y="-123" on="1"/>
        <pt x="150" y="-95" on="0"/>
        <pt x="187" y="-42" on="0"/>
        <pt x="233" y="-14" on="1"/>
        <pt x="149" y="-3" on="0"/>
        <pt x="56" y="114" on="0"/>
        <pt x="56" y="213" on="1"/>
        <pt x="56" y="620" on="1"/>
        <pt x="203" y="620" on="1"/>
        <pt x="203" y="215" on="1"/>
        <pt x="203" y="160" on="0"/>
        <pt x="244" y="110" on="0"/>
        <pt x="279" y="110" on="1"/>
        <pt x="315" y="110" on="0"/>
        <pt x="348" y="149" on="0"/>
        <pt x="348" y="198" on="1"/>
        <pt x="348" y="620" on="1"/>
        <pt x="495" y="620" on="1"/>
        <pt x="495" y="226" on="1"/>
        <pt x="495" y="153" on="0"/>
        <pt x="446" y="56" on="0"/>
        <pt x="398" y="19" on="1"/>
        <pt x="347" y="-21" on="0"/>
        <pt x="285" y="-54" on="0"/>
        <pt x="285" y="-78" on="1"/>
        <pt x="285" y="-96" on="0"/>
        <pt x="331" y="-119" on="0"/>
        <pt x="387" y="-123" on="1"/>
      </contour>
    </TTGlyph>
    <TTGlyph name="Uring" xMin="56" yMin="-16" xMax="495" yMax="891">
      <contour>
        <pt x="274" y="891" on="1"/>
        <pt x="335" y="891" on="0"/>
        <pt x="411" y="826" on="0"/>
        <pt x="411" y="782" on="1"/>
        <pt x="411" y="733" on="0"/>
        <pt x="337" y="669" on="0"/>
        <pt x="274" y="669" on="1"/>
        <pt x="213" y="669" on="0"/>
        <pt x="138" y="732" on="0"/>
        <pt x="138" y="778" on="1"/>
        <pt x="138" y="826" on="0"/>
        <pt x="211" y="891" on="0"/>
      </contour>
      <contour>
        <pt x="270" y="-16" on="1"/>
        <pt x="170" y="-16" on="0"/>
        <pt x="56" y="104" on="0"/>
        <pt x="56" y="213" on="1"/>
        <pt x="56" y="620" on="1"/>
        <pt x="203" y="620" on="1"/>
        <pt x="203" y="215" on="1"/>
        <pt x="203" y="160" on="0"/>
        <pt x="244" y="110" on="0"/>
        <pt x="279" y="110" on="1"/>
        <pt x="315" y="110" on="0"/>
        <pt x="348" y="149" on="0"/>
        <pt x="348" y="198" on="1"/>
        <pt x="348" y="620" on="1"/>
        <pt x="495" y="620" on="1"/>
        <pt x="495" y="226" on="1"/>
        <pt x="495" y="116" on="0"/>
        <pt x="373" y="-16" on="0"/>
      </contour>
    </TTGlyph>
    <TTGlyph name="V" xMin="19" yMin="0" xMax="531" yMax="625">
      <contour>
        <pt x="377" y="0" on="1"/>
        <pt x="174" y="0" on="1"/>
        <pt x="131" y="154" on="0"/>
        <pt x="53" y="461" on="0"/>
        <pt x="19" y="615" on="1"/>
        <pt x="169" y="625" on="1"/>
        <pt x="192" y="506" on="0"/>
        <pt x="245" y="252" on="0"/>
        <pt x="273" y="133" on="1"/>
        <pt x="282" y="133" on="1"/>
        <pt x="310" y="252" on="0"/>
        <pt x="361" y="501" on="0"/>
        <pt x="384" y="620" on="1"/>
        <pt x="531" y="620" on="1"/>
        <pt x="497" y="466" on="0"/>
        <pt x="420" y="154" on="0"/>
      </contour>
    </TTGlyph>
    <TTGlyph name="W" xMin="26" yMin="0" xMax="525" yMax="620">
      <contour>
        <pt x="342" y="0" on="1"/>
        <pt x="271" y="267" on="1"/>
        <pt x="204" y="0" on="1"/>
        <pt x="71" y="0" on="1"/>
        <pt x="66" y="44" on="0"/>
        <pt x="54" y="174" on="0"/>
        <pt x="43" y="334" on="0"/>
        <pt x="31" y="520" on="0"/>
        <pt x="26" y="620" on="1"/>
        <pt x="167" y="620" on="1"/>
        <pt x="182" y="197" on="1"/>
        <pt x="186" y="197" on="1"/>
        <pt x="194" y="232" on="0"/>
        <pt x="207" y="289" on="0"/>
        <pt x="219" y="342" on="0"/>
        <pt x="232" y="398" on="0"/>
        <pt x="241" y="432" on="1"/>
        <pt x="314" y="432" on="1"/>
        <pt x="323" y="398" on="0"/>
        <pt x="339" y="342" on="0"/>
        <pt x="353" y="288" on="0"/>
        <pt x="367" y="231" on="0"/>
        <pt x="376" y="197" on="1"/>
        <pt x="380" y="197" on="1"/>
        <pt x="388" y="620" on="1"/>
        <pt x="525" y="620" on="1"/>
        <pt x="520" y="520" on="0"/>
        <pt x="508" y="334" on="0"/>
        <pt x="496" y="174" on="0"/>
        <pt x="484" y="44" on="0"/>
        <pt x="479" y="0" on="1"/>
      </contour>
    </TTGlyph>
    <TTGlyph name="Wacute" xMin="26" yMin="0" xMax="525" yMax="912">
      <contour>
        <pt x="146" y="736" on="1"/>
        <pt x="168" y="749" on="0"/>
        <pt x="225" y="791" on="0"/>
        <pt x="284" y="838" on="0"/>
        <pt x="342" y="889" on="0"/>
        <pt x="364" y="912" on="1"/>
        <pt x="464" y="807" on="1"/>
        <pt x="437" y="787" on="0"/>
        <pt x="362" y="746" on="0"/>
        <pt x="285" y="710" on="0"/>
        <pt x="209" y="682" on="0"/>
        <pt x="180" y="674" on="1"/>
      </contour>
      <contour>
        <pt x="342" y="0" on="1"/>
        <pt x="271" y="267" on="1"/>
        <pt x="204" y="0" on="1"/>
        <pt x="71" y="0" on="1"/>
        <pt x="66" y="44" on="0"/>
        <pt x="54" y="174" on="0"/>
        <pt x="43" y="334" on="0"/>
        <pt x="31" y="520" on="0"/>
        <pt x="26" y="620" on="1"/>
        <pt x="167" y="620" on="1"/>
        <pt x="182" y="197" on="1"/>
        <pt x="186" y="197" on="1"/>
        <pt x="194" y="232" on="0"/>
        <pt x="207" y="289" on="0"/>
        <pt x="219" y="342" on="0"/>
        <pt x="232" y="398" on="0"/>
        <pt x="241" y="432" on="1"/>
        <pt x="314" y="432" on="1"/>
        <pt x="323" y="398" on="0"/>
        <pt x="339" y="342" on="0"/>
        <pt x="353" y="288" on="0"/>
        <pt x="367" y="231" on="0"/>
        <pt x="376" y="197" on="1"/>
        <pt x="380" y="197" on="1"/>
        <pt x="388" y="620" on="1"/>
        <pt x="525" y="620" on="1"/>
        <pt x="520" y="520" on="0"/>
        <pt x="508" y="334" on="0"/>
        <pt x="496" y="174" on="0"/>
        <pt x="484" y="44" on="0"/>
        <pt x="479" y="0" on="1"/>
      </contour>
    </TTGlyph>
    <TTGlyph name="Wcircumflex" xMin="26" yMin="0" xMax="525" yMax="894">
      <contour>
        <pt x="387" y="675" on="1"/>
        <pt x="265" y="767" on="1"/>
        <pt x="150" y="676" on="1"/>
        <pt x="84" y="741" on="1"/>
        <pt x="271" y="894" on="1"/>
        <pt x="281" y="894" on="1"/>
        <pt x="473" y="757" on="1"/>
      </contour>
      <contour>
        <pt x="342" y="0" on="1"/>
        <pt x="271" y="267" on="1"/>
        <pt x="204" y="0" on="1"/>
        <pt x="71" y="0" on="1"/>
        <pt x="66" y="44" on="0"/>
        <pt x="54" y="174" on="0"/>
        <pt x="43" y="334" on="0"/>
        <pt x="31" y="520" on="0"/>
        <pt x="26" y="620" on="1"/>
        <pt x="167" y="620" on="1"/>
        <pt x="182" y="197" on="1"/>
        <pt x="186" y="197" on="1"/>
        <pt x="194" y="232" on="0"/>
        <pt x="207" y="289" on="0"/>
        <pt x="219" y="342" on="0"/>
        <pt x="232" y="398" on="0"/>
        <pt x="241" y="432" on="1"/>
        <pt x="314" y="432" on="1"/>
        <pt x="323" y="398" on="0"/>
        <pt x="339" y="342" on="0"/>
        <pt x="353" y="288" on="0"/>
        <pt x="367" y="231" on="0"/>
        <pt x="376" y="197" on="1"/>
        <pt x="380" y="197" on="1"/>
        <pt x="388" y="620" on="1"/>
        <pt x="525" y="620" on="1"/>
        <pt x="520" y="520" on="0"/>
        <pt x="508" y="334" on="0"/>
        <pt x="496" y="174" on="0"/>
        <pt x="484" y="44" on="0"/>
        <pt x="479" y="0" on="1"/>
      </contour>
    </TTGlyph>
    <TTGlyph name="Wdieresis" xMin="26" yMin="0" xMax="525" yMax="835">
      <contour>
        <pt x="462" y="690" on="1"/>
        <pt x="319" y="690" on="1"/>
        <pt x="322" y="835" on="1"/>
        <pt x="466" y="835" on="1"/>
      </contour>
      <contour>
        <pt x="238" y="690" on="1"/>
        <pt x="94" y="690" on="1"/>
        <pt x="97" y="835" on="1"/>
        <pt x="241" y="835" on="1"/>
      </contour>
      <contour>
        <pt x="342" y="0" on="1"/>
        <pt x="271" y="267" on="1"/>
        <pt x="204" y="0" on="1"/>
        <pt x="71" y="0" on="1"/>
        <pt x="66" y="44" on="0"/>
        <pt x="54" y="174" on="0"/>
        <pt x="43" y="334" on="0"/>
        <pt x="31" y="520" on="0"/>
        <pt x="26" y="620" on="1"/>
        <pt x="167" y="620" on="1"/>
        <pt x="182" y="197" on="1"/>
        <pt x="186" y="197" on="1"/>
        <pt x="194" y="232" on="0"/>
        <pt x="207" y="289" on="0"/>
        <pt x="219" y="342" on="0"/>
        <pt x="232" y="398" on="0"/>
        <pt x="241" y="432" on="1"/>
        <pt x="314" y="432" on="1"/>
        <pt x="323" y="398" on="0"/>
        <pt x="339" y="342" on="0"/>
        <pt x="353" y="288" on="0"/>
        <pt x="367" y="231" on="0"/>
        <pt x="376" y="197" on="1"/>
        <pt x="380" y="197" on="1"/>
        <pt x="388" y="620" on="1"/>
        <pt x="525" y="620" on="1"/>
        <pt x="520" y="520" on="0"/>
        <pt x="508" y="334" on="0"/>
        <pt x="496" y="174" on="0"/>
        <pt x="484" y="44" on="0"/>
        <pt x="479" y="0" on="1"/>
      </contour>
    </TTGlyph>
    <TTGlyph name="Wgrave" xMin="26" yMin="0" xMax="525" yMax="914">
      <contour>
        <pt x="403" y="734" on="1"/>
        <pt x="365" y="673" on="1"/>
        <pt x="337" y="682" on="0"/>
        <pt x="264" y="712" on="0"/>
        <pt x="189" y="746" on="0"/>
        <pt x="115" y="783" on="0"/>
        <pt x="86" y="801" on="1"/>
        <pt x="177" y="914" on="1"/>
        <pt x="200" y="893" on="0"/>
        <pt x="262" y="843" on="0"/>
        <pt x="324" y="793" on="0"/>
        <pt x="383" y="749" on="0"/>
      </contour>
      <contour>
        <pt x="342" y="0" on="1"/>
        <pt x="271" y="267" on="1"/>
        <pt x="204" y="0" on="1"/>
        <pt x="71" y="0" on="1"/>
        <pt x="66" y="44" on="0"/>
        <pt x="54" y="174" on="0"/>
        <pt x="43" y="334" on="0"/>
        <pt x="31" y="520" on="0"/>
        <pt x="26" y="620" on="1"/>
        <pt x="167" y="620" on="1"/>
        <pt x="182" y="197" on="1"/>
        <pt x="186" y="197" on="1"/>
        <pt x="194" y="232" on="0"/>
        <pt x="207" y="289" on="0"/>
        <pt x="219" y="342" on="0"/>
        <pt x="232" y="398" on="0"/>
        <pt x="241" y="432" on="1"/>
        <pt x="314" y="432" on="1"/>
        <pt x="323" y="398" on="0"/>
        <pt x="339" y="342" on="0"/>
        <pt x="353" y="288" on="0"/>
        <pt x="367" y="231" on="0"/>
        <pt x="376" y="197" on="1"/>
        <pt x="380" y="197" on="1"/>
        <pt x="388" y="620" on="1"/>
        <pt x="525" y="620" on="1"/>
        <pt x="520" y="520" on="0"/>
        <pt x="508" y="334" on="0"/>
        <pt x="496" y="174" on="0"/>
        <pt x="484" y="44" on="0"/>
        <pt x="479" y="0" on="1"/>
      </contour>
    </TTGlyph>
    <TTGlyph name="X" xMin="17" yMin="-3" xMax="536" yMax="623">
      <contour>
        <pt x="372" y="-3" on="1"/>
        <pt x="270" y="203" on="1"/>
        <pt x="174" y="0" on="1"/>
        <pt x="18" y="0" on="1"/>
        <pt x="184" y="310" on="1"/>
        <pt x="17" y="617" on="1"/>
        <pt x="179" y="623" on="1"/>
        <pt x="283" y="414" on="1"/>
        <pt x="379" y="620" on="1"/>
        <pt x="536" y="620" on="1"/>
        <pt x="368" y="308" on="1"/>
        <pt x="535" y="3" on="1"/>
      </contour>
    </TTGlyph>
    <TTGlyph name="Y" xMin="7" yMin="0" xMax="543" yMax="623">
      <contour>
        <pt x="350" y="0" on="1"/>
        <pt x="202" y="0" on="1"/>
        <pt x="202" y="204" on="1"/>
        <pt x="7" y="617" on="1"/>
        <pt x="162" y="623" on="1"/>
        <pt x="280" y="344" on="1"/>
        <pt x="392" y="620" on="1"/>
        <pt x="543" y="620" on="1"/>
        <pt x="350" y="207" on="1"/>
      </contour>
    </TTGlyph>
    <TTGlyph name="Yacute" xMin="7" yMin="0" xMax="543" yMax="915">
      <contour>
        <pt x="145" y="739" on="1"/>
        <pt x="167" y="752" on="0"/>
        <pt x="224" y="794" on="0"/>
        <pt x="283" y="841" on="0"/>
        <pt x="341" y="892" on="0"/>
        <pt x="363" y="915" on="1"/>
        <pt x="463" y="810" on="1"/>
        <pt x="436" y="790" on="0"/>
        <pt x="361" y="749" on="0"/>
        <pt x="284" y="713" on="0"/>
        <pt x="208" y="685" on="0"/>
        <pt x="179" y="677" on="1"/>
      </contour>
      <contour>
        <pt x="350" y="0" on="1"/>
        <pt x="202" y="0" on="1"/>
        <pt x="202" y="204" on="1"/>
        <pt x="7" y="617" on="1"/>
        <pt x="162" y="623" on="1"/>
        <pt x="280" y="344" on="1"/>
        <pt x="392" y="620" on="1"/>
        <pt x="543" y="620" on="1"/>
        <pt x="350" y="207" on="1"/>
      </contour>
    </TTGlyph>
    <TTGlyph name="Ycircumflex" xMin="7" yMin="0" xMax="543" yMax="897">
      <contour>
        <pt x="386" y="678" on="1"/>
        <pt x="264" y="770" on="1"/>
        <pt x="149" y="679" on="1"/>
        <pt x="83" y="744" on="1"/>
        <pt x="270" y="897" on="1"/>
        <pt x="280" y="897" on="1"/>
        <pt x="472" y="760" on="1"/>
      </contour>
      <contour>
        <pt x="350" y="0" on="1"/>
        <pt x="202" y="0" on="1"/>
        <pt x="202" y="204" on="1"/>
        <pt x="7" y="617" on="1"/>
        <pt x="162" y="623" on="1"/>
        <pt x="280" y="344" on="1"/>
        <pt x="392" y="620" on="1"/>
        <pt x="543" y="620" on="1"/>
        <pt x="350" y="207" on="1"/>
      </contour>
    </TTGlyph>
    <TTGlyph name="Ydieresis" xMin="7" yMin="0" xMax="543" yMax="838">
      <contour>
        <pt x="461" y="693" on="1"/>
        <pt x="318" y="693" on="1"/>
        <pt x="321" y="838" on="1"/>
        <pt x="465" y="838" on="1"/>
      </contour>
      <contour>
        <pt x="237" y="693" on="1"/>
        <pt x="93" y="693" on="1"/>
        <pt x="96" y="838" on="1"/>
        <pt x="240" y="838" on="1"/>
      </contour>
      <contour>
        <pt x="350" y="0" on="1"/>
        <pt x="202" y="0" on="1"/>
        <pt x="202" y="204" on="1"/>
        <pt x="7" y="617" on="1"/>
        <pt x="162" y="623" on="1"/>
        <pt x="280" y="344" on="1"/>
        <pt x="392" y="620" on="1"/>
        <pt x="543" y="620" on="1"/>
        <pt x="350" y="207" on="1"/>
      </contour>
    </TTGlyph>
    <TTGlyph name="Ygrave" xMin="7" yMin="0" xMax="543" yMax="917">
      <contour>
        <pt x="402" y="737" on="1"/>
        <pt x="364" y="676" on="1"/>
        <pt x="336" y="685" on="0"/>
        <pt x="263" y="715" on="0"/>
        <pt x="188" y="749" on="0"/>
        <pt x="114" y="786" on="0"/>
        <pt x="85" y="804" on="1"/>
        <pt x="176" y="917" on="1"/>
        <pt x="199" y="896" on="0"/>
        <pt x="261" y="846" on="0"/>
        <pt x="323" y="796" on="0"/>
        <pt x="382" y="752" on="0"/>
      </contour>
      <contour>
        <pt x="350" y="0" on="1"/>
        <pt x="202" y="0" on="1"/>
        <pt x="202" y="204" on="1"/>
        <pt x="7" y="617" on="1"/>
        <pt x="162" y="623" on="1"/>
        <pt x="280" y="344" on="1"/>
        <pt x="392" y="620" on="1"/>
        <pt x="543" y="620" on="1"/>
        <pt x="350" y="207" on="1"/>
      </contour>
    </TTGlyph>
    <TTGlyph name="Z" xMin="59" yMin="0" xMax="500" yMax="620">
      <contour>
        <pt x="490" y="0" on="1"/>
        <pt x="59" y="0" on="1"/>
        <pt x="59" y="123" on="1"/>
        <pt x="330" y="496" on="1"/>
        <pt x="59" y="493" on="1"/>
        <pt x="68" y="620" on="1"/>
        <pt x="490" y="620" on="1"/>
        <pt x="490" y="497" on="1"/>
        <pt x="221" y="124" on="1"/>
        <pt x="500" y="127" on="1"/>
      </contour>
    </TTGlyph>
    <TTGlyph name="Zacute" xMin="59" yMin="0" xMax="500" yMax="912">
      <contour>
        <pt x="156" y="736" on="1"/>
        <pt x="178" y="749" on="0"/>
        <pt x="235" y="791" on="0"/>
        <pt x="294" y="838" on="0"/>
        <pt x="352" y="889" on="0"/>
        <pt x="374" y="912" on="1"/>
        <pt x="474" y="807" on="1"/>
        <pt x="447" y="787" on="0"/>
        <pt x="372" y="746" on="0"/>
        <pt x="295" y="710" on="0"/>
        <pt x="219" y="682" on="0"/>
        <pt x="190" y="674" on="1"/>
      </contour>
      <contour>
        <pt x="490" y="0" on="1"/>
        <pt x="59" y="0" on="1"/>
        <pt x="59" y="123" on="1"/>
        <pt x="330" y="496" on="1"/>
        <pt x="59" y="493" on="1"/>
        <pt x="68" y="620" on="1"/>
        <pt x="490" y="620" on="1"/>
        <pt x="490" y="497" on="1"/>
        <pt x="221" y="124" on="1"/>
        <pt x="500" y="127" on="1"/>
      </contour>
    </TTGlyph>
    <TTGlyph name="Zcaron" xMin="59" yMin="0" xMax="500" yMax="888">
      <contour>
        <pt x="301" y="668" on="1"/>
        <pt x="291" y="668" on="1"/>
        <pt x="99" y="805" on="1"/>
        <pt x="186" y="888" on="1"/>
        <pt x="307" y="796" on="1"/>
        <pt x="422" y="887" on="1"/>
        <pt x="488" y="821" on="1"/>
      </contour>
      <contour>
        <pt x="490" y="0" on="1"/>
        <pt x="59" y="0" on="1"/>
        <pt x="59" y="123" on="1"/>
        <pt x="330" y="496" on="1"/>
        <pt x="59" y="493" on="1"/>
        <pt x="68" y="620" on="1"/>
        <pt x="490" y="620" on="1"/>
        <pt x="490" y="497" on="1"/>
        <pt x="221" y="124" on="1"/>
        <pt x="500" y="127" on="1"/>
      </contour>
    </TTGlyph>
    <TTGlyph name="Zdotaccent" xMin="59" yMin="0" xMax="500" yMax="835">
      <contour>
        <pt x="366" y="690" on="1"/>
        <pt x="218" y="690" on="1"/>
        <pt x="222" y="835" on="1"/>
        <pt x="370" y="835" on="1"/>
      </contour>
      <contour>
        <pt x="490" y="0" on="1"/>
        <pt x="59" y="0" on="1"/>
        <pt x="59" y="123" on="1"/>
        <pt x="330" y="496" on="1"/>
        <pt x="59" y="493" on="1"/>
        <pt x="68" y="620" on="1"/>
        <pt x="490" y="620" on="1"/>
        <pt x="490" y="497" on="1"/>
        <pt x="221" y="124" on="1"/>
        <pt x="500" y="127" on="1"/>
      </contour>
    </TTGlyph>
    <TTGlyph name="a" xMin="51" yMin="-13" xMax="494" yMax="517">
      <contour>
        <pt x="259" y="94" on="1"/>
        <pt x="279" y="94" on="0"/>
        <pt x="325" y="108" on="0"/>
        <pt x="347" y="121" on="1"/>
        <pt x="346" y="140" on="0"/>
        <pt x="345" y="183" on="0"/>
        <pt x="344" y="208" on="1"/>
        <pt x="327" y="210" on="0"/>
        <pt x="297" y="212" on="0"/>
        <pt x="285" y="212" on="1"/>
        <pt x="227" y="212" on="0"/>
        <pt x="192" y="179" on="0"/>
        <pt x="192" y="153" on="1"/>
        <pt x="192" y="125" on="0"/>
        <pt x="228" y="94" on="0"/>
      </contour>
      <contour>
        <pt x="363" y="-4" on="1"/>
        <pt x="353" y="53" on="1"/>
        <pt x="326" y="26" on="0"/>
        <pt x="251" y="-13" on="0"/>
        <pt x="201" y="-13" on="1"/>
        <pt x="135" y="-13" on="0"/>
        <pt x="51" y="58" on="0"/>
        <pt x="51" y="119" on="1"/>
        <pt x="51" y="155" on="0"/>
        <pt x="83" y="221" on="0"/>
        <pt x="151" y="269" on="0"/>
        <pt x="256" y="298" on="0"/>
        <pt x="329" y="298" on="1"/>
        <pt x="333" y="298" on="0"/>
        <pt x="339" y="298" on="0"/>
        <pt x="343" y="298" on="1"/>
        <pt x="340" y="327" on="0"/>
        <pt x="316" y="364" on="0"/>
        <pt x="257" y="386" on="0"/>
        <pt x="157" y="396" on="0"/>
        <pt x="79" y="398" on="1"/>
        <pt x="92" y="517" on="1"/>
        <pt x="211" y="517" on="0"/>
        <pt x="363" y="489" on="0"/>
        <pt x="450" y="428" on="0"/>
        <pt x="483" y="325" on="0"/>
        <pt x="483" y="250" on="1"/>
        <pt x="483" y="182" on="0"/>
        <pt x="490" y="54" on="0"/>
        <pt x="494" y="3" on="1"/>
      </contour>
    </TTGlyph>
    <TTGlyph name="aacute" xMin="51" yMin="-13" xMax="494" yMax="808">
      <contour>
        <pt x="137" y="632" on="1"/>
        <pt x="159" y="645" on="0"/>
        <pt x="216" y="687" on="0"/>
        <pt x="275" y="734" on="0"/>
        <pt x="333" y="785" on="0"/>
        <pt x="355" y="808" on="1"/>
        <pt x="455" y="703" on="1"/>
        <pt x="428" y="683" on="0"/>
        <pt x="353" y="642" on="0"/>
        <pt x="276" y="606" on="0"/>
        <pt x="200" y="578" on="0"/>
        <pt x="171" y="570" on="1"/>
      </contour>
      <contour>
        <pt x="259" y="94" on="1"/>
        <pt x="279" y="94" on="0"/>
        <pt x="325" y="108" on="0"/>
        <pt x="347" y="121" on="1"/>
        <pt x="346" y="140" on="0"/>
        <pt x="345" y="183" on="0"/>
        <pt x="344" y="208" on="1"/>
        <pt x="327" y="210" on="0"/>
        <pt x="297" y="212" on="0"/>
        <pt x="285" y="212" on="1"/>
        <pt x="227" y="212" on="0"/>
        <pt x="192" y="179" on="0"/>
        <pt x="192" y="153" on="1"/>
        <pt x="192" y="125" on="0"/>
        <pt x="228" y="94" on="0"/>
      </contour>
      <contour>
        <pt x="363" y="-4" on="1"/>
        <pt x="353" y="53" on="1"/>
        <pt x="326" y="26" on="0"/>
        <pt x="251" y="-13" on="0"/>
        <pt x="201" y="-13" on="1"/>
        <pt x="135" y="-13" on="0"/>
        <pt x="51" y="58" on="0"/>
        <pt x="51" y="119" on="1"/>
        <pt x="51" y="155" on="0"/>
        <pt x="83" y="221" on="0"/>
        <pt x="151" y="269" on="0"/>
        <pt x="256" y="298" on="0"/>
        <pt x="329" y="298" on="1"/>
        <pt x="333" y="298" on="0"/>
        <pt x="339" y="298" on="0"/>
        <pt x="343" y="298" on="1"/>
        <pt x="340" y="327" on="0"/>
        <pt x="316" y="364" on="0"/>
        <pt x="257" y="386" on="0"/>
        <pt x="157" y="396" on="0"/>
        <pt x="79" y="398" on="1"/>
        <pt x="92" y="517" on="1"/>
        <pt x="211" y="517" on="0"/>
        <pt x="363" y="489" on="0"/>
        <pt x="450" y="428" on="0"/>
        <pt x="483" y="325" on="0"/>
        <pt x="483" y="250" on="1"/>
        <pt x="483" y="182" on="0"/>
        <pt x="490" y="54" on="0"/>
        <pt x="494" y="3" on="1"/>
      </contour>
    </TTGlyph>
    <TTGlyph name="abreve" xMin="51" yMin="-13" xMax="494" yMax="778">
      <contour>
        <pt x="273" y="574" on="1"/>
        <pt x="215" y="574" on="0"/>
        <pt x="109" y="649" on="0"/>
        <pt x="70" y="721" on="1"/>
        <pt x="167" y="778" on="1"/>
        <pt x="198" y="730" on="0"/>
        <pt x="253" y="686" on="0"/>
        <pt x="286" y="686" on="1"/>
        <pt x="319" y="686" on="0"/>
        <pt x="374" y="731" on="0"/>
        <pt x="402" y="773" on="1"/>
        <pt x="481" y="732" on="1"/>
        <pt x="439" y="660" on="0"/>
        <pt x="331" y="574" on="0"/>
      </contour>
      <contour>
        <pt x="259" y="94" on="1"/>
        <pt x="279" y="94" on="0"/>
        <pt x="325" y="108" on="0"/>
        <pt x="347" y="121" on="1"/>
        <pt x="346" y="140" on="0"/>
        <pt x="345" y="183" on="0"/>
        <pt x="344" y="208" on="1"/>
        <pt x="327" y="210" on="0"/>
        <pt x="297" y="212" on="0"/>
        <pt x="285" y="212" on="1"/>
        <pt x="227" y="212" on="0"/>
        <pt x="192" y="179" on="0"/>
        <pt x="192" y="153" on="1"/>
        <pt x="192" y="125" on="0"/>
        <pt x="228" y="94" on="0"/>
      </contour>
      <contour>
        <pt x="363" y="-4" on="1"/>
        <pt x="353" y="53" on="1"/>
        <pt x="326" y="26" on="0"/>
        <pt x="251" y="-13" on="0"/>
        <pt x="201" y="-13" on="1"/>
        <pt x="135" y="-13" on="0"/>
        <pt x="51" y="58" on="0"/>
        <pt x="51" y="119" on="1"/>
        <pt x="51" y="155" on="0"/>
        <pt x="83" y="221" on="0"/>
        <pt x="151" y="269" on="0"/>
        <pt x="256" y="298" on="0"/>
        <pt x="329" y="298" on="1"/>
        <pt x="333" y="298" on="0"/>
        <pt x="339" y="298" on="0"/>
        <pt x="343" y="298" on="1"/>
        <pt x="340" y="327" on="0"/>
        <pt x="316" y="364" on="0"/>
        <pt x="257" y="386" on="0"/>
        <pt x="157" y="396" on="0"/>
        <pt x="79" y="398" on="1"/>
        <pt x="92" y="517" on="1"/>
        <pt x="211" y="517" on="0"/>
        <pt x="363" y="489" on="0"/>
        <pt x="450" y="428" on="0"/>
        <pt x="483" y="325" on="0"/>
        <pt x="483" y="250" on="1"/>
        <pt x="483" y="182" on="0"/>
        <pt x="490" y="54" on="0"/>
        <pt x="494" y="3" on="1"/>
      </contour>
    </TTGlyph>
    <TTGlyph name="acircumflex" xMin="51" yMin="-13" xMax="494" yMax="790">
      <contour>
        <pt x="377" y="571" on="1"/>
        <pt x="255" y="663" on="1"/>
        <pt x="140" y="572" on="1"/>
        <pt x="74" y="637" on="1"/>
        <pt x="261" y="790" on="1"/>
        <pt x="271" y="790" on="1"/>
        <pt x="463" y="653" on="1"/>
      </contour>
      <contour>
        <pt x="259" y="94" on="1"/>
        <pt x="279" y="94" on="0"/>
        <pt x="325" y="108" on="0"/>
        <pt x="347" y="121" on="1"/>
        <pt x="346" y="140" on="0"/>
        <pt x="345" y="183" on="0"/>
        <pt x="344" y="208" on="1"/>
        <pt x="327" y="210" on="0"/>
        <pt x="297" y="212" on="0"/>
        <pt x="285" y="212" on="1"/>
        <pt x="227" y="212" on="0"/>
        <pt x="192" y="179" on="0"/>
        <pt x="192" y="153" on="1"/>
        <pt x="192" y="125" on="0"/>
        <pt x="228" y="94" on="0"/>
      </contour>
      <contour>
        <pt x="363" y="-4" on="1"/>
        <pt x="353" y="53" on="1"/>
        <pt x="326" y="26" on="0"/>
        <pt x="251" y="-13" on="0"/>
        <pt x="201" y="-13" on="1"/>
        <pt x="135" y="-13" on="0"/>
        <pt x="51" y="58" on="0"/>
        <pt x="51" y="119" on="1"/>
        <pt x="51" y="155" on="0"/>
        <pt x="83" y="221" on="0"/>
        <pt x="151" y="269" on="0"/>
        <pt x="256" y="298" on="0"/>
        <pt x="329" y="298" on="1"/>
        <pt x="333" y="298" on="0"/>
        <pt x="339" y="298" on="0"/>
        <pt x="343" y="298" on="1"/>
        <pt x="340" y="327" on="0"/>
        <pt x="316" y="364" on="0"/>
        <pt x="257" y="386" on="0"/>
        <pt x="157" y="396" on="0"/>
        <pt x="79" y="398" on="1"/>
        <pt x="92" y="517" on="1"/>
        <pt x="211" y="517" on="0"/>
        <pt x="363" y="489" on="0"/>
        <pt x="450" y="428" on="0"/>
        <pt x="483" y="325" on="0"/>
        <pt x="483" y="250" on="1"/>
        <pt x="483" y="182" on="0"/>
        <pt x="490" y="54" on="0"/>
        <pt x="494" y="3" on="1"/>
      </contour>
    </TTGlyph>
    <TTGlyph name="acute" xMin="125" yMin="560" xMax="443" yMax="798">
      <contour>
        <pt x="125" y="622" on="1"/>
        <pt x="147" y="635" on="0"/>
        <pt x="204" y="677" on="0"/>
        <pt x="263" y="724" on="0"/>
        <pt x="321" y="775" on="0"/>
        <pt x="343" y="798" on="1"/>
        <pt x="443" y="693" on="1"/>
        <pt x="416" y="673" on="0"/>
        <pt x="341" y="632" on="0"/>
        <pt x="264" y="596" on="0"/>
        <pt x="188" y="568" on="0"/>
        <pt x="159" y="560" on="1"/>
      </contour>
    </TTGlyph>
    <TTGlyph name="adieresis" xMin="51" yMin="-13" xMax="494" yMax="731">
      <contour>
        <pt x="453" y="586" on="1"/>
        <pt x="310" y="586" on="1"/>
        <pt x="313" y="731" on="1"/>
        <pt x="457" y="731" on="1"/>
      </contour>
      <contour>
        <pt x="229" y="586" on="1"/>
        <pt x="85" y="586" on="1"/>
        <pt x="88" y="731" on="1"/>
        <pt x="232" y="731" on="1"/>
      </contour>
      <contour>
        <pt x="259" y="94" on="1"/>
        <pt x="279" y="94" on="0"/>
        <pt x="325" y="108" on="0"/>
        <pt x="347" y="121" on="1"/>
        <pt x="346" y="140" on="0"/>
        <pt x="345" y="183" on="0"/>
        <pt x="344" y="208" on="1"/>
        <pt x="327" y="210" on="0"/>
        <pt x="297" y="212" on="0"/>
        <pt x="285" y="212" on="1"/>
        <pt x="227" y="212" on="0"/>
        <pt x="192" y="179" on="0"/>
        <pt x="192" y="153" on="1"/>
        <pt x="192" y="125" on="0"/>
        <pt x="228" y="94" on="0"/>
      </contour>
      <contour>
        <pt x="363" y="-4" on="1"/>
        <pt x="353" y="53" on="1"/>
        <pt x="326" y="26" on="0"/>
        <pt x="251" y="-13" on="0"/>
        <pt x="201" y="-13" on="1"/>
        <pt x="135" y="-13" on="0"/>
        <pt x="51" y="58" on="0"/>
        <pt x="51" y="119" on="1"/>
        <pt x="51" y="155" on="0"/>
        <pt x="83" y="221" on="0"/>
        <pt x="151" y="269" on="0"/>
        <pt x="256" y="298" on="0"/>
        <pt x="329" y="298" on="1"/>
        <pt x="333" y="298" on="0"/>
        <pt x="339" y="298" on="0"/>
        <pt x="343" y="298" on="1"/>
        <pt x="340" y="327" on="0"/>
        <pt x="316" y="364" on="0"/>
        <pt x="257" y="386" on="0"/>
        <pt x="157" y="396" on="0"/>
        <pt x="79" y="398" on="1"/>
        <pt x="92" y="517" on="1"/>
        <pt x="211" y="517" on="0"/>
        <pt x="363" y="489" on="0"/>
        <pt x="450" y="428" on="0"/>
        <pt x="483" y="325" on="0"/>
        <pt x="483" y="250" on="1"/>
        <pt x="483" y="182" on="0"/>
        <pt x="490" y="54" on="0"/>
        <pt x="494" y="3" on="1"/>
      </contour>
    </TTGlyph>
    <TTGlyph name="ae" xMin="20" yMin="-8" xMax="531" yMax="515">
      <contour>
        <pt x="478" y="-8" on="1"/>
        <pt x="387" y="-8" on="0"/>
        <pt x="281" y="24" on="0"/>
        <pt x="254" y="54" on="1"/>
        <pt x="234" y="29" on="0"/>
        <pt x="173" y="-8" on="0"/>
        <pt x="134" y="-8" on="1"/>
        <pt x="80" y="-8" on="0"/>
        <pt x="20" y="63" on="0"/>
        <pt x="20" y="124" on="1"/>
        <pt x="20" y="206" on="0"/>
        <pt x="104" y="299" on="0"/>
        <pt x="212" y="300" on="1"/>
        <pt x="211" y="328" on="0"/>
        <pt x="197" y="363" on="0"/>
        <pt x="160" y="384" on="0"/>
        <pt x="93" y="393" on="0"/>
        <pt x="39" y="395" on="1"/>
        <pt x="48" y="512" on="1"/>
        <pt x="137" y="508" on="0"/>
        <pt x="239" y="482" on="0"/>
        <pt x="264" y="449" on="1"/>
        <pt x="285" y="482" on="0"/>
        <pt x="346" y="515" on="0"/>
        <pt x="385" y="515" on="1"/>
        <pt x="457" y="515" on="0"/>
        <pt x="531" y="388" on="0"/>
        <pt x="531" y="275" on="1"/>
        <pt x="531" y="262" on="0"/>
        <pt x="530" y="234" on="0"/>
        <pt x="529" y="220" on="1"/>
        <pt x="328" y="216" on="1"/>
        <pt x="328" y="184" on="0"/>
        <pt x="341" y="143" on="0"/>
        <pt x="381" y="119" on="0"/>
        <pt x="459" y="109" on="0"/>
        <pt x="524" y="108" on="1"/>
        <pt x="514" y="-7" on="1"/>
        <pt x="504" y="-7" on="0"/>
        <pt x="486" y="-8" on="0"/>
      </contour>
      <contour>
        <pt x="368" y="400" on="1"/>
        <pt x="344" y="400" on="0"/>
        <pt x="329" y="357" on="0"/>
        <pt x="328" y="298" on="1"/>
        <pt x="347" y="299" on="0"/>
        <pt x="386" y="299" on="0"/>
        <pt x="401" y="299" on="1"/>
        <pt x="400" y="348" on="0"/>
        <pt x="386" y="400" on="0"/>
      </contour>
      <contour>
        <pt x="188" y="99" on="1"/>
        <pt x="198" y="99" on="0"/>
        <pt x="216" y="105" on="0"/>
        <pt x="223" y="111" on="1"/>
        <pt x="216" y="134" on="0"/>
        <pt x="212" y="188" on="0"/>
        <pt x="212" y="218" on="1"/>
        <pt x="212" y="218" on="1"/>
        <pt x="208" y="219" on="0"/>
        <pt x="202" y="219" on="0"/>
        <pt x="199" y="219" on="1"/>
        <pt x="167" y="219" on="0"/>
        <pt x="149" y="183" on="0"/>
        <pt x="149" y="158" on="1"/>
        <pt x="149" y="130" on="0"/>
        <pt x="168" y="99" on="0"/>
      </contour>
    </TTGlyph>
    <TTGlyph name="aeacute" xMin="20" yMin="-8" xMax="531" yMax="799">
      <contour>
        <pt x="145" y="623" on="1"/>
        <pt x="167" y="636" on="0"/>
        <pt x="224" y="678" on="0"/>
        <pt x="283" y="725" on="0"/>
        <pt x="341" y="776" on="0"/>
        <pt x="363" y="799" on="1"/>
        <pt x="463" y="694" on="1"/>
        <pt x="436" y="674" on="0"/>
        <pt x="361" y="633" on="0"/>
        <pt x="284" y="597" on="0"/>
        <pt x="208" y="569" on="0"/>
        <pt x="179" y="561" on="1"/>
      </contour>
      <contour>
        <pt x="478" y="-8" on="1"/>
        <pt x="387" y="-8" on="0"/>
        <pt x="281" y="24" on="0"/>
        <pt x="254" y="54" on="1"/>
        <pt x="234" y="29" on="0"/>
        <pt x="173" y="-8" on="0"/>
        <pt x="134" y="-8" on="1"/>
        <pt x="80" y="-8" on="0"/>
        <pt x="20" y="63" on="0"/>
        <pt x="20" y="124" on="1"/>
        <pt x="20" y="206" on="0"/>
        <pt x="104" y="299" on="0"/>
        <pt x="212" y="300" on="1"/>
        <pt x="211" y="328" on="0"/>
        <pt x="197" y="363" on="0"/>
        <pt x="160" y="384" on="0"/>
        <pt x="93" y="393" on="0"/>
        <pt x="39" y="395" on="1"/>
        <pt x="48" y="512" on="1"/>
        <pt x="137" y="508" on="0"/>
        <pt x="239" y="482" on="0"/>
        <pt x="264" y="449" on="1"/>
        <pt x="285" y="482" on="0"/>
        <pt x="346" y="515" on="0"/>
        <pt x="385" y="515" on="1"/>
        <pt x="457" y="515" on="0"/>
        <pt x="531" y="388" on="0"/>
        <pt x="531" y="275" on="1"/>
        <pt x="531" y="262" on="0"/>
        <pt x="530" y="234" on="0"/>
        <pt x="529" y="220" on="1"/>
        <pt x="328" y="216" on="1"/>
        <pt x="328" y="184" on="0"/>
        <pt x="341" y="143" on="0"/>
        <pt x="381" y="119" on="0"/>
        <pt x="459" y="109" on="0"/>
        <pt x="524" y="108" on="1"/>
        <pt x="514" y="-7" on="1"/>
        <pt x="504" y="-7" on="0"/>
        <pt x="486" y="-8" on="0"/>
      </contour>
      <contour>
        <pt x="368" y="400" on="1"/>
        <pt x="344" y="400" on="0"/>
        <pt x="329" y="357" on="0"/>
        <pt x="328" y="298" on="1"/>
        <pt x="347" y="299" on="0"/>
        <pt x="386" y="299" on="0"/>
        <pt x="401" y="299" on="1"/>
        <pt x="400" y="348" on="0"/>
        <pt x="386" y="400" on="0"/>
      </contour>
      <contour>
        <pt x="188" y="99" on="1"/>
        <pt x="198" y="99" on="0"/>
        <pt x="216" y="105" on="0"/>
        <pt x="223" y="111" on="1"/>
        <pt x="216" y="134" on="0"/>
        <pt x="212" y="188" on="0"/>
        <pt x="212" y="218" on="1"/>
        <pt x="212" y="218" on="1"/>
        <pt x="208" y="219" on="0"/>
        <pt x="202" y="219" on="0"/>
        <pt x="199" y="219" on="1"/>
        <pt x="167" y="219" on="0"/>
        <pt x="149" y="183" on="0"/>
        <pt x="149" y="158" on="1"/>
        <pt x="149" y="130" on="0"/>
        <pt x="168" y="99" on="0"/>
      </contour>
    </TTGlyph>
    <TTGlyph name="agrave" xMin="51" yMin="-13" xMax="494" yMax="810">
      <contour>
        <pt x="394" y="630" on="1"/>
        <pt x="356" y="569" on="1"/>
        <pt x="328" y="578" on="0"/>
        <pt x="255" y="608" on="0"/>
        <pt x="180" y="642" on="0"/>
        <pt x="106" y="679" on="0"/>
        <pt x="77" y="697" on="1"/>
        <pt x="168" y="810" on="1"/>
        <pt x="191" y="789" on="0"/>
        <pt x="253" y="739" on="0"/>
        <pt x="315" y="689" on="0"/>
        <pt x="374" y="645" on="0"/>
      </contour>
      <contour>
        <pt x="259" y="94" on="1"/>
        <pt x="279" y="94" on="0"/>
        <pt x="325" y="108" on="0"/>
        <pt x="347" y="121" on="1"/>
        <pt x="346" y="140" on="0"/>
        <pt x="345" y="183" on="0"/>
        <pt x="344" y="208" on="1"/>
        <pt x="327" y="210" on="0"/>
        <pt x="297" y="212" on="0"/>
        <pt x="285" y="212" on="1"/>
        <pt x="227" y="212" on="0"/>
        <pt x="192" y="179" on="0"/>
        <pt x="192" y="153" on="1"/>
        <pt x="192" y="125" on="0"/>
        <pt x="228" y="94" on="0"/>
      </contour>
      <contour>
        <pt x="363" y="-4" on="1"/>
        <pt x="353" y="53" on="1"/>
        <pt x="326" y="26" on="0"/>
        <pt x="251" y="-13" on="0"/>
        <pt x="201" y="-13" on="1"/>
        <pt x="135" y="-13" on="0"/>
        <pt x="51" y="58" on="0"/>
        <pt x="51" y="119" on="1"/>
        <pt x="51" y="155" on="0"/>
        <pt x="83" y="221" on="0"/>
        <pt x="151" y="269" on="0"/>
        <pt x="256" y="298" on="0"/>
        <pt x="329" y="298" on="1"/>
        <pt x="333" y="298" on="0"/>
        <pt x="339" y="298" on="0"/>
        <pt x="343" y="298" on="1"/>
        <pt x="340" y="327" on="0"/>
        <pt x="316" y="364" on="0"/>
        <pt x="257" y="386" on="0"/>
        <pt x="157" y="396" on="0"/>
        <pt x="79" y="398" on="1"/>
        <pt x="92" y="517" on="1"/>
        <pt x="211" y="517" on="0"/>
        <pt x="363" y="489" on="0"/>
        <pt x="450" y="428" on="0"/>
        <pt x="483" y="325" on="0"/>
        <pt x="483" y="250" on="1"/>
        <pt x="483" y="182" on="0"/>
        <pt x="490" y="54" on="0"/>
        <pt x="494" y="3" on="1"/>
      </contour>
    </TTGlyph>
    <TTGlyph name="amacron" xMin="51" yMin="-13" xMax="494" yMax="719">
      <contour>
        <pt x="449" y="719" on="1"/>
        <pt x="449" y="598" on="1"/>
        <pt x="89" y="598" on="1"/>
        <pt x="89" y="719" on="1"/>
      </contour>
      <contour>
        <pt x="259" y="94" on="1"/>
        <pt x="279" y="94" on="0"/>
        <pt x="325" y="108" on="0"/>
        <pt x="347" y="121" on="1"/>
        <pt x="346" y="140" on="0"/>
        <pt x="345" y="183" on="0"/>
        <pt x="344" y="208" on="1"/>
        <pt x="327" y="210" on="0"/>
        <pt x="297" y="212" on="0"/>
        <pt x="285" y="212" on="1"/>
        <pt x="227" y="212" on="0"/>
        <pt x="192" y="179" on="0"/>
        <pt x="192" y="153" on="1"/>
        <pt x="192" y="125" on="0"/>
        <pt x="228" y="94" on="0"/>
      </contour>
      <contour>
        <pt x="363" y="-4" on="1"/>
        <pt x="353" y="53" on="1"/>
        <pt x="326" y="26" on="0"/>
        <pt x="251" y="-13" on="0"/>
        <pt x="201" y="-13" on="1"/>
        <pt x="135" y="-13" on="0"/>
        <pt x="51" y="58" on="0"/>
        <pt x="51" y="119" on="1"/>
        <pt x="51" y="155" on="0"/>
        <pt x="83" y="221" on="0"/>
        <pt x="151" y="269" on="0"/>
        <pt x="256" y="298" on="0"/>
        <pt x="329" y="298" on="1"/>
        <pt x="333" y="298" on="0"/>
        <pt x="339" y="298" on="0"/>
        <pt x="343" y="298" on="1"/>
        <pt x="340" y="327" on="0"/>
        <pt x="316" y="364" on="0"/>
        <pt x="257" y="386" on="0"/>
        <pt x="157" y="396" on="0"/>
        <pt x="79" y="398" on="1"/>
        <pt x="92" y="517" on="1"/>
        <pt x="211" y="517" on="0"/>
        <pt x="363" y="489" on="0"/>
        <pt x="450" y="428" on="0"/>
        <pt x="483" y="325" on="0"/>
        <pt x="483" y="250" on="1"/>
        <pt x="483" y="182" on="0"/>
        <pt x="490" y="54" on="0"/>
        <pt x="494" y="3" on="1"/>
      </contour>
    </TTGlyph>
    <TTGlyph name="ampersand" xMin="22" yMin="-14" xMax="536" yMax="634">
      <contour>
        <pt x="536" y="72" on="1"/>
        <pt x="419" y="-14" on="1"/>
        <pt x="402" y="10" on="0"/>
        <pt x="370" y="55" on="0"/>
        <pt x="354" y="75" on="1"/>
        <pt x="320" y="29" on="0"/>
        <pt x="231" y="-14" on="0"/>
        <pt x="184" y="-14" on="1"/>
        <pt x="103" y="-14" on="0"/>
        <pt x="22" y="72" on="0"/>
        <pt x="22" y="137" on="1"/>
        <pt x="22" y="200" on="0"/>
        <pt x="90" y="292" on="0"/>
        <pt x="153" y="332" on="1"/>
        <pt x="129" y="367" on="0"/>
        <pt x="103" y="425" on="0"/>
        <pt x="103" y="454" on="1"/>
        <pt x="103" y="488" on="0"/>
        <pt x="130" y="553" on="0"/>
        <pt x="192" y="603" on="0"/>
        <pt x="296" y="634" on="0"/>
        <pt x="372" y="634" on="1"/>
        <pt x="385" y="634" on="1"/>
        <pt x="394" y="506" on="1"/>
        <pt x="384" y="507" on="0"/>
        <pt x="364" y="507" on="0"/>
        <pt x="355" y="507" on="1"/>
        <pt x="290" y="507" on="0"/>
        <pt x="247" y="481" on="0"/>
        <pt x="247" y="455" on="1"/>
        <pt x="247" y="433" on="0"/>
        <pt x="306" y="359" on="0"/>
        <pt x="365" y="289" on="1"/>
        <pt x="375" y="319" on="0"/>
        <pt x="391" y="381" on="0"/>
        <pt x="396" y="407" on="1"/>
        <pt x="514" y="393" on="1"/>
        <pt x="500" y="342" on="0"/>
        <pt x="458" y="241" on="0"/>
        <pt x="436" y="201" on="1"/>
        <pt x="458" y="173" on="0"/>
        <pt x="508" y="109" on="0"/>
      </contour>
      <contour>
        <pt x="216" y="100" on="1"/>
        <pt x="238" y="100" on="0"/>
        <pt x="277" y="126" on="0"/>
        <pt x="295" y="153" on="1"/>
        <pt x="270" y="185" on="0"/>
        <pt x="224" y="241" on="0"/>
        <pt x="205" y="265" on="1"/>
        <pt x="180" y="243" on="0"/>
        <pt x="156" y="194" on="0"/>
        <pt x="156" y="168" on="1"/>
        <pt x="156" y="140" on="0"/>
        <pt x="186" y="100" on="0"/>
      </contour>
    </TTGlyph>
    <TTGlyph name="aogonek" xMin="51" yMin="-230" xMax="494" yMax="517">
      <contour>
        <pt x="472" y="-230" on="1"/>
        <pt x="351" y="-227" on="0"/>
        <pt x="247" y="-163" on="0"/>
        <pt x="247" y="-120" on="1"/>
        <pt x="247" y="-89" on="0"/>
        <pt x="302" y="-25" on="0"/>
        <pt x="361" y="9" on="1"/>
        <pt x="351" y="66" on="1"/>
        <pt x="323" y="33" on="0"/>
        <pt x="245" y="-13" on="0"/>
        <pt x="201" y="-13" on="1"/>
        <pt x="135" y="-13" on="0"/>
        <pt x="51" y="58" on="0"/>
        <pt x="51" y="119" on="1"/>
        <pt x="51" y="155" on="0"/>
        <pt x="83" y="221" on="0"/>
        <pt x="151" y="269" on="0"/>
        <pt x="256" y="298" on="0"/>
        <pt x="329" y="298" on="1"/>
        <pt x="333" y="298" on="0"/>
        <pt x="339" y="298" on="0"/>
        <pt x="343" y="298" on="1"/>
        <pt x="340" y="327" on="0"/>
        <pt x="316" y="364" on="0"/>
        <pt x="257" y="386" on="0"/>
        <pt x="157" y="396" on="0"/>
        <pt x="79" y="398" on="1"/>
        <pt x="92" y="517" on="1"/>
        <pt x="211" y="517" on="0"/>
        <pt x="363" y="489" on="0"/>
        <pt x="450" y="428" on="0"/>
        <pt x="483" y="325" on="0"/>
        <pt x="483" y="250" on="1"/>
        <pt x="483" y="182" on="0"/>
        <pt x="490" y="54" on="0"/>
        <pt x="494" y="3" on="1"/>
        <pt x="431" y="-22" on="0"/>
        <pt x="382" y="-63" on="0"/>
        <pt x="382" y="-79" on="1"/>
        <pt x="382" y="-95" on="0"/>
        <pt x="428" y="-116" on="0"/>
        <pt x="484" y="-120" on="1"/>
      </contour>
      <contour>
        <pt x="259" y="94" on="1"/>
        <pt x="280" y="94" on="0"/>
        <pt x="327" y="112" on="0"/>
        <pt x="346" y="129" on="1"/>
        <pt x="345" y="146" on="0"/>
        <pt x="345" y="186" on="0"/>
        <pt x="344" y="208" on="1"/>
        <pt x="327" y="210" on="0"/>
        <pt x="297" y="212" on="0"/>
        <pt x="285" y="212" on="1"/>
        <pt x="227" y="212" on="0"/>
        <pt x="192" y="179" on="0"/>
        <pt x="192" y="153" on="1"/>
        <pt x="192" y="125" on="0"/>
        <pt x="228" y="94" on="0"/>
      </contour>
    </TTGlyph>
    <TTGlyph name="approxequal" xMin="39" yMin="86" xMax="503" yMax="522">
      <contour>
        <pt x="357" y="318" on="1"/>
        <pt x="328" y="318" on="0"/>
        <pt x="277" y="344" on="0"/>
        <pt x="236" y="375" on="0"/>
        <pt x="201" y="401" on="0"/>
        <pt x="186" y="401" on="1"/>
        <pt x="170" y="401" on="0"/>
        <pt x="139" y="353" on="0"/>
        <pt x="120" y="313" on="1"/>
        <pt x="39" y="348" on="1"/>
        <pt x="68" y="431" on="0"/>
        <pt x="145" y="522" on="0"/>
        <pt x="198" y="522" on="1"/>
        <pt x="227" y="522" on="0"/>
        <pt x="275" y="496" on="0"/>
        <pt x="315" y="464" on="0"/>
        <pt x="348" y="438" on="0"/>
        <pt x="361" y="438" on="1"/>
        <pt x="375" y="438" on="0"/>
        <pt x="403" y="481" on="0"/>
        <pt x="420" y="518" on="1"/>
        <pt x="503" y="483" on="1"/>
        <pt x="474" y="402" on="0"/>
        <pt x="408" y="318" on="0"/>
      </contour>
      <contour>
        <pt x="357" y="89" on="1"/>
        <pt x="328" y="89" on="0"/>
        <pt x="277" y="115" on="0"/>
        <pt x="236" y="147" on="0"/>
        <pt x="201" y="173" on="0"/>
        <pt x="187" y="173" on="1"/>
        <pt x="171" y="173" on="0"/>
        <pt x="141" y="126" on="0"/>
        <pt x="122" y="86" on="1"/>
        <pt x="39" y="120" on="1"/>
        <pt x="68" y="202" on="0"/>
        <pt x="145" y="293" on="0"/>
        <pt x="199" y="293" on="1"/>
        <pt x="228" y="293" on="0"/>
        <pt x="276" y="267" on="0"/>
        <pt x="315" y="236" on="0"/>
        <pt x="348" y="210" on="0"/>
        <pt x="361" y="210" on="1"/>
        <pt x="376" y="210" on="0"/>
        <pt x="404" y="253" on="0"/>
        <pt x="422" y="290" on="1"/>
        <pt x="503" y="255" on="1"/>
        <pt x="474" y="174" on="0"/>
        <pt x="408" y="89" on="0"/>
      </contour>
    </TTGlyph>
    <TTGlyph name="aring" xMin="51" yMin="-13" xMax="494" yMax="787">
      <contour>
        <pt x="268" y="787" on="1"/>
        <pt x="329" y="787" on="0"/>
        <pt x="405" y="722" on="0"/>
        <pt x="405" y="678" on="1"/>
        <pt x="405" y="629" on="0"/>
        <pt x="331" y="565" on="0"/>
        <pt x="268" y="565" on="1"/>
        <pt x="207" y="565" on="0"/>
        <pt x="132" y="628" on="0"/>
        <pt x="132" y="674" on="1"/>
        <pt x="132" y="722" on="0"/>
        <pt x="205" y="787" on="0"/>
      </contour>
      <contour>
        <pt x="259" y="94" on="1"/>
        <pt x="279" y="94" on="0"/>
        <pt x="325" y="108" on="0"/>
        <pt x="347" y="121" on="1"/>
        <pt x="346" y="140" on="0"/>
        <pt x="345" y="183" on="0"/>
        <pt x="344" y="208" on="1"/>
        <pt x="327" y="210" on="0"/>
        <pt x="297" y="212" on="0"/>
        <pt x="285" y="212" on="1"/>
        <pt x="227" y="212" on="0"/>
        <pt x="192" y="179" on="0"/>
        <pt x="192" y="153" on="1"/>
        <pt x="192" y="125" on="0"/>
        <pt x="228" y="94" on="0"/>
      </contour>
      <contour>
        <pt x="363" y="-4" on="1"/>
        <pt x="353" y="53" on="1"/>
        <pt x="326" y="26" on="0"/>
        <pt x="251" y="-13" on="0"/>
        <pt x="201" y="-13" on="1"/>
        <pt x="135" y="-13" on="0"/>
        <pt x="51" y="58" on="0"/>
        <pt x="51" y="119" on="1"/>
        <pt x="51" y="155" on="0"/>
        <pt x="83" y="221" on="0"/>
        <pt x="151" y="269" on="0"/>
        <pt x="256" y="298" on="0"/>
        <pt x="329" y="298" on="1"/>
        <pt x="333" y="298" on="0"/>
        <pt x="339" y="298" on="0"/>
        <pt x="343" y="298" on="1"/>
        <pt x="340" y="327" on="0"/>
        <pt x="316" y="364" on="0"/>
        <pt x="257" y="386" on="0"/>
        <pt x="157" y="396" on="0"/>
        <pt x="79" y="398" on="1"/>
        <pt x="92" y="517" on="1"/>
        <pt x="211" y="517" on="0"/>
        <pt x="363" y="489" on="0"/>
        <pt x="450" y="428" on="0"/>
        <pt x="483" y="325" on="0"/>
        <pt x="483" y="250" on="1"/>
        <pt x="483" y="182" on="0"/>
        <pt x="490" y="54" on="0"/>
        <pt x="494" y="3" on="1"/>
      </contour>
    </TTGlyph>
    <TTGlyph name="aringacute" xMin="51" yMin="-13" xMax="494" yMax="1053">
      <contour>
        <pt x="137" y="877" on="1"/>
        <pt x="159" y="890" on="0"/>
        <pt x="216" y="932" on="0"/>
        <pt x="275" y="979" on="0"/>
        <pt x="333" y="1030" on="0"/>
        <pt x="355" y="1053" on="1"/>
        <pt x="455" y="948" on="1"/>
        <pt x="428" y="928" on="0"/>
        <pt x="353" y="887" on="0"/>
        <pt x="276" y="851" on="0"/>
        <pt x="200" y="823" on="0"/>
        <pt x="171" y="815" on="1"/>
      </contour>
      <contour>
        <pt x="268" y="787" on="1"/>
        <pt x="329" y="787" on="0"/>
        <pt x="405" y="722" on="0"/>
        <pt x="405" y="678" on="1"/>
        <pt x="405" y="629" on="0"/>
        <pt x="331" y="565" on="0"/>
        <pt x="268" y="565" on="1"/>
        <pt x="207" y="565" on="0"/>
        <pt x="132" y="628" on="0"/>
        <pt x="132" y="674" on="1"/>
        <pt x="132" y="722" on="0"/>
        <pt x="205" y="787" on="0"/>
      </contour>
      <contour>
        <pt x="259" y="94" on="1"/>
        <pt x="279" y="94" on="0"/>
        <pt x="325" y="108" on="0"/>
        <pt x="347" y="121" on="1"/>
        <pt x="346" y="140" on="0"/>
        <pt x="345" y="183" on="0"/>
        <pt x="344" y="208" on="1"/>
        <pt x="327" y="210" on="0"/>
        <pt x="297" y="212" on="0"/>
        <pt x="285" y="212" on="1"/>
        <pt x="227" y="212" on="0"/>
        <pt x="192" y="179" on="0"/>
        <pt x="192" y="153" on="1"/>
        <pt x="192" y="125" on="0"/>
        <pt x="228" y="94" on="0"/>
      </contour>
      <contour>
        <pt x="363" y="-4" on="1"/>
        <pt x="353" y="53" on="1"/>
        <pt x="326" y="26" on="0"/>
        <pt x="251" y="-13" on="0"/>
        <pt x="201" y="-13" on="1"/>
        <pt x="135" y="-13" on="0"/>
        <pt x="51" y="58" on="0"/>
        <pt x="51" y="119" on="1"/>
        <pt x="51" y="155" on="0"/>
        <pt x="83" y="221" on="0"/>
        <pt x="151" y="269" on="0"/>
        <pt x="256" y="298" on="0"/>
        <pt x="329" y="298" on="1"/>
        <pt x="333" y="298" on="0"/>
        <pt x="339" y="298" on="0"/>
        <pt x="343" y="298" on="1"/>
        <pt x="340" y="327" on="0"/>
        <pt x="316" y="364" on="0"/>
        <pt x="257" y="386" on="0"/>
        <pt x="157" y="396" on="0"/>
        <pt x="79" y="398" on="1"/>
        <pt x="92" y="517" on="1"/>
        <pt x="211" y="517" on="0"/>
        <pt x="363" y="489" on="0"/>
        <pt x="450" y="428" on="0"/>
        <pt x="483" y="325" on="0"/>
        <pt x="483" y="250" on="1"/>
        <pt x="483" y="182" on="0"/>
        <pt x="490" y="54" on="0"/>
        <pt x="494" y="3" on="1"/>
      </contour>
    </TTGlyph>
    <TTGlyph name="asciicircum" xMin="43" yMin="137" xMax="515" yMax="510">
      <contour>
        <pt x="411" y="137" on="1"/>
        <pt x="271" y="329" on="1"/>
        <pt x="137" y="137" on="1"/>
        <pt x="43" y="208" on="1"/>
        <pt x="262" y="507" on="1"/>
        <pt x="286" y="510" on="1"/>
        <pt x="515" y="209" on="1"/>
      </contour>
    </TTGlyph>
    <TTGlyph name="asciitilde" xMin="23" yMin="182" xMax="527" yMax="428">
      <contour>
        <pt x="371" y="182" on="1"/>
        <pt x="342" y="182" on="0"/>
        <pt x="283" y="219" on="0"/>
        <pt x="231" y="262" on="0"/>
        <pt x="188" y="299" on="0"/>
        <pt x="174" y="299" on="1"/>
        <pt x="159" y="299" on="0"/>
        <pt x="128" y="238" on="0"/>
        <pt x="111" y="187" on="1"/>
        <pt x="23" y="221" on="1"/>
        <pt x="50" y="313" on="0"/>
        <pt x="131" y="428" on="0"/>
        <pt x="183" y="428" on="1"/>
        <pt x="212" y="428" on="0"/>
        <pt x="270" y="391" on="0"/>
        <pt x="320" y="348" on="0"/>
        <pt x="362" y="311" on="0"/>
        <pt x="376" y="311" on="1"/>
        <pt x="390" y="311" on="0"/>
        <pt x="420" y="372" on="0"/>
        <pt x="439" y="423" on="1"/>
        <pt x="527" y="389" on="1"/>
        <pt x="499" y="293" on="0"/>
        <pt x="424" y="182" on="0"/>
      </contour>
    </TTGlyph>
    <TTGlyph name="asterisk" xMin="31" yMin="213" xMax="526" yMax="697">
      <contour>
        <pt x="360" y="213" on="1"/>
        <pt x="266" y="325" on="1"/>
        <pt x="151" y="232" on="1"/>
        <pt x="79" y="296" on="1"/>
        <pt x="156" y="419" on="1"/>
        <pt x="31" y="501" on="1"/>
        <pt x="69" y="590" on="1"/>
        <pt x="211" y="553" on="1"/>
        <pt x="248" y="697" on="1"/>
        <pt x="345" y="690" on="1"/>
        <pt x="357" y="541" on="1"/>
        <pt x="504" y="551" on="1"/>
        <pt x="526" y="459" on="1"/>
        <pt x="389" y="400" on="1"/>
        <pt x="442" y="263" on="1"/>
      </contour>
    </TTGlyph>
    <TTGlyph name="asterisk.alt" xMin="21" yMin="194" xMax="529" yMax="706">
      <contour>
        <pt x="328" y="529" on="1"/>
        <pt x="260" y="543" on="1"/>
        <pt x="262" y="706" on="1"/>
        <pt x="384" y="681" on="1"/>
      </contour>
      <contour>
        <pt x="233" y="536" on="1"/>
        <pt x="187" y="482" on="1"/>
        <pt x="48" y="567" on="1"/>
        <pt x="130" y="660" on="1"/>
      </contour>
      <contour>
        <pt x="370" y="442" on="1"/>
        <pt x="346" y="510" on="1"/>
        <pt x="490" y="589" on="1"/>
        <pt x="529" y="472" on="1"/>
      </contour>
      <contour>
        <pt x="180" y="458" on="1"/>
        <pt x="204" y="390" on="1"/>
        <pt x="60" y="311" on="1"/>
        <pt x="21" y="428" on="1"/>
      </contour>
      <contour>
        <pt x="317" y="364" on="1"/>
        <pt x="364" y="418" on="1"/>
        <pt x="503" y="333" on="1"/>
        <pt x="421" y="240" on="1"/>
      </contour>
      <contour>
        <pt x="222" y="371" on="1"/>
        <pt x="290" y="357" on="1"/>
        <pt x="289" y="194" on="1"/>
        <pt x="165" y="219" on="1"/>
      </contour>
    </TTGlyph>
    <TTGlyph name="at" xMin="24" yMin="-157" xMax="516" yMax="687">
      <contour>
        <pt x="457" y="-151" on="1"/>
        <pt x="432" y="-154" on="0"/>
        <pt x="385" y="-157" on="0"/>
        <pt x="364" y="-157" on="1"/>
        <pt x="268" y="-157" on="0"/>
        <pt x="137" y="-99" on="0"/>
        <pt x="58" y="6" on="0"/>
        <pt x="24" y="153" on="0"/>
        <pt x="24" y="241" on="1"/>
        <pt x="24" y="342" on="0"/>
        <pt x="70" y="508" on="0"/>
        <pt x="152" y="624" on="0"/>
        <pt x="265" y="687" on="0"/>
        <pt x="331" y="687" on="1"/>
        <pt x="424" y="687" on="0"/>
        <pt x="510" y="569" on="0"/>
        <pt x="510" y="457" on="1"/>
        <pt x="510" y="375" on="0"/>
        <pt x="511" y="256" on="0"/>
        <pt x="513" y="168" on="0"/>
        <pt x="515" y="104" on="0"/>
        <pt x="516" y="76" on="1"/>
        <pt x="400" y="63" on="1"/>
        <pt x="395" y="108" on="1"/>
        <pt x="376" y="83" on="0"/>
        <pt x="334" y="59" on="0"/>
        <pt x="307" y="59" on="1"/>
        <pt x="259" y="59" on="0"/>
        <pt x="195" y="160" on="0"/>
        <pt x="195" y="241" on="1"/>
        <pt x="195" y="244" on="1"/>
        <pt x="195" y="306" on="0"/>
        <pt x="225" y="394" on="0"/>
        <pt x="277" y="450" on="0"/>
        <pt x="347" y="478" on="0"/>
        <pt x="387" y="482" on="1"/>
        <pt x="383" y="529" on="0"/>
        <pt x="351" y="575" on="0"/>
        <pt x="317" y="575" on="1"/>
        <pt x="285" y="575" on="0"/>
        <pt x="222" y="539" on="0"/>
        <pt x="172" y="462" on="0"/>
        <pt x="141" y="342" on="0"/>
        <pt x="141" y="259" on="1"/>
        <pt x="141" y="186" on="0"/>
        <pt x="161" y="71" on="0"/>
        <pt x="214" y="-6" on="0"/>
        <pt x="307" y="-47" on="0"/>
        <pt x="379" y="-47" on="1"/>
        <pt x="396" y="-47" on="0"/>
        <pt x="435" y="-44" on="0"/>
        <pt x="456" y="-42" on="1"/>
      </contour>
      <contour>
        <pt x="357" y="166" on="1"/>
        <pt x="366" y="166" on="0"/>
        <pt x="382" y="174" on="0"/>
        <pt x="389" y="181" on="1"/>
        <pt x="389" y="364" on="1"/>
        <pt x="384" y="365" on="0"/>
        <pt x="375" y="366" on="0"/>
        <pt x="371" y="366" on="1"/>
        <pt x="337" y="366" on="0"/>
        <pt x="320" y="313" on="0"/>
        <pt x="320" y="267" on="1"/>
        <pt x="320" y="216" on="0"/>
        <pt x="338" y="166" on="0"/>
      </contour>
    </TTGlyph>
    <TTGlyph name="atilde" xMin="51" yMin="-13" xMax="494" yMax="764">
      <contour>
        <pt x="345" y="579" on="1"/>
        <pt x="321" y="579" on="0"/>
        <pt x="277" y="602" on="0"/>
        <pt x="239" y="628" on="0"/>
        <pt x="206" y="651" on="0"/>
        <pt x="193" y="651" on="1"/>
        <pt x="183" y="651" on="0"/>
        <pt x="153" y="623" on="0"/>
        <pt x="134" y="587" on="1"/>
        <pt x="63" y="621" on="1"/>
        <pt x="90" y="681" on="0"/>
        <pt x="167" y="764" on="0"/>
        <pt x="210" y="764" on="1"/>
        <pt x="234" y="764" on="0"/>
        <pt x="278" y="741" on="0"/>
        <pt x="316" y="715" on="0"/>
        <pt x="349" y="692" on="0"/>
        <pt x="361" y="692" on="1"/>
        <pt x="371" y="692" on="0"/>
        <pt x="401" y="720" on="0"/>
        <pt x="421" y="757" on="1"/>
        <pt x="492" y="723" on="1"/>
        <pt x="465" y="663" on="0"/>
        <pt x="388" y="579" on="0"/>
      </contour>
      <contour>
        <pt x="259" y="94" on="1"/>
        <pt x="279" y="94" on="0"/>
        <pt x="325" y="108" on="0"/>
        <pt x="347" y="121" on="1"/>
        <pt x="346" y="140" on="0"/>
        <pt x="345" y="183" on="0"/>
        <pt x="344" y="208" on="1"/>
        <pt x="327" y="210" on="0"/>
        <pt x="297" y="212" on="0"/>
        <pt x="285" y="212" on="1"/>
        <pt x="227" y="212" on="0"/>
        <pt x="192" y="179" on="0"/>
        <pt x="192" y="153" on="1"/>
        <pt x="192" y="125" on="0"/>
        <pt x="228" y="94" on="0"/>
      </contour>
      <contour>
        <pt x="363" y="-4" on="1"/>
        <pt x="353" y="53" on="1"/>
        <pt x="326" y="26" on="0"/>
        <pt x="251" y="-13" on="0"/>
        <pt x="201" y="-13" on="1"/>
        <pt x="135" y="-13" on="0"/>
        <pt x="51" y="58" on="0"/>
        <pt x="51" y="119" on="1"/>
        <pt x="51" y="155" on="0"/>
        <pt x="83" y="221" on="0"/>
        <pt x="151" y="269" on="0"/>
        <pt x="256" y="298" on="0"/>
        <pt x="329" y="298" on="1"/>
        <pt x="333" y="298" on="0"/>
        <pt x="339" y="298" on="0"/>
        <pt x="343" y="298" on="1"/>
        <pt x="340" y="327" on="0"/>
        <pt x="316" y="364" on="0"/>
        <pt x="257" y="386" on="0"/>
        <pt x="157" y="396" on="0"/>
        <pt x="79" y="398" on="1"/>
        <pt x="92" y="517" on="1"/>
        <pt x="211" y="517" on="0"/>
        <pt x="363" y="489" on="0"/>
        <pt x="450" y="428" on="0"/>
        <pt x="483" y="325" on="0"/>
        <pt x="483" y="250" on="1"/>
        <pt x="483" y="182" on="0"/>
        <pt x="490" y="54" on="0"/>
        <pt x="494" y="3" on="1"/>
      </contour>
    </TTGlyph>
    <TTGlyph name="b" xMin="66" yMin="-14" xMax="508" yMax="715">
      <contour>
        <pt x="223" y="-14" on="1"/>
        <pt x="179" y="-14" on="0"/>
        <pt x="102" y="0" on="0"/>
        <pt x="66" y="14" on="1"/>
        <pt x="66" y="703" on="1"/>
        <pt x="208" y="715" on="1"/>
        <pt x="208" y="470" on="1"/>
        <pt x="231" y="492" on="0"/>
        <pt x="291" y="520" on="0"/>
        <pt x="328" y="520" on="1"/>
        <pt x="406" y="520" on="0"/>
        <pt x="508" y="390" on="0"/>
        <pt x="508" y="281" on="1"/>
        <pt x="508" y="212" on="0"/>
        <pt x="461" y="102" on="0"/>
        <pt x="384" y="27" on="0"/>
        <pt x="280" y="-14" on="0"/>
      </contour>
      <contour>
        <pt x="274" y="108" on="1"/>
        <pt x="322" y="108" on="0"/>
        <pt x="367" y="171" on="0"/>
        <pt x="367" y="246" on="1"/>
        <pt x="367" y="327" on="0"/>
        <pt x="313" y="405" on="0"/>
        <pt x="269" y="405" on="1"/>
        <pt x="254" y="405" on="0"/>
        <pt x="223" y="395" on="0"/>
        <pt x="208" y="385" on="1"/>
        <pt x="208" y="119" on="1"/>
        <pt x="224" y="114" on="0"/>
        <pt x="255" y="108" on="0"/>
      </contour>
    </TTGlyph>
    <TTGlyph name="backslash" xMin="-22" yMin="-190" xMax="563" yMax="748">
      <contour>
        <pt x="102" y="748" on="1"/>
        <pt x="563" y="-151" on="1"/>
        <pt x="432" y="-190" on="1"/>
        <pt x="-22" y="696" on="1"/>
      </contour>
    </TTGlyph>
    <TTGlyph name="bar" xMin="208" yMin="-184" xMax="342" yMax="726">
      <contour>
        <pt x="208" y="715" on="1"/>
        <pt x="342" y="726" on="1"/>
        <pt x="342" y="-184" on="1"/>
        <pt x="208" y="-184" on="1"/>
      </contour>
    </TTGlyph>
    <TTGlyph name="braceleft" xMin="81" yMin="-216" xMax="488" yMax="740">
      <contour>
        <pt x="439" y="-216" on="1"/>
        <pt x="350" y="-188" on="0"/>
        <pt x="229" y="-140" on="0"/>
        <pt x="156" y="-94" on="0"/>
        <pt x="125" y="-45" on="0"/>
        <pt x="125" y="-16" on="1"/>
        <pt x="125" y="14" on="0"/>
        <pt x="153" y="61" on="0"/>
        <pt x="186" y="100" on="0"/>
        <pt x="214" y="133" on="0"/>
        <pt x="214" y="149" on="1"/>
        <pt x="214" y="173" on="0"/>
        <pt x="147" y="205" on="0"/>
        <pt x="81" y="212" on="1"/>
        <pt x="86" y="311" on="1"/>
        <pt x="164" y="320" on="0"/>
        <pt x="222" y="341" on="0"/>
        <pt x="222" y="359" on="1"/>
        <pt x="222" y="373" on="0"/>
        <pt x="192" y="403" on="0"/>
        <pt x="155" y="439" on="0"/>
        <pt x="124" y="484" on="0"/>
        <pt x="124" y="513" on="1"/>
        <pt x="124" y="514" on="1"/>
        <pt x="124" y="542" on="0"/>
        <pt x="157" y="599" on="0"/>
        <pt x="231" y="655" on="0"/>
        <pt x="354" y="712" on="0"/>
        <pt x="443" y="740" on="1"/>
        <pt x="488" y="627" on="1"/>
        <pt x="372" y="596" on="0"/>
        <pt x="261" y="548" on="0"/>
        <pt x="261" y="522" on="1"/>
        <pt x="261" y="507" on="0"/>
        <pt x="288" y="474" on="0"/>
        <pt x="321" y="439" on="0"/>
        <pt x="348" y="399" on="0"/>
        <pt x="348" y="378" on="1"/>
        <pt x="348" y="350" on="0"/>
        <pt x="298" y="292" on="0"/>
        <pt x="238" y="272" on="1"/>
        <pt x="299" y="255" on="0"/>
        <pt x="350" y="200" on="0"/>
        <pt x="350" y="170" on="1"/>
        <pt x="350" y="146" on="0"/>
        <pt x="324" y="106" on="0"/>
        <pt x="293" y="70" on="0"/>
        <pt x="267" y="36" on="0"/>
        <pt x="267" y="18" on="1"/>
        <pt x="267" y="-16" on="0"/>
        <pt x="376" y="-73" on="0"/>
        <pt x="486" y="-105" on="1"/>
      </contour>
    </TTGlyph>
    <TTGlyph name="braceleft.cap" xMin="81" yMin="-170" xMax="488" yMax="786">
      <contour>
        <pt x="439" y="-170" on="1"/>
        <pt x="350" y="-142" on="0"/>
        <pt x="229" y="-94" on="0"/>
        <pt x="156" y="-48" on="0"/>
        <pt x="125" y="1" on="0"/>
        <pt x="125" y="30" on="1"/>
        <pt x="125" y="60" on="0"/>
        <pt x="153" y="107" on="0"/>
        <pt x="186" y="146" on="0"/>
        <pt x="214" y="179" on="0"/>
        <pt x="214" y="195" on="1"/>
        <pt x="214" y="219" on="0"/>
        <pt x="147" y="251" on="0"/>
        <pt x="81" y="258" on="1"/>
        <pt x="86" y="357" on="1"/>
        <pt x="164" y="366" on="0"/>
        <pt x="222" y="387" on="0"/>
        <pt x="222" y="405" on="1"/>
        <pt x="222" y="419" on="0"/>
        <pt x="192" y="449" on="0"/>
        <pt x="155" y="485" on="0"/>
        <pt x="124" y="530" on="0"/>
        <pt x="124" y="559" on="1"/>
        <pt x="124" y="560" on="1"/>
        <pt x="124" y="588" on="0"/>
        <pt x="157" y="645" on="0"/>
        <pt x="231" y="701" on="0"/>
        <pt x="354" y="758" on="0"/>
        <pt x="443" y="786" on="1"/>
        <pt x="488" y="673" on="1"/>
        <pt x="372" y="642" on="0"/>
        <pt x="261" y="594" on="0"/>
        <pt x="261" y="568" on="1"/>
        <pt x="261" y="553" on="0"/>
        <pt x="288" y="520" on="0"/>
        <pt x="321" y="485" on="0"/>
        <pt x="348" y="445" on="0"/>
        <pt x="348" y="424" on="1"/>
        <pt x="348" y="396" on="0"/>
        <pt x="298" y="338" on="0"/>
        <pt x="238" y="318" on="1"/>
        <pt x="299" y="301" on="0"/>
        <pt x="350" y="246" on="0"/>
        <pt x="350" y="216" on="1"/>
        <pt x="350" y="192" on="0"/>
        <pt x="324" y="152" on="0"/>
        <pt x="293" y="116" on="0"/>
        <pt x="267" y="82" on="0"/>
        <pt x="267" y="64" on="1"/>
        <pt x="267" y="30" on="0"/>
        <pt x="376" y="-27" on="0"/>
        <pt x="486" y="-59" on="1"/>
      </contour>
    </TTGlyph>
    <TTGlyph name="braceright" xMin="64" yMin="-215" xMax="471" yMax="741">
      <contour>
        <pt x="109" y="-215" on="1"/>
        <pt x="64" y="-102" on="1"/>
        <pt x="180" y="-71" on="0"/>
        <pt x="291" y="-23" on="0"/>
        <pt x="291" y="3" on="1"/>
        <pt x="291" y="18" on="0"/>
        <pt x="264" y="51" on="0"/>
        <pt x="231" y="86" on="0"/>
        <pt x="204" y="126" on="0"/>
        <pt x="204" y="147" on="1"/>
        <pt x="204" y="175" on="0"/>
        <pt x="254" y="233" on="0"/>
        <pt x="314" y="253" on="1"/>
        <pt x="253" y="270" on="0"/>
        <pt x="202" y="325" on="0"/>
        <pt x="202" y="355" on="1"/>
        <pt x="202" y="379" on="0"/>
        <pt x="228" y="419" on="0"/>
        <pt x="259" y="455" on="0"/>
        <pt x="285" y="489" on="0"/>
        <pt x="285" y="507" on="1"/>
        <pt x="285" y="541" on="0"/>
        <pt x="176" y="598" on="0"/>
        <pt x="66" y="630" on="1"/>
        <pt x="113" y="741" on="1"/>
        <pt x="202" y="713" on="0"/>
        <pt x="323" y="665" on="0"/>
        <pt x="396" y="619" on="0"/>
        <pt x="427" y="570" on="0"/>
        <pt x="427" y="541" on="1"/>
        <pt x="427" y="511" on="0"/>
        <pt x="399" y="464" on="0"/>
        <pt x="366" y="425" on="0"/>
        <pt x="338" y="392" on="0"/>
        <pt x="338" y="376" on="1"/>
        <pt x="338" y="352" on="0"/>
        <pt x="405" y="320" on="0"/>
        <pt x="471" y="313" on="1"/>
        <pt x="466" y="214" on="1"/>
        <pt x="388" y="205" on="0"/>
        <pt x="330" y="184" on="0"/>
        <pt x="330" y="166" on="1"/>
        <pt x="330" y="152" on="0"/>
        <pt x="360" y="122" on="0"/>
        <pt x="397" y="86" on="0"/>
        <pt x="428" y="41" on="0"/>
        <pt x="428" y="12" on="1"/>
        <pt x="428" y="11" on="1"/>
        <pt x="428" y="-17" on="0"/>
        <pt x="395" y="-74" on="0"/>
        <pt x="321" y="-130" on="0"/>
        <pt x="198" y="-187" on="0"/>
      </contour>
    </TTGlyph>
    <TTGlyph name="braceright.cap" xMin="64" yMin="-170" xMax="471" yMax="786">
      <contour>
        <pt x="109" y="-170" on="1"/>
        <pt x="64" y="-57" on="1"/>
        <pt x="180" y="-26" on="0"/>
        <pt x="291" y="22" on="0"/>
        <pt x="291" y="48" on="1"/>
        <pt x="291" y="63" on="0"/>
        <pt x="264" y="96" on="0"/>
        <pt x="231" y="131" on="0"/>
        <pt x="204" y="171" on="0"/>
        <pt x="204" y="192" on="1"/>
        <pt x="204" y="220" on="0"/>
        <pt x="254" y="278" on="0"/>
        <pt x="314" y="298" on="1"/>
        <pt x="253" y="315" on="0"/>
        <pt x="202" y="370" on="0"/>
        <pt x="202" y="400" on="1"/>
        <pt x="202" y="424" on="0"/>
        <pt x="228" y="464" on="0"/>
        <pt x="259" y="500" on="0"/>
        <pt x="285" y="534" on="0"/>
        <pt x="285" y="552" on="1"/>
        <pt x="285" y="586" on="0"/>
        <pt x="176" y="643" on="0"/>
        <pt x="66" y="675" on="1"/>
        <pt x="113" y="786" on="1"/>
        <pt x="202" y="758" on="0"/>
        <pt x="323" y="710" on="0"/>
        <pt x="396" y="664" on="0"/>
        <pt x="427" y="615" on="0"/>
        <pt x="427" y="586" on="1"/>
        <pt x="427" y="556" on="0"/>
        <pt x="399" y="509" on="0"/>
        <pt x="366" y="470" on="0"/>
        <pt x="338" y="437" on="0"/>
        <pt x="338" y="421" on="1"/>
        <pt x="338" y="397" on="0"/>
        <pt x="405" y="365" on="0"/>
        <pt x="471" y="358" on="1"/>
        <pt x="466" y="259" on="1"/>
        <pt x="388" y="250" on="0"/>
        <pt x="330" y="229" on="0"/>
        <pt x="330" y="211" on="1"/>
        <pt x="330" y="197" on="0"/>
        <pt x="360" y="167" on="0"/>
        <pt x="397" y="131" on="0"/>
        <pt x="428" y="86" on="0"/>
        <pt x="428" y="57" on="1"/>
        <pt x="428" y="56" on="1"/>
        <pt x="428" y="28" on="0"/>
        <pt x="395" y="-29" on="0"/>
        <pt x="321" y="-85" on="0"/>
        <pt x="198" y="-142" on="0"/>
      </contour>
    </TTGlyph>
    <TTGlyph name="bracketleft" xMin="120" yMin="-180" xMax="472" yMax="702">
      <contour>
        <pt x="120" y="-180" on="1"/>
        <pt x="120" y="702" on="1"/>
        <pt x="465" y="702" on="1"/>
        <pt x="465" y="590" on="1"/>
        <pt x="256" y="590" on="1"/>
        <pt x="256" y="-68" on="1"/>
        <pt x="472" y="-68" on="1"/>
        <pt x="459" y="-180" on="1"/>
      </contour>
    </TTGlyph>
    <TTGlyph name="bracketleft.cap" xMin="120" yMin="-134" xMax="472" yMax="748">
      <contour>
        <pt x="120" y="-134" on="1"/>
        <pt x="120" y="748" on="1"/>
        <pt x="465" y="748" on="1"/>
        <pt x="465" y="636" on="1"/>
        <pt x="256" y="636" on="1"/>
        <pt x="256" y="-22" on="1"/>
        <pt x="472" y="-22" on="1"/>
        <pt x="459" y="-134" on="1"/>
      </contour>
    </TTGlyph>
    <TTGlyph name="bracketright" xMin="81" yMin="-180" xMax="431" yMax="702">
      <contour>
        <pt x="91" y="-68" on="1"/>
        <pt x="295" y="-68" on="1"/>
        <pt x="295" y="590" on="1"/>
        <pt x="87" y="590" on="1"/>
        <pt x="87" y="702" on="1"/>
        <pt x="431" y="702" on="1"/>
        <pt x="431" y="-180" on="1"/>
        <pt x="81" y="-180" on="1"/>
      </contour>
    </TTGlyph>
    <TTGlyph name="bracketright.cap" xMin="81" yMin="-134" xMax="431" yMax="748">
      <contour>
        <pt x="91" y="-22" on="1"/>
        <pt x="295" y="-22" on="1"/>
        <pt x="295" y="636" on="1"/>
        <pt x="87" y="636" on="1"/>
        <pt x="87" y="748" on="1"/>
        <pt x="431" y="748" on="1"/>
        <pt x="431" y="-134" on="1"/>
        <pt x="81" y="-134" on="1"/>
      </contour>
    </TTGlyph>
    <TTGlyph name="breve" xMin="70" yMin="564" xMax="481" yMax="768">
      <contour>
        <pt x="273" y="564" on="1"/>
        <pt x="215" y="564" on="0"/>
        <pt x="109" y="639" on="0"/>
        <pt x="70" y="711" on="1"/>
        <pt x="167" y="768" on="1"/>
        <pt x="198" y="720" on="0"/>
        <pt x="253" y="676" on="0"/>
        <pt x="286" y="676" on="1"/>
        <pt x="319" y="676" on="0"/>
        <pt x="374" y="721" on="0"/>
        <pt x="402" y="763" on="1"/>
        <pt x="481" y="722" on="1"/>
        <pt x="439" y="650" on="0"/>
        <pt x="331" y="564" on="0"/>
      </contour>
    </TTGlyph>
    <TTGlyph name="bullet" xMin="116" yMin="143" xMax="433" yMax="453">
      <contour>
        <pt x="433" y="301" on="1"/>
        <pt x="433" y="265" on="0"/>
        <pt x="407" y="207" on="0"/>
        <pt x="363" y="165" on="0"/>
        <pt x="304" y="143" on="0"/>
        <pt x="271" y="143" on="1"/>
        <pt x="205" y="143" on="0"/>
        <pt x="116" y="227" on="0"/>
        <pt x="116" y="296" on="1"/>
        <pt x="116" y="331" on="0"/>
        <pt x="142" y="390" on="0"/>
        <pt x="186" y="431" on="0"/>
        <pt x="245" y="453" on="0"/>
        <pt x="278" y="453" on="1"/>
        <pt x="344" y="453" on="0"/>
        <pt x="433" y="370" on="0"/>
      </contour>
    </TTGlyph>
    <TTGlyph name="bullet.alt" xMin="138" yMin="165" xMax="412" yMax="435">
      <contour>
        <pt x="410" y="165" on="1"/>
        <pt x="138" y="165" on="1"/>
        <pt x="140" y="435" on="1"/>
        <pt x="412" y="435" on="1"/>
      </contour>
    </TTGlyph>
    <TTGlyph name="c" xMin="64" yMin="-9" xMax="483" yMax="513">
      <contour>
        <pt x="64" y="244" on="1"/>
        <pt x="64" y="297" on="0"/>
        <pt x="101" y="395" on="0"/>
        <pt x="191" y="469" on="0"/>
        <pt x="341" y="513" on="0"/>
        <pt x="453" y="513" on="1"/>
        <pt x="467" y="513" on="1"/>
        <pt x="476" y="379" on="1"/>
        <pt x="452" y="380" on="0"/>
        <pt x="410" y="382" on="0"/>
        <pt x="391" y="382" on="1"/>
        <pt x="329" y="382" on="0"/>
        <pt x="254" y="366" on="0"/>
        <pt x="216" y="336" on="0"/>
        <pt x="205" y="291" on="0"/>
        <pt x="205" y="263" on="1"/>
        <pt x="205" y="181" on="0"/>
        <pt x="295" y="110" on="0"/>
        <pt x="406" y="110" on="1"/>
        <pt x="423" y="110" on="0"/>
        <pt x="462" y="112" on="0"/>
        <pt x="483" y="113" on="1"/>
        <pt x="469" y="-4" on="1"/>
        <pt x="443" y="-6" on="0"/>
        <pt x="394" y="-9" on="0"/>
        <pt x="372" y="-9" on="1"/>
        <pt x="281" y="-9" on="0"/>
        <pt x="162" y="31" on="0"/>
        <pt x="92" y="99" on="0"/>
        <pt x="64" y="191" on="0"/>
      </contour>
    </TTGlyph>
</ttFont>
